<?xml version="1.0" encoding="utf-8"?>
<!-- Generator: Adobe Illustrator 26.0.3, SVG Export Plug-In . SVG Version: 6.00 Build 0)  -->
<svg version="1.1" id="Layer_1" xmlns="http://www.w3.org/2000/svg" xmlns:xlink="http://www.w3.org/1999/xlink" x="0px" y="0px"
	 viewBox="0 0 361.77 109.59" style="enable-background:new 0 0 361.77 109.59;" xml:space="preserve">
<style type="text/css">
	.st0{fill:none;stroke:#000000;stroke-width:0.398;stroke-miterlimit:10;}
	.st1{font-family:'CMR10';}
	.st2{font-size:10.909px;}
	.st3{letter-spacing:3;}
	.st4{letter-spacing:4;}
	.st5{font-family:'CMBX10';}
</style>
<line class="st0" x1="0" y1="0.2" x2="361.77" y2="0.2"/>
<line class="st0" x1="0.2" y1="13.95" x2="0.2" y2="0.4"/>
<text transform="matrix(1 0 0 1 6.3758 9.882)"><tspan x="0" y="0" class="st1 st2">M</tspan><tspan x="8.77" y="0" class="st1 st2">o</tspan><tspan x="15.05" y="0" class="st1 st2">del</tspan></text>
<line class="st0" x1="75.37" y1="13.95" x2="75.37" y2="0.4"/>
<text transform="matrix(1 0 0 1 81.5481 9.882)"><tspan x="0" y="0" class="st1 st2">Marin</tspan><tspan x="26.2" y="0" class="st1 st2 st3">e</tspan><tspan x="35.3" y="0" class="st1 st2">Accuracy</tspan></text>
<line class="st0" x1="169.3" y1="13.95" x2="169.3" y2="0.4"/>
<text transform="matrix(1 0 0 1 175.4768 9.882)"><tspan x="0" y="0" class="st1 st2">Marin</tspan><tspan x="26.2" y="0" class="st1 st2 st3">e</tspan><tspan x="35.3" y="0" class="st1 st2">F1</tspan></text>
<line class="st0" x1="231.53" y1="13.95" x2="231.53" y2="0.4"/>
<line class="st0" x1="312.4" y1="13.95" x2="312.4" y2="0.4"/>
<text transform="matrix(1 0 0 1 237.7102 9.882)"><tspan x="0" y="0" class="st1 st2">Std</tspan><tspan x="15.14" y="0" class="st1 st2 st4">.</tspan><tspan x="22.24" y="0" class="st1 st2">Accuracy</tspan></text>
<line class="st0" x1="361.57" y1="13.95" x2="361.57" y2="0.4"/>
<text transform="matrix(1 0 0 1 318.5794 9.882)"><tspan x="0" y="0" class="st1 st2">Std</tspan><tspan x="15.14" y="0" class="st1 st2 st4">.</tspan><tspan x="22.24" y="0" class="st1 st2">F1</tspan></text>
<line class="st0" x1="0" y1="14.15" x2="361.77" y2="14.15"/>
<line class="st0" x1="0.2" y1="27.9" x2="0.2" y2="14.35"/>
<line class="st0" x1="75.37" y1="27.9" x2="75.37" y2="14.35"/>
<text transform="matrix(1 0 0 1 108.093 23.8298)" class="st1 st2">98.7%</text>
<line class="st0" x1="169.3" y1="27.9" x2="169.3" y2="14.35"/>
<text transform="matrix(1 0 0 1 186.1741 23.8298)" class="st1 st2">98.7%</text>
<line class="st0" x1="231.53" y1="27.9" x2="231.53" y2="14.35"/>
<text transform="matrix(1 0 0 1 255.5891 23.8298)" class="st5 st2">92.3%</text>
<line class="st0" x1="312.4" y1="27.9" x2="312.4" y2="14.35"/>
<text transform="matrix(1 0 0 1 320.6087 23.8298)" class="st5 st2">92.0%</text>
<line class="st0" x1="361.57" y1="27.9" x2="361.57" y2="14.35"/>
<line class="st0" x1="0.2" y1="41.44" x2="0.2" y2="27.9"/>
<line class="st0" x1="75.37" y1="41.44" x2="75.37" y2="27.9"/>
<text transform="matrix(1 0 0 1 108.093 37.3791)" class="st1 st2">98.7%</text>
<line class="st0" x1="169.3" y1="41.44" x2="169.3" y2="27.9"/>
<text transform="matrix(1 0 0 1 186.1741 37.3791)" class="st1 st2">92.6%</text>
<line class="st0" x1="231.53" y1="41.44" x2="231.53" y2="27.9"/>
<text transform="matrix(1 0 0 1 257.7249 37.3791)" class="st1 st2">91.2%</text>
<line class="st0" x1="312.4" y1="41.44" x2="312.4" y2="27.9"/>
<text transform="matrix(1 0 0 1 322.7454 37.3791)" class="st1 st2">91.0%</text>
<line class="st0" x1="361.57" y1="41.44" x2="361.57" y2="27.9"/>
<line class="st0" x1="0.2" y1="54.99" x2="0.2" y2="41.44"/>
<line class="st0" x1="75.37" y1="54.99" x2="75.37" y2="41.44"/>
<text transform="matrix(1 0 0 1 108.093 50.9279)" class="st1 st2">94.8%</text>
<line class="st0" x1="169.3" y1="54.99" x2="169.3" y2="41.44"/>
<text transform="matrix(1 0 0 1 186.1741 50.9279)" class="st1 st2">92.6%</text>
<line class="st0" x1="231.53" y1="54.99" x2="231.53" y2="41.44"/>
<text transform="matrix(1 0 0 1 257.7249 50.9279)" class="st1 st2">88.0%</text>
<line class="st0" x1="312.4" y1="54.99" x2="312.4" y2="41.44"/>
<text transform="matrix(1 0 0 1 322.7454 50.9279)" class="st1 st2">84.6%</text>
<line class="st0" x1="361.57" y1="54.99" x2="361.57" y2="41.44"/>
<line class="st0" x1="0.2" y1="68.54" x2="0.2" y2="54.99"/>
<line class="st0" x1="75.37" y1="68.54" x2="75.37" y2="54.99"/>
<text transform="matrix(1 0 0 1 108.093 64.4782)" class="st1 st2">97.4%</text>
<line class="st0" x1="169.3" y1="68.54" x2="169.3" y2="54.99"/>
<text transform="matrix(1 0 0 1 186.1741 64.4782)" class="st1 st2">94.5%</text>
<line class="st0" x1="231.53" y1="68.54" x2="231.53" y2="54.99"/>
<text transform="matrix(1 0 0 1 257.7249 64.4782)" class="st1 st2">68.0%</text>
<line class="st0" x1="312.4" y1="68.54" x2="312.4" y2="54.99"/>
<text transform="matrix(1 0 0 1 322.7454 64.4782)" class="st1 st2">44.6%</text>
<line class="st0" x1="361.57" y1="68.54" x2="361.57" y2="54.99"/>
<line class="st0" x1="0.2" y1="82.09" x2="0.2" y2="68.54"/>
<line class="st0" x1="75.37" y1="82.09" x2="75.37" y2="68.54"/>
<text transform="matrix(1 0 0 1 108.093 78.0271)" class="st1 st2">98.7%</text>
<line class="st0" x1="169.3" y1="82.09" x2="169.3" y2="68.54"/>
<text transform="matrix(1 0 0 1 186.1741 78.0271)" class="st1 st2">98.7%</text>
<line class="st0" x1="231.53" y1="82.09" x2="231.53" y2="68.54"/>
<text transform="matrix(1 0 0 1 257.7249 78.0271)" class="st1 st2">80.0%</text>
<line class="st0" x1="312.4" y1="82.09" x2="312.4" y2="68.54"/>
<text transform="matrix(1 0 0 1 322.7454 78.0271)" class="st1 st2">78.9%</text>
<line class="st0" x1="361.57" y1="82.09" x2="361.57" y2="68.54"/>
<line class="st0" x1="0.2" y1="95.64" x2="0.2" y2="82.09"/>
<line class="st0" x1="75.37" y1="95.64" x2="75.37" y2="82.09"/>
<text transform="matrix(1 0 0 1 108.093 91.5759)" class="st1 st2">97.4%</text>
<line class="st0" x1="169.3" y1="95.64" x2="169.3" y2="82.09"/>
<text transform="matrix(1 0 0 1 186.1741 91.5759)" class="st1 st2">97.4%</text>
<line class="st0" x1="231.53" y1="95.64" x2="231.53" y2="82.09"/>
<text transform="matrix(1 0 0 1 257.7249 91.5759)" class="st1 st2">58.8%</text>
<line class="st0" x1="312.4" y1="95.64" x2="312.4" y2="82.09"/>
<text transform="matrix(1 0 0 1 322.7454 91.5759)" class="st1 st2">54.2%</text>
<line class="st0" x1="361.57" y1="95.64" x2="361.57" y2="82.09"/>
<line class="st0" x1="0.2" y1="109.19" x2="0.2" y2="95.64"/>
<line class="st0" x1="75.37" y1="109.19" x2="75.37" y2="95.64"/>
<text transform="matrix(1 0 0 1 108.093 105.1252)" class="st1 st2">94.8%</text>
<line class="st0" x1="169.3" y1="109.19" x2="169.3" y2="95.64"/>
<text transform="matrix(1 0 0 1 186.1741 105.1252)" class="st1 st2">94.7%</text>
<line class="st0" x1="231.53" y1="109.19" x2="231.53" y2="95.64"/>
<text transform="matrix(1 0 0 1 257.7249 105.1252)" class="st1 st2">52.9%</text>
<line class="st0" x1="312.4" y1="109.19" x2="312.4" y2="95.64"/>
<text transform="matrix(1 0 0 1 322.7454 105.1252)" class="st1 st2">19.9%</text>
<line class="st0" x1="361.57" y1="109.19" x2="361.57" y2="95.64"/>
<line class="st0" x1="0" y1="109.39" x2="361.77" y2="109.39"/>
<text transform="matrix(1 0 0 1 6.3758 23.8298)"><tspan x="0" y="0" class="st1 st2">T</tspan><tspan x="4.53" y="0" class="st1 st2">ransformer</tspan></text>
<text transform="matrix(1 0 0 1 6.3758 37.3791)" class="st1 st2">CNN</text>
<text transform="matrix(1 0 0 1 6.3758 50.9279)" class="st1 st2">KNN</text>
<text transform="matrix(1 0 0 1 6.3758 64.4782)"><tspan x="0" y="0" class="st1 st2">Rand</tspan><tspan x="23.33" y="0" class="st1 st2 st4">.</tspan><tspan x="30.44" y="0" class="st1 st2">F</tspan><tspan x="34.85" y="0" class="st1 st2">orest</tspan></text>
<text transform="matrix(1 0 0 1 6.3758 78.0271)"><tspan x="0" y="0" class="st1 st2">Nai</tspan><tspan x="14.99" y="0" class="st1 st2">v</tspan><tspan x="19.94" y="0" class="st1 st2 st3">e</tspan><tspan x="29.05" y="0" class="st1 st2">B</tspan><tspan x="34.96" y="0" class="st1 st2">a</tspan><tspan x="39.92" y="0" class="st1 st2">y</tspan><tspan x="44.76" y="0" class="st1 st2">es</tspan></text>
<text transform="matrix(1 0 0 1 6.3758 91.5759)"><tspan x="0" y="0" class="st1 st2">L</tspan><tspan x="5.15" y="0" class="st1 st2">D</tspan><tspan x="12.12" y="0" class="st1 st2">A</tspan></text>
<text transform="matrix(1 0 0 1 6.3758 105.1252)"><tspan x="0" y="0" class="st1 st2">Logisti</tspan><tspan x="30.27" y="0" class="st1 st2 st3">c</tspan><tspan x="38.79" y="0" class="st1 st2">Reg.</tspan></text>
</svg>
