<?xml version="1.0" encoding="utf-8"?>
<!-- Generator: Adobe Illustrator 26.0.3, SVG Export Plug-In . SVG Version: 6.00 Build 0)  -->
<svg version="1.1" id="Layer_1" xmlns="http://www.w3.org/2000/svg" xmlns:xlink="http://www.w3.org/1999/xlink" x="0px" y="0px"
	 viewBox="0 0 503.73 216.44" style="enable-background:new 0 0 503.73 216.44;" xml:space="preserve">
<style type="text/css">
	.st0{fill:none;stroke:#D9D9D9;stroke-width:0.2388;stroke-miterlimit:10;stroke-dasharray:1.7934,1.7934;}
	.st1{fill:none;stroke:#808080;stroke-width:0.1194;stroke-miterlimit:10;}
	.st2{fill:none;stroke:#000000;stroke-width:0.2388;stroke-miterlimit:10;}
	.st3{font-family:'CMR10';}
	.st4{font-size:6.5454px;}
	.st5{font-family:'CMMI10';}
	.st6{font-family:'CMSY10';}
	.st7{font-family:'CMSY8';}
	.st8{font-size:4.782px;}
	.st9{font-family:'CMR8';}
	
		.st10{clip-path:url(#SVGID_00000094590993158036528270000009207526294600398758_);fill:none;stroke:#6A3D9A;stroke-width:0.2388;stroke-miterlimit:10;}
	
		.st11{clip-path:url(#SVGID_00000094590993158036528270000009207526294600398758_);fill:none;stroke:#33A02C;stroke-width:0.2388;stroke-miterlimit:10;}
	.st12{fill:#FFFFFF;}
	.st13{fill:none;stroke:#6A3D9A;stroke-width:0.2388;stroke-miterlimit:10;}
	.st14{fill:none;stroke:#33A02C;stroke-width:0.2388;stroke-miterlimit:10;}
	.st15{font-family:'ArialMT';}
	
		.st16{clip-path:url(#SVGID_00000018946715541384886000000015323428306602038198_);fill:none;stroke:#6A3D9A;stroke-width:0.2388;stroke-miterlimit:10;}
	
		.st17{clip-path:url(#SVGID_00000111187668387972727550000005249972106325779081_);fill:none;stroke:#33A02C;stroke-width:0.2388;stroke-miterlimit:10;}
</style>
<path class="st0" d="M485.72,196.47V3.33 M456.61,196.47V3.33 M427.51,196.47V3.33 M398.4,196.47V3.33 M369.29,196.47V3.33
	 M340.19,196.47V3.33 M311.08,196.47V3.33 M281.97,196.47V3.33"/>
<path class="st0" d="M275.39,3.37h228.22 M275.39,22.37h228.22 M275.39,41.37h228.22 M275.39,60.37h228.22 M275.39,79.37h228.22
	 M275.39,98.37h228.22 M275.39,117.37h228.22 M275.39,136.38h228.22 M275.39,155.38h228.22 M275.39,174.38h228.22 M275.39,193.38
	h228.22"/>
<path class="st1" d="M485.72,3.33v2.55 M456.61,3.33v2.55 M427.51,3.33v2.55 M398.4,3.33v2.55 M369.29,3.33v2.55 M340.19,3.33v2.55
	 M311.08,3.33v2.55 M281.97,3.33v2.55 M485.72,196.47v-2.55 M456.61,196.47v-2.55 M427.51,196.47v-2.55 M398.4,196.47v-2.55
	 M369.29,196.47v-2.55 M340.19,196.47v-2.55 M311.08,196.47v-2.55 M281.97,196.47v-2.55"/>
<path class="st1" d="M503.61,3.37h-2.55 M503.61,22.37h-2.55 M503.61,41.37h-2.55 M503.61,60.37h-2.55 M503.61,79.37h-2.55
	 M503.61,98.37h-2.55 M503.61,117.37h-2.55 M503.61,136.38h-2.55 M503.61,155.38h-2.55 M503.61,174.38h-2.55 M503.61,193.38h-2.55
	 M275.39,3.37h2.55 M275.39,22.37h2.55 M275.39,41.37h2.55 M275.39,60.37h2.55 M275.39,79.37h2.55 M275.39,98.37h2.55
	 M275.39,117.37h2.55 M275.39,136.38h2.55 M275.39,155.38h2.55 M275.39,174.38h2.55 M275.39,193.38h2.55"/>
<rect x="275.39" y="3.33" class="st2" width="228.22" height="193.14"/>
<text transform="matrix(1 0 0 1 277.0634 202.991)" class="st3 st4">500</text>
<text transform="matrix(1 0 0 1 303.6249 202.991)" class="st3 st4">1</text>
<text transform="matrix(1 0 0 1 306.8973 202.991)" class="st5 st4">,</text>
<text transform="matrix(1 0 0 1 308.7157 202.991)" class="st3 st4">000</text>
<text transform="matrix(1 0 0 1 332.7313 202.991)" class="st3 st4">1</text>
<text transform="matrix(1 0 0 1 336.0043 202.991)" class="st5 st4">,</text>
<text transform="matrix(1 0 0 1 337.8226 202.991)" class="st3 st4">500</text>
<text transform="matrix(1 0 0 1 361.8378 202.991)" class="st3 st4">2</text>
<text transform="matrix(1 0 0 1 365.1107 202.991)" class="st5 st4">,</text>
<text transform="matrix(1 0 0 1 366.9291 202.991)" class="st3 st4">000</text>
<text transform="matrix(1 0 0 1 390.9447 202.991)" class="st3 st4">2</text>
<text transform="matrix(1 0 0 1 394.2172 202.991)" class="st5 st4">,</text>
<text transform="matrix(1 0 0 1 396.0355 202.991)" class="st3 st4">500</text>
<text transform="matrix(1 0 0 1 420.0516 202.991)" class="st3 st4">3</text>
<text transform="matrix(1 0 0 1 423.3241 202.991)" class="st5 st4">,</text>
<text transform="matrix(1 0 0 1 425.1425 202.991)" class="st3 st4">000</text>
<text transform="matrix(1 0 0 1 449.1581 202.991)" class="st3 st4">3</text>
<text transform="matrix(1 0 0 1 452.4305 202.991)" class="st5 st4">,</text>
<text transform="matrix(1 0 0 1 454.2489 202.991)" class="st3 st4">500</text>
<text transform="matrix(1 0 0 1 478.2645 202.991)" class="st3 st4">4</text>
<text transform="matrix(1 0 0 1 481.537 202.991)" class="st5 st4">,</text>
<text transform="matrix(1 0 0 1 483.3553 202.991)" class="st3 st4">000</text>
<text transform="matrix(1 0 0 1 249.6586 119.8318)" class="st6 st4">−</text>
<text transform="matrix(1 0 0 1 253.7494 119.8318)" class="st3 st4">5</text>
<text transform="matrix(1 0 0 1 258.4769 119.8318)" class="st6 st4">·</text>
<text transform="matrix(1 0 0 1 260.7494 119.8318)" class="st3 st4">10</text>
<text transform="matrix(1 0 0 1 267.2948 117.4568)" class="st7 st8">−</text>
<text transform="matrix(1 0 0 1 271.2465 117.4568)" class="st9 st8">2</text>
<text transform="matrix(1 0 0 1 259.6317 138.2136)" class="st6 st4">−</text>
<text transform="matrix(1 0 0 1 264.7225 138.2136)" class="st3 st4">0</text>
<text transform="matrix(1 0 0 1 267.9955 138.2136)" class="st5 st4">.</text>
<text transform="matrix(1 0 0 1 269.8138 138.2136)" class="st3 st4">1</text>
<text transform="matrix(1 0 0 1 256.3588 157.2146)" class="st6 st4">−</text>
<text transform="matrix(1 0 0 1 261.4496 157.2146)" class="st3 st4">0</text>
<text transform="matrix(1 0 0 1 264.7225 157.2146)" class="st5 st4">.</text>
<text transform="matrix(1 0 0 1 266.5404 157.2146)" class="st3 st4">15</text>
<text transform="matrix(1 0 0 1 259.6317 176.2156)" class="st6 st4">−</text>
<text transform="matrix(1 0 0 1 264.7225 176.2156)" class="st3 st4">0</text>
<text transform="matrix(1 0 0 1 267.9955 176.2156)" class="st5 st4">.</text>
<text transform="matrix(1 0 0 1 269.8138 176.2156)" class="st3 st4">2</text>
<text transform="matrix(1 0 0 1 256.3588 195.2166)" class="st6 st4">−</text>
<text transform="matrix(1 0 0 1 261.4496 195.2166)" class="st3 st4">0</text>
<text transform="matrix(1 0 0 1 264.7225 195.2166)" class="st5 st4">.</text>
<text transform="matrix(1 0 0 1 266.5404 195.2166)" class="st3 st4">25</text>
<text transform="matrix(1 0 0 1 269.8134 100.4851)" class="st3 st4">0</text>
<text transform="matrix(1 0 0 1 251.7494 82.1038)" class="st3 st4">5</text>
<text transform="matrix(1 0 0 1 256.4769 82.1038)" class="st6 st4">·</text>
<text transform="matrix(1 0 0 1 259.7494 82.1038)" class="st3 st4">10</text>
<text transform="matrix(1 0 0 1 266.2948 79.7283)" class="st7 st8">−</text>
<text transform="matrix(1 0 0 1 270.2465 79.7283)" class="st9 st8">2</text>
<text transform="matrix(1 0 0 1 264.7225 62.4832)" class="st3 st4">0</text>
<text transform="matrix(1 0 0 1 267.9955 62.4832)" class="st5 st4">.</text>
<text transform="matrix(1 0 0 1 269.8134 62.4832)" class="st3 st4">1</text>
<text transform="matrix(1 0 0 1 261.4496 43.4822)" class="st3 st4">0</text>
<text transform="matrix(1 0 0 1 264.722 43.4822)" class="st5 st4">.</text>
<text transform="matrix(1 0 0 1 266.5404 43.4822)" class="st3 st4">15</text>
<text transform="matrix(1 0 0 1 264.7225 24.4817)" class="st3 st4">0</text>
<text transform="matrix(1 0 0 1 267.9955 24.4817)" class="st5 st4">.</text>
<text transform="matrix(1 0 0 1 269.8134 24.4817)" class="st3 st4">2</text>
<g>
	<defs>
		<rect id="SVGID_1_" x="275.39" y="3.33" width="228.22" height="193.14"/>
	</defs>
	<clipPath id="SVGID_00000018950625072058725700000005088834862956057521_">
		<use xlink:href="#SVGID_1_"  style="overflow:visible;"/>
	</clipPath>
	
		<polyline style="clip-path:url(#SVGID_00000018950625072058725700000005088834862956057521_);fill:none;stroke:#6A3D9A;stroke-width:0.2388;stroke-miterlimit:10;" points="
		294.4,127.52 294.63,124.45 294.85,120.31 295.08,112.87 295.3,110.93 295.53,109.73 295.75,109.27 295.98,114.99 296.2,125.19 
		296.43,132.39 296.65,135.38 296.87,132.96 297.1,124.45 297.32,114.99 297.55,104.64 297.77,94.62 298,86.45 298.22,79.68 
		298.45,72.01 298.67,64.72 298.9,61.68 299.12,64.21 299.34,70.4 299.57,77.92 299.79,85.72 300.02,91.6 300.24,94.64 300.47,92.8 
		300.69,90.52 300.92,95.78 301.14,103.33 301.37,107.32 301.59,111.58 301.81,116.4 302.04,115.49 302.26,111.02 302.49,108.67 
		302.71,108.11 302.94,107.58 303.16,106.76 303.39,106.52 303.61,105.65 303.84,104.12 304.06,102.79 304.28,102.39 304.51,101.94 
		304.73,100.64 304.96,99.17 305.18,98.84 305.41,99.21 305.63,99.77 305.86,102.18 306.08,105.27 306.3,105.94 306.53,103.94 
		306.75,103.17 306.98,103.81 307.2,104.73 307.43,105.58 307.65,105.19 307.88,100.84 308.1,92.72 308.33,83.92 308.55,81.81 
		308.78,86.29 309,91.76 309.22,96.54 309.45,99.9 309.67,95.59 309.9,88.96 310.12,89.03 310.35,91.37 310.57,93.31 310.8,96.23 
		311.02,96.84 311.24,93.1 311.47,90.02 311.69,89.99 311.92,89.87 312.14,88.83 312.37,86.68 312.59,84.6 312.82,83.8 
		313.04,84.96 313.27,86.46 313.49,89.01 313.71,92.25 313.94,94.77 314.16,96.26 314.39,96.78 314.61,95.76 314.84,95.03 
		315.06,94.44 315.29,93.08 315.51,92.24 315.74,92.35 315.96,93.34 316.18,94.21 316.41,95.38 316.63,96.58 316.86,98.58 
		317.08,100.72 317.31,101.67 317.53,102.83 317.76,104.32 317.98,104.58 318.21,103.15 318.43,101.05 318.65,98.14 318.88,94.82 
		319.1,91.21 319.33,88.27 319.55,85.97 319.78,87.96 320,97.56 320.23,110.05 320.45,119.91 320.68,128.54 320.9,133.2 
		321.12,129.17 321.35,119.99 321.57,110.68 321.8,102.39 322.02,94.39 322.25,89.06 322.47,87.14 322.7,86.36 322.92,86.5 
		323.15,88.06 323.37,88.86 323.59,88.69 323.82,90.07 324.04,91.6 324.27,92.78 324.49,94.03 324.72,94.64 324.94,95.37 
		325.17,95.9 325.39,93.53 325.62,88.14 325.84,82.74 326.06,79.47 326.29,80.49 326.51,86.53 326.74,96.98 326.96,109.29 
		327.19,119.64 327.41,124.7 327.64,124.87 327.86,123.69 328.08,121.2 328.31,115.53 328.53,110.16 328.76,107.98 328.98,105.54 
		329.21,103.77 329.43,105.62 329.66,107.58 329.88,107.51 330.11,106.44 330.33,103.47 330.56,95.95 330.78,86.64 331,80.81 
		331.23,77.08 331.45,70.41 331.68,58.84 331.9,51.32 332.13,63.28 332.35,87.82 332.58,112.97 332.8,139.19 333.02,159.04 
		333.25,153.71 333.47,133.04 333.7,116.43 333.92,106.21 334.15,100.36 334.37,98.14 334.6,97.34 334.82,95.98 335.05,93.86 
		335.27,91.19 335.49,91.55 335.72,91.29 335.94,85.18 336.17,76.6 336.39,72.77 336.62,71.85 336.84,78.15 337.07,97.97 
		337.29,126.65 337.52,152.37 337.74,168.31 337.96,172.79 338.19,167.31 338.41,155.17 338.64,139.62 338.86,126.85 339.09,119.11 
		339.31,113.71 339.54,109.23 339.76,106.45 339.99,104.88 340.21,104.08 340.43,102.87 340.66,101.04 340.88,99.55 341.11,98.24 
		341.33,96.6 341.56,95.59 341.78,95.37 342.01,95.93 342.23,96.26 342.46,96.66 342.68,96.54 342.9,96.79 343.13,96.09 
		343.35,94.71 343.58,92.29 343.8,90.1 344.03,87.66 344.25,84.95 344.48,81.73 344.7,78.7 344.93,75.67 345.15,72.35 345.37,68.55 
		345.6,65.07 345.82,60.17 346.05,54.4 346.27,49.66 346.5,47.18 346.72,48.61 346.95,55.62 347.17,64.4 347.4,73.92 347.62,83.63 
		347.84,91.19 348.07,95.19 348.29,98.74 348.52,102.01 348.74,104.98 348.97,107.46 349.19,110.51 349.42,114.18 349.64,118.96 
		349.87,125.18 350.09,131.18 350.31,137.76 350.54,144.5 350.76,147.1 350.99,143.17 351.21,135.65 351.44,125.14 351.66,112.57 
		351.89,99.63 352.11,90.29 352.34,85.35 352.56,83.49 352.78,83.65 353.01,86.97 353.23,92.06 353.46,96.98 353.68,101.27 
		353.91,105.97 354.13,112.98 354.36,122.74 354.58,133.41 354.81,144.36 355.03,153.25 355.25,156.84 355.48,155.24 355.7,150.62 
		355.93,144.11 356.15,137.76 356.38,132.58 356.6,127.82 356.83,123.61 357.05,120 357.27,116.9 357.5,114.7 357.72,112.83 
		357.95,111.21 358.17,110.04 358.4,108.77 358.62,107.63 358.85,106.99 359.07,106.61 359.3,105.86 359.52,105.48 359.75,105.29 
		359.97,104.74 360.19,104.03 360.42,103.86 360.64,103.8 360.87,103.47 361.09,103.26 361.32,103.17 361.54,102.89 361.77,102.54 
		361.99,102.2 362.21,101.93 362.44,101.64 362.66,101.36 362.89,101.12 363.11,101.21 363.34,101.5 363.56,101.74 363.79,101.85 
		364.01,102.1 364.24,102.26 364.46,102.15 364.68,101.86 364.91,101.74 365.13,101.48 365.36,101.09 365.58,100.88 365.81,100.97 
		366.03,100.66 366.26,100.57 366.48,100.85 366.71,100.88 366.93,100.83 367.15,101.19 367.38,101.31 367.6,101.21 367.83,101.21 
		368.05,101.21 368.28,101.12 368.5,101.1 368.73,101.04 368.95,100.92 369.18,100.82 369.4,100.92 369.62,101.16 369.85,101.36 
		370.07,101.64 370.3,102.11 370.52,102.32 370.75,102.29 370.97,102.34 371.2,102.49 371.42,102.33 371.65,102.18 371.87,102.13 
		372.09,102 372.32,101.57 372.54,101.27 372.77,100.89 372.99,100.51 373.22,100.23 373.44,100.2 373.67,99.91 373.89,99.68 
		374.12,99.46 374.34,99.23 374.56,98.8 374.79,98.78 375.01,98.75 375.24,98.53 375.46,98.28 375.69,98.35 375.91,98.45 
		376.14,98.84 376.36,99.56 376.59,100.29 376.81,100.89 377.03,101.5 377.26,101.88 377.48,102.24 377.71,102.68 377.93,103.05 
		378.16,103.26 378.38,103.61 378.61,103.79 378.83,103.67 379.05,103.42 379.28,103.19 379.5,102.76 379.73,102.49 379.95,102.43 
		380.18,102.46 380.4,102.36 380.63,102.25 380.85,102.02 381.08,101.81 381.3,101.67 381.53,101.63 381.75,101.62 381.97,101.62 
		382.2,101.49 382.42,101.26 382.65,101.06 382.87,100.9 383.1,100.62 383.32,100.71 383.55,100.92 383.77,101.01 383.99,101.03 
		384.22,101.19 384.44,101.21 384.67,101.36 384.89,101.52 385.12,101.84 385.34,102.02 385.57,101.93 385.79,101.66 386.02,101.64 
		386.24,101.64 386.46,101.74 386.69,101.92 386.91,102.2 387.14,102.14 387.36,101.75 387.59,101.24 387.81,100.79 388.04,100.25 
		388.26,99.8 388.49,99.29 388.71,99.45 388.94,100.07 389.16,100.45 389.38,100.47 389.61,100.51 389.83,100.07 390.06,99.32 
		390.28,98.78 390.51,98.76 390.73,98.98 390.96,99.14 391.18,99.21 391.4,99.35 391.63,99.51 391.85,99.88 392.08,100 
		392.3,100.12 392.53,100.42 392.75,100.52 392.98,100.37 393.2,100.31 393.43,100.38 393.65,100.33 393.87,100.08 394.1,99.7 
		394.32,99.46 394.55,99.19 394.77,98.73 395,98.47 395.22,98.5 395.45,98.44 395.67,97.9 395.9,97.42 396.12,97 396.34,96.26 
		396.57,95.6 396.79,95.54 397.02,95.84 397.24,96.47 397.47,97.31 397.69,98.29 397.92,99.13 398.14,99.63 398.37,99.86 
		398.59,99.79 398.81,99.14 399.04,97.95 399.26,96.17 399.49,93.36 399.71,89.67 399.94,85.86 400.16,83.12 400.39,82.84 
		400.61,85.59 400.84,91.09 401.06,97.75 401.28,103.63 401.51,107.42 401.73,108.85 401.96,108.47 402.18,107.34 402.41,106.35 
		402.63,105.45 402.86,104.32 403.08,102.9 403.31,101.27 403.53,99.15 403.75,97.18 403.98,95.85 404.2,95.07 404.43,94.76 
		404.65,95.07 404.88,95.45 405.1,95.81 405.33,96.14 405.55,96.11 405.78,95.87 406,95.79 406.22,95.7 406.45,96.01 406.67,96.94 
		406.9,98.01 407.12,98.76 407.35,99.59 407.57,99.93 407.8,99.77 408.02,99.44 408.24,99.48 408.47,99.39 408.69,99.12 
		408.92,98.81 409.14,98.28 409.37,97.17 409.59,95.54 409.82,93.68 410.04,91.95 410.27,91.01 410.49,91.76 410.72,93.64 
		410.94,96.05 411.16,98.73 411.39,100.87 411.61,101.35 411.84,100.96 412.06,100.5 412.29,99.75 412.51,98.66 412.74,97.53 
		412.96,96.65 413.18,95.76 413.41,94.63 413.63,93.55 413.86,92.35 414.08,90.87 414.31,89.22 414.53,88.15 414.76,87.34 
		414.98,86.38 415.21,85.35 415.43,84.42 415.65,83.04 415.88,80.91 416.1,77.26 416.33,70.63 416.55,58.43 416.78,43.43 417,35.99 
		417.23,40.4 417.45,49.29 417.68,60.82 417.9,76.14 418.12,83.43 418.35,74.53 418.57,61.23 418.8,54.73 419.02,50.99 
		419.25,50.02 419.47,58.64 419.7,71.83 419.92,80.27 420.15,83.61 420.37,82.96 420.59,76.75 420.82,69.49 421.04,64.29 
		421.27,60.26 421.49,58.26 421.72,60.46 421.94,66.97 422.17,77.31 422.39,92.29 422.62,110.96 422.84,126.84 423.06,131.97 
		423.29,126.12 423.51,116.1 423.74,104.42 423.96,93.87 424.19,90.7 424.41,100.35 424.64,118.07 424.86,137.73 425.09,156.35 
		425.31,172.59 425.53,180.38 425.76,178.44 425.98,171.36 426.21,163.64 426.43,155.85 426.66,148.7 426.88,141.29 427.11,133.97 
		427.33,127.4 427.56,121.71 427.78,116.62 428,112.99 428.23,110.39 428.45,108.7 428.68,107.55 428.9,106.48 429.13,105.53 
		429.35,104.79 429.58,103.61 429.8,102.19 430.02,100.83 430.25,99.4 430.47,98.17 430.7,97 430.92,95.48 431.15,94.6 
		431.37,94.24 431.6,93.81 431.82,93.42 432.05,93.35 432.27,92.74 432.5,92 432.72,91.52 432.94,91.11 433.17,90.49 433.39,90.24 
		433.62,90.02 433.84,89.69 434.07,89.24 434.29,89.08 434.52,88.99 434.74,88.85 434.97,88.72 435.19,89 435.41,89.32 435.64,89.4 
		435.86,89.43 436.09,89.56 436.31,89.26 436.54,88.75 436.76,88.25 436.99,88.07 437.21,87.66 437.43,87.44 437.66,87.43 
		437.88,87.87 438.11,87.86 438.33,87.89 438.56,88.38 438.78,89.15 439.01,89.51 439.23,90.15 439.46,90.95 439.68,91.07 
		439.91,90.68 440.13,90.66 440.35,90.26 440.58,89.72 440.8,89.62 441.03,89.9 441.25,89.24 441.48,89.36 441.7,90.09 
		441.93,90.01 442.15,89.52 442.37,90.1 442.6,90.53 442.82,90.77 443.05,91.08 443.27,91.35 443.5,91.79 443.72,92.64 
		443.95,92.57 444.17,92.93 444.4,93.9 444.62,94.81 444.84,95.03 445.07,95.76 445.29,96.12 445.52,96.18 445.74,95.73 
		445.97,95.28 446.19,94.65 446.42,95.04 446.64,95.84 446.87,96.26 447.09,96.57 447.31,97.67 447.54,97.88 447.76,97.25 
		447.99,97.44 448.21,98.06 448.44,98.13 448.66,98.66 448.89,99.05 449.11,99.36 449.34,99.6 449.56,99.62 449.78,99.15 
		450.01,100.03 450.23,100.51 450.46,100.62 450.68,100.53 450.91,101.01 451.13,100.95 451.36,100.96 451.58,100.63 451.81,101.2 
		452.03,101.86 452.25,102.26 452.48,102.21 452.7,102.67 452.93,103.21 453.15,103.45 453.38,102.58 453.6,102.52 453.83,102.63 
		454.05,102.34 454.28,102.41 454.5,103.46 454.72,103.64 454.95,103.86 455.17,103.84 455.4,103.32 455.62,103.52 455.85,104.61 
		456.07,104.52 456.3,104.56 456.52,105.19 456.75,105.12 456.97,104.31 457.19,104.66 457.42,104.81 457.64,104.63 457.87,104.99 
		458.09,105.86 458.32,105.69 458.54,105.85 458.77,106.27 458.99,106.4 459.21,106.45 459.44,107.24 459.66,107.64 459.89,108.15 
		460.11,107.97 460.34,107.98 460.56,108.9 460.79,109.96 461.01,110.39 461.24,112.28 461.46,114.19 461.69,115.31 461.91,116.02 
		462.13,115.33 462.36,111.53 462.58,110.87 462.81,115.79 463.03,122.44 463.26,127.96 463.48,133.27 463.71,133.09 463.93,125.62 
		464.15,116.41 464.38,110.62 464.6,108.64 464.83,109.37 465.05,111.66 465.28,114.89 465.5,117.53 465.73,118.48 465.95,117.76 
		466.18,115.4 466.4,110.53 466.62,104.1 466.85,100.84 467.07,107.77 467.3,123.5 467.52,140.55 467.75,156.17 467.97,166.03 
		468.2,163.47 468.42,151.91 468.65,139.52 468.87,129.13 469.09,120.98 469.32,114.81 469.54,110.12 469.77,107.31 469.99,105.21 
		470.22,103.16 470.44,101.86 470.67,101.25 470.89,100.43 471.12,99.95 471.34,99.91 471.56,100.26 471.79,100.15 472.01,99.95 
		472.24,99.7 472.46,99.45 472.69,99.45 472.91,99.64 473.14,99.73 473.36,99.63 473.59,99.51 473.81,99.38 474.03,99.31 
		474.26,99.17 474.48,98.94 474.71,98.98 474.93,99.3 475.16,99.37 475.38,99.04 475.61,98.93 475.83,99.35 476.06,99.69 
		476.28,98.94 476.5,98.67 476.73,99.19 476.95,98.95 477.18,97.95 477.4,97.8 477.63,98.05 477.85,97.73 478.08,97.56 478.3,97.74 
		478.53,98.08 478.75,98.38 478.97,98.64 479.2,98.33 479.42,97.96 479.65,98.05 479.87,97.96 480.1,97.51 480.32,97.49 
		480.55,97.73 480.77,97.73 481,97.62 481.22,97.77 481.44,98.06 481.67,98.19 481.89,97.98 482.12,97.98 482.34,98.03 
		482.57,97.86 482.79,97.7 483.02,97.74 483.24,97.59 483.47,97.73 483.69,98.2 483.91,98.61 484.14,98.9 484.36,99.32 
		484.59,99.36 	"/>
	
		<polyline style="clip-path:url(#SVGID_00000018950625072058725700000005088834862956057521_);fill:none;stroke:#33A02C;stroke-width:0.2388;stroke-miterlimit:10;" points="
		294.4,136.03 294.63,126.97 294.85,116.52 295.08,108.89 295.3,109.6 295.53,111.78 295.75,115.7 295.98,124.36 296.2,134.55 
		296.43,140.55 296.65,142.14 296.87,137.58 297.1,126.31 297.32,110.23 297.55,91.93 297.77,75.23 298,62.6 298.22,51.96 
		298.45,43.14 298.67,39.34 298.9,39.7 299.12,42.71 299.34,49.45 299.57,59.21 299.79,70.62 300.02,83.78 300.24,95.89 
		300.47,106.13 300.69,115.46 300.92,122.34 301.14,124.2 301.37,124.1 301.59,123.53 301.81,121.14 302.04,118.47 302.26,116.21 
		302.49,114.4 302.71,113.71 302.94,113.2 303.16,112.28 303.39,112.01 303.61,111.35 303.84,110.2 304.06,110.08 304.28,110.3 
		304.51,108.94 304.73,106.05 304.96,103.04 305.18,100.9 305.41,101.19 305.63,103.31 305.86,106.5 306.08,109.41 306.3,110.35 
		306.53,108.63 306.75,105.8 306.98,104.47 307.2,105.25 307.43,105.06 307.65,103.19 307.88,100.67 308.1,96.58 308.33,90.8 
		308.55,87.38 308.78,86.92 309,86.88 309.22,86.36 309.45,86.73 309.67,87.55 309.9,87.8 310.12,88.65 310.35,89.97 310.57,89.87 
		310.8,87.51 311.02,84.13 311.24,80.81 311.47,79.43 311.69,80.12 311.92,81.3 312.14,82.49 312.37,83.02 312.59,81.97 
		312.82,80.61 313.04,80.73 313.27,81.97 313.49,83.53 313.71,85.58 313.94,87.9 314.16,90.06 314.39,92 314.61,92.68 314.84,91.18 
		315.06,90.27 315.29,90.34 315.51,89.05 315.74,88.58 315.96,90.35 316.18,91.38 316.41,92.7 316.63,95.73 316.86,98.97 
		317.08,102.8 317.31,105.86 317.53,106.55 317.76,106.4 317.98,108.59 318.21,110.57 318.43,111.49 318.65,110.48 318.88,109.48 
		319.1,107.48 319.33,105.26 319.55,105.04 319.78,107.63 320,111.1 320.23,114.58 320.45,117.9 320.68,121.1 320.9,124.15 
		321.12,124.1 321.35,119.23 321.57,111.86 321.8,102.38 322.02,92.71 322.25,86.74 322.47,85.63 322.7,87.38 322.92,89.85 
		323.15,91.43 323.37,92.2 323.59,92.36 323.82,91.64 324.04,91.6 324.27,92.22 324.49,91.33 324.72,87.42 324.94,79.33 
		325.17,69.73 325.39,67.43 325.62,72.91 325.84,81.39 326.06,94.1 326.29,109.27 326.51,118.39 326.74,121.74 326.96,124.61 
		327.19,126.92 327.41,127.08 327.64,125.32 327.86,121.55 328.08,116.93 328.31,111.97 328.53,107.71 328.76,105.67 328.98,104.84 
		329.21,104.64 329.43,105.89 329.66,107.3 329.88,107.28 330.11,107.15 330.33,106.78 330.56,104.93 330.78,101.31 331,95.63 
		331.23,89.89 331.45,86.19 331.68,84.81 331.9,86.7 332.13,92.17 332.35,98.8 332.58,104.42 332.8,107.67 333.02,107.52 
		333.25,104.46 333.47,99.78 333.7,95.05 333.92,92.33 334.15,92.78 334.37,95.42 334.6,97.21 334.82,97.76 335.05,98.27 
		335.27,98.78 335.49,99.07 335.72,100.74 335.94,102.51 336.17,101.47 336.39,98.48 336.62,94.92 336.84,91.27 337.07,92.08 
		337.29,97.05 337.52,106.05 337.74,122.96 337.96,137.17 338.19,142.5 338.41,143.91 338.64,141.34 338.86,130.68 339.09,122.43 
		339.31,118.61 339.54,116.4 339.76,113.98 339.99,111.61 340.21,109.92 340.43,108.09 340.66,105.57 340.88,103.62 341.11,101.79 
		341.33,99.62 341.56,98.33 341.78,97.44 342.01,97.19 342.23,97.12 342.46,97.18 342.68,96.24 342.9,95.42 343.13,93.87 
		343.35,91.73 343.58,88.69 343.8,86.16 344.03,83.44 344.25,80.36 344.48,76.5 344.7,72.82 344.93,68.57 345.15,64.74 345.37,60.9 
		345.6,57.49 345.82,53.27 346.05,49.47 346.27,45.82 346.5,44.62 346.72,47.36 346.95,54.14 347.17,62.97 347.4,73.89 
		347.62,83.35 347.84,90 348.07,94.44 348.29,98.02 348.52,100.32 348.74,102.86 348.97,106.26 349.19,110.56 349.42,114.64 
		349.64,119.46 349.87,127.04 350.09,135.03 350.31,143.32 350.54,153.25 350.76,160.08 350.99,158.14 351.21,150.26 351.44,137.46 
		351.66,120.26 351.89,101.67 352.11,87.95 352.34,79.32 352.56,75.12 352.78,74.13 353.01,78 353.23,83.86 353.46,89.81 
		353.68,95.91 353.91,102.88 354.13,111.02 354.36,123.02 354.58,138 354.81,152.77 355.03,164.13 355.25,168.81 355.48,166.55 
		355.7,159.24 355.93,149.47 356.15,140.19 356.38,133.07 356.6,127.24 356.83,122.49 357.05,118.93 357.27,116.52 357.5,115.09 
		357.72,114.12 357.95,113.59 358.17,113.14 358.4,112.13 358.62,111.07 358.85,109.95 359.07,108.83 359.3,107.86 359.52,107.02 
		359.75,106.35 359.97,105.81 360.19,105.03 360.42,104.27 360.64,103.82 360.87,103.37 361.09,102.89 361.32,102.67 361.54,102.31 
		361.77,101.79 361.99,101.5 362.21,101.26 362.44,100.73 362.66,100.33 362.89,100.16 363.11,100.06 363.34,100.18 363.56,100.52 
		363.79,100.78 364.01,101.02 364.24,101.08 364.46,100.73 364.68,100.2 364.91,99.83 365.13,99.57 365.36,99.57 365.58,99.83 
		365.81,100.24 366.03,100.58 366.26,100.98 366.48,101.28 366.71,101.56 366.93,101.65 367.15,101.76 367.38,101.82 367.6,101.79 
		367.83,101.56 368.05,101.46 368.28,101.38 368.5,101.26 368.73,100.94 368.95,100.62 369.18,100.46 369.4,100.41 369.62,100.35 
		369.85,100.68 370.07,101.1 370.3,101.4 370.52,101.55 370.75,101.53 370.97,101.24 371.2,101.18 371.42,101.15 371.65,101.05 
		371.87,101.14 372.09,101.4 372.32,101.27 372.54,101.05 372.77,100.73 372.99,100.46 373.22,100.14 373.44,99.91 373.67,99.63 
		373.89,99.51 374.12,99.13 374.34,98.77 374.56,98.36 374.79,97.93 375.01,97.57 375.24,97.6 375.46,97.53 375.69,97.52 
		375.91,97.79 376.14,98.36 376.36,98.63 376.59,99.07 376.81,99.88 377.03,100.61 377.26,101.12 377.48,102.02 377.71,102.92 
		377.93,103.4 378.16,103.76 378.38,104.16 378.61,104.13 378.83,103.92 379.05,103.64 379.28,103.4 379.5,103.01 379.73,102.63 
		379.95,102.17 380.18,102.06 380.4,101.89 380.63,101.62 380.85,101.54 381.08,101.71 381.3,101.6 381.53,101.58 381.75,101.69 
		381.97,101.7 382.2,101.49 382.42,101.49 382.65,101.4 382.87,101.22 383.1,100.98 383.32,100.9 383.55,100.69 383.77,100.66 
		383.99,100.51 384.22,100.43 384.44,100.48 384.67,100.72 384.89,100.81 385.12,101.11 385.34,101.41 385.57,101.47 385.79,101.49 
		386.02,101.58 386.24,101.31 386.46,101.04 386.69,100.94 386.91,100.83 387.14,100.45 387.36,100.31 387.59,100.31 387.81,100.17 
		388.04,99.85 388.26,99.78 388.49,99.53 388.71,99.32 388.94,99.34 389.16,99.45 389.38,99.52 389.61,99.79 389.83,99.85 
		390.06,99.85 390.28,99.79 390.51,99.74 390.73,99.67 390.96,99.66 391.18,99.44 391.4,99.33 391.63,99.2 391.85,99.27 
		392.08,99.45 392.3,99.55 392.53,99.64 392.75,99.93 392.98,99.95 393.2,99.7 393.43,99.49 393.65,99.3 393.87,98.85 394.1,98.52 
		394.32,98.29 394.55,98.13 394.77,97.95 395,97.77 395.22,97.61 395.45,97.42 395.67,96.99 395.9,96.36 396.12,95.56 396.34,94.64 
		396.57,93.81 396.79,93.27 397.02,93.06 397.24,93.44 397.47,94.46 397.69,95.81 397.92,96.97 398.14,97.74 398.37,98.23 
		398.59,98.11 398.81,97.38 399.04,96.37 399.26,95.12 399.49,92.57 399.71,88.45 399.94,84.19 400.16,81.46 400.39,81.28 
		400.61,84.48 400.84,90.92 401.06,98.81 401.28,105.66 401.51,110.13 401.73,112.17 401.96,112.17 402.18,110.68 402.41,108.66 
		402.63,106.59 402.86,104.44 403.08,102.36 403.31,100.27 403.53,98.2 403.75,96.49 403.98,95.08 404.2,94.02 404.43,93.56 
		404.65,93.55 404.88,93.49 405.1,93.56 405.33,93.88 405.55,94.24 405.78,94.54 406,95.17 406.22,95.78 406.45,96.42 406.67,97.3 
		406.9,98.47 407.12,99.5 407.35,100.37 407.57,100.84 407.8,100.84 408.02,100.45 408.24,100.01 408.47,99.64 408.69,99.2 
		408.92,98.44 409.14,97.76 409.37,97.05 409.59,96.15 409.82,95.25 410.04,94.82 410.27,94.3 410.49,93.86 410.72,93.77 
		410.94,94.22 411.16,94.97 411.39,95.91 411.61,96.66 411.84,97.45 412.06,97.97 412.29,97.89 412.51,97.55 412.74,96.93 
		412.96,96.01 413.18,94.99 413.41,94.01 413.63,93.09 413.86,92.34 414.08,91.47 414.31,90.67 414.53,90.07 414.76,89.48 
		414.98,89.18 415.21,88.88 415.43,88.35 415.65,87.73 415.88,87.02 416.1,85.78 416.33,83.96 416.55,80.93 416.78,76.1 417,67.74 
		417.23,53.18 417.45,33.47 417.68,19.42 417.9,23.81 418.12,43.72 418.35,68.19 418.57,92.25 418.8,107.56 419.02,104.44 
		419.25,88.39 419.47,73.62 419.7,65.65 419.92,62.76 420.15,61.56 420.37,61.88 420.59,63.78 420.82,65.27 421.04,66.12 
		421.27,66.8 421.49,64.69 421.72,59.98 421.94,58.59 422.17,67.04 422.39,83.67 422.62,106.63 422.84,131.66 423.06,151.55 
		423.29,158.12 423.51,151.37 423.74,132.94 423.96,108.95 424.19,89.61 424.41,85.33 424.64,96.58 424.86,117.31 425.09,140.74 
		425.31,159.06 425.53,164.87 425.76,159.88 425.98,152.25 426.21,146.6 426.43,142.18 426.66,137.56 426.88,132.3 427.11,126.88 
		427.33,121.31 427.56,116.54 427.78,112.66 428,110.04 428.23,108.36 428.45,107.34 428.68,106.34 428.9,105.46 429.13,104.8 
		429.35,104.05 429.58,102.82 429.8,101.58 430.02,100.2 430.25,98.79 430.47,97.49 430.7,96.1 430.92,94.62 431.15,93.67 
		431.37,92.93 431.6,92.33 431.82,92.17 432.05,92.13 432.27,91.66 432.5,91.19 432.72,90.8 432.94,90.27 433.17,89.45 
		433.39,88.99 433.62,88.4 433.84,87.7 434.07,87.49 434.29,88 434.52,88.13 434.74,88.53 434.97,88.7 435.19,88.13 435.41,87.52 
		435.64,87.34 435.86,86.68 436.09,86.34 436.31,86.69 436.54,86.7 436.76,86.12 436.99,85.96 437.21,85.98 437.43,85.9 
		437.66,85.96 437.88,86.52 438.11,86.7 438.33,86.67 438.56,86.81 438.78,87.29 439.01,87.07 439.23,86.98 439.46,87.18 
		439.68,87.2 439.91,86.79 440.13,87.06 440.35,87.56 440.58,88.08 440.8,88.19 441.03,88.6 441.25,88.91 441.48,89.26 441.7,88.77 
		441.93,88.14 442.15,88.21 442.37,88.74 442.6,88.26 442.82,89.03 443.05,90.73 443.27,91.63 443.5,91.88 443.72,92.8 
		443.95,92.42 444.17,92.04 444.4,92.77 444.62,93.67 444.84,93.73 445.07,94.83 445.29,95.26 445.52,94.71 445.74,93.93 
		445.97,94.12 446.19,94.09 446.42,95.26 446.64,95.98 446.87,96.44 447.09,97.01 447.31,97.39 447.54,96.71 447.76,96.7 
		447.99,97.07 448.21,97.67 448.44,98.47 448.66,99.33 448.89,99.07 449.11,99.16 449.34,99.1 449.56,99.08 449.78,99.03 
		450.01,100.15 450.23,100.9 450.46,101.25 450.68,101.21 450.91,101.52 451.13,101.03 451.36,100.97 451.58,101.02 451.81,101.62 
		452.03,102.54 452.25,103.57 452.48,103.48 452.7,103.98 452.93,103.87 453.15,103.4 453.38,102.92 453.6,103.52 453.83,103.88 
		454.05,104.36 454.28,104.16 454.5,105.25 454.72,105.67 454.95,105.02 455.17,104.67 455.4,105.61 455.62,104.76 455.85,104.58 
		456.07,105.81 456.3,106.37 456.52,105.63 456.75,105.68 456.97,105.49 457.19,105.12 457.42,105.14 457.64,105.78 457.87,106.1 
		458.09,106.91 458.32,107.39 458.54,108.15 458.77,109.15 458.99,110.04 459.21,109.9 459.44,110.1 459.66,110.31 459.89,110.28 
		460.11,110.21 460.34,110.81 460.56,111.61 460.79,112.57 461.01,113.61 461.24,115.46 461.46,117.92 461.69,120.53 461.91,121.99 
		462.13,121.76 462.36,119.86 462.58,119.84 462.81,122.83 463.03,127.75 463.26,131.35 463.48,133.81 463.71,131.98 463.93,125 
		464.15,116.42 464.38,111.14 464.6,109.15 464.83,110.03 465.05,112.46 465.28,115.89 465.5,119.34 465.73,121.77 465.95,122.3 
		466.18,121.53 466.4,118.77 466.62,114.76 466.85,112.96 467.07,117.7 467.3,127.6 467.52,137.38 467.75,145.41 467.97,149.46 
		468.2,145.36 468.42,136.23 468.65,127.52 468.87,120.33 469.09,114.53 469.32,110.53 469.54,107.18 469.77,105.02 469.99,103.54 
		470.22,102.37 470.44,101.4 470.67,100.9 470.89,100.27 471.12,99.97 471.34,99.98 471.56,100.24 471.79,100.38 472.01,100.56 
		472.24,100.74 472.46,100.72 472.69,100.7 472.91,100.76 473.14,100.57 473.36,100.2 473.59,99.81 473.81,99.56 474.03,99.27 
		474.26,99.11 474.48,98.81 474.71,98.69 474.93,98.93 475.16,99.16 475.38,99.13 475.61,99.28 475.83,99.57 476.06,99.56 
		476.28,99.18 476.5,98.83 476.73,98.81 476.95,98.74 477.18,98.31 477.4,97.84 477.63,97.92 477.85,97.81 478.08,97.39 
		478.3,97.36 478.53,97.65 478.75,97.8 478.97,97.98 479.2,97.83 479.42,97.59 479.65,97.76 479.87,97.74 480.1,97.47 480.32,97.75 
		480.55,97.92 480.77,97.61 481,97.43 481.22,97.58 481.44,97.63 481.67,97.66 481.89,97.54 482.12,97.42 482.34,97.4 482.57,97.35 
		482.79,97.2 483.02,97.52 483.24,97.85 483.47,98.03 483.69,98.42 483.91,98.79 484.14,98.86 484.36,98.99 484.59,99.25 	"/>
</g>
<text transform="matrix(1 0 0 1 261.4476 5.4783)" class="st3 st4">0</text>
<text transform="matrix(1 0 0 1 264.7206 5.4783)" class="st5 st4">.</text>
<text transform="matrix(1 0 0 1 266.5389 5.4783)" class="st3 st4">25</text>
<text transform="matrix(1 0 0 1 359.5443 214.3084)"><tspan x="0" y="0" class="st3 st4">W</tspan><tspan x="5" y="0" class="st3 st4">a</tspan><tspan x="7.97" y="0" class="st3 st4">v</tspan><tspan x="10.94" y="0" class="st3 st4">e</tspan><tspan x="14.22" y="0" class="st3 st4">n</tspan><tspan x="17.68" y="0" class="st3 st4">u</tspan><tspan x="21.29" y="0" class="st3 st4">m</tspan><tspan x="26.57" y="0" class="st3 st4">b</tspan><tspan x="30.48" y="0" class="st3 st4">er</tspan></text>
<text transform="matrix(1 0 0 1 401.5624 214.3084)" class="st3 st4">cm</text>
<text transform="matrix(1 0 0 1 409.9257 211.9334)" class="st7 st8">−</text>
<text transform="matrix(1 0 0 1 413.8778 211.9334)" class="st9 st8">1</text>
<rect x="473.59" y="7.31" class="st12" width="25.33" height="18.08"/>
<rect x="473.59" y="7.31" class="st2" width="25.33" height="18.08"/>
<polyline class="st13" points="475.5,12.43 480.6,12.43 485.71,12.43 "/>
<text transform="matrix(1 0 0 1 487.0223 14.1765)" class="st3 st4">PE</text>
<polyline class="st14" points="475.5,20.28 480.6,20.28 485.71,20.28 "/>
<text transform="matrix(1 0 0 1 487.0223 22.0222)" class="st3 st4">PP</text>
<path class="st0" d="M229.98,196.47V3.33 M201.04,196.47V3.33 M172.11,196.47V3.33 M143.17,196.47V3.33 M114.23,196.47V3.33
	 M85.3,196.47V3.33 M56.36,196.47V3.33 M27.43,196.47V3.33"/>
<path class="st0" d="M20.77,9.93h228.22 M20.77,24.89h228.22 M20.77,39.84h228.22 M20.77,54.8h228.22 M20.77,69.76h228.22
	 M20.77,84.72h228.22 M20.77,99.68h228.22 M20.77,114.64h228.22 M20.77,129.6h228.22 M20.77,144.56h228.22 M20.77,159.52h228.22
	 M20.77,174.48h228.22 M20.77,189.44h228.22"/>
<path class="st1" d="M229.98,3.33v2.55 M201.04,3.33v2.55 M172.11,3.33v2.55 M143.17,3.33v2.55 M114.23,3.33v2.55 M85.3,3.33v2.55
	 M56.36,3.33v2.55 M27.43,3.33v2.55 M229.98,196.47v-2.55 M201.04,196.47v-2.55 M172.11,196.47v-2.55 M143.17,196.47v-2.55
	 M114.23,196.47v-2.55 M85.3,196.47v-2.55 M56.36,196.47v-2.55 M27.43,196.47v-2.55"/>
<path class="st1" d="M248.99,9.93h-2.55 M248.99,24.89h-2.55 M248.99,39.84h-2.55 M248.99,54.8h-2.55 M248.99,69.76h-2.55
	 M248.99,84.72h-2.55 M248.99,99.68h-2.55 M248.99,114.64h-2.55 M248.99,129.6h-2.55 M248.99,144.56h-2.55 M248.99,159.52h-2.55
	 M248.99,174.48h-2.55 M248.99,189.44h-2.55 M20.77,9.93h2.55 M20.77,24.89h2.55 M20.77,39.84h2.55 M20.77,54.8h2.55 M20.77,69.76
	h2.55 M20.77,84.72h2.55 M20.77,99.68h2.55 M20.77,114.64h2.55 M20.77,129.6h2.55 M20.77,144.56h2.55 M20.77,159.52h2.55
	 M20.77,174.48h2.55 M20.77,189.44h2.55"/>
<rect x="20.77" y="3.33" class="st2" width="228.22" height="193.14"/>
<text transform="matrix(1 0 0 1 22.5156 202.9904)" class="st15 st4">500</text>
<text transform="matrix(1 0 0 1 48.9052 202.9904)" class="st15 st4">1</text>
<text transform="matrix(1 0 0 1 52.1782 202.9904)" class="st15 st4">,</text>
<text transform="matrix(1 0 0 1 53.9965 202.9904)" class="st15 st4">000</text>
<text transform="matrix(1 0 0 1 77.8417 202.9904)" class="st15 st4">1</text>
<text transform="matrix(1 0 0 1 81.1142 202.9904)" class="st15 st4">,</text>
<text transform="matrix(1 0 0 1 82.9325 202.9904)" class="st15 st4">500</text>
<text transform="matrix(1 0 0 1 106.7768 202.9904)" class="st15 st4">2</text>
<text transform="matrix(1 0 0 1 110.0492 202.9904)" class="st15 st4">,</text>
<text transform="matrix(1 0 0 1 111.8676 202.9904)" class="st15 st4">000</text>
<text transform="matrix(1 0 0 1 135.7123 202.9904)" class="st15 st4">2</text>
<text transform="matrix(1 0 0 1 138.9848 202.9904)" class="st15 st4">,</text>
<text transform="matrix(1 0 0 1 140.8032 202.9904)" class="st15 st4">500</text>
<text transform="matrix(1 0 0 1 164.6474 202.9904)" class="st15 st4">3</text>
<text transform="matrix(1 0 0 1 167.9198 202.9904)" class="st15 st4">,</text>
<text transform="matrix(1 0 0 1 169.7382 202.9904)" class="st15 st4">000</text>
<text transform="matrix(1 0 0 1 193.5829 202.9904)" class="st15 st4">3</text>
<text transform="matrix(1 0 0 1 196.8554 202.9904)" class="st15 st4">,</text>
<text transform="matrix(1 0 0 1 198.6738 202.9904)" class="st15 st4">500</text>
<text transform="matrix(1 0 0 1 222.5175 202.9904)" class="st15 st4">4</text>
<text transform="matrix(1 0 0 1 225.7909 202.9904)" class="st15 st4">,</text>
<text transform="matrix(1 0 0 1 227.6083 202.9904)" class="st15 st4">000</text>
<text transform="matrix(1 0 0 1 15.1913 191.5451)" class="st15 st4">1</text>
<text transform="matrix(1 0 0 1 10.1005 176.5856)" class="st15 st4">1</text>
<text transform="matrix(1 0 0 1 13.373 176.5856)" class="st15 st4">.</text>
<text transform="matrix(1 0 0 1 15.1913 176.5856)" class="st15 st4">1</text>
<text transform="matrix(1 0 0 1 10.1005 161.6267)" class="st15 st4">1</text>
<text transform="matrix(1 0 0 1 13.373 161.6267)" class="st15 st4">.</text>
<text transform="matrix(1 0 0 1 15.1913 161.6267)" class="st15 st4">2</text>
<text transform="matrix(1 0 0 1 10.1005 146.6672)" class="st15 st4">1</text>
<text transform="matrix(1 0 0 1 13.373 146.6672)" class="st15 st4">.</text>
<text transform="matrix(1 0 0 1 15.1913 146.6672)" class="st15 st4">3</text>
<text transform="matrix(1 0 0 1 10.1005 131.7082)" class="st15 st4">1</text>
<text transform="matrix(1 0 0 1 13.373 131.7082)" class="st15 st4">.</text>
<text transform="matrix(1 0 0 1 15.1913 131.7082)" class="st15 st4">4</text>
<text transform="matrix(1 0 0 1 10.1005 116.7487)" class="st15 st4">1</text>
<text transform="matrix(1 0 0 1 13.373 116.7487)" class="st15 st4">.</text>
<text transform="matrix(1 0 0 1 15.1913 116.7487)" class="st15 st4">5</text>
<text transform="matrix(1 0 0 1 10.1005 101.7897)" class="st15 st4">1</text>
<text transform="matrix(1 0 0 1 13.373 101.7897)" class="st15 st4">.</text>
<text transform="matrix(1 0 0 1 15.1913 101.7897)" class="st15 st4">6</text>
<text transform="matrix(1 0 0 1 10.1005 86.8303)" class="st15 st4">1</text>
<text transform="matrix(1 0 0 1 13.373 86.8303)" class="st15 st4">.</text>
<text transform="matrix(1 0 0 1 15.1913 86.8303)" class="st15 st4">7</text>
<text transform="matrix(1 0 0 1 10.1005 71.8713)" class="st15 st4">1</text>
<text transform="matrix(1 0 0 1 13.373 71.8713)" class="st15 st4">.</text>
<text transform="matrix(1 0 0 1 15.1913 71.8713)" class="st15 st4">8</text>
<text transform="matrix(1 0 0 1 10.1005 56.9117)" class="st15 st4">1</text>
<text transform="matrix(1 0 0 1 13.373 56.9117)" class="st15 st4">.</text>
<text transform="matrix(1 0 0 1 15.1913 56.9117)" class="st15 st4">9</text>
<text transform="matrix(1 0 0 1 15.1913 41.9528)" class="st15 st4">2</text>
<text transform="matrix(1 0 0 1 10.1005 26.9933)" class="st15 st4">2</text>
<text transform="matrix(1 0 0 1 13.373 26.9933)" class="st15 st4">.</text>
<text transform="matrix(1 0 0 1 15.1913 26.9933)" class="st15 st4">1</text>
<g>
	<g>
		<defs>
			<rect id="SVGID_00000085973090874360808310000002445805467671542936_" x="20.77" y="3.33" width="228.22" height="193.14"/>
		</defs>
		<clipPath id="SVGID_00000078044915158464528290000001418219205246518959_">
			<use xlink:href="#SVGID_00000085973090874360808310000002445805467671542936_"  style="overflow:visible;"/>
		</clipPath>
		
			<polyline style="clip-path:url(#SVGID_00000078044915158464528290000001418219205246518959_);fill:none;stroke:#6A3D9A;stroke-width:0.2388;stroke-miterlimit:10;" points="
			39.78,29.16 40.01,34.05 40.23,38.48 40.45,41.89 40.68,42.94 40.9,43.98 41.12,45.31 41.35,45.62 41.57,46.03 41.79,47.36 
			42.02,49.26 42.24,52.13 42.46,55.85 42.69,60.27 42.91,63.96 43.13,66.48 43.36,67.57 43.58,66.85 43.8,64.94 44.03,61.42 
			44.25,57.37 44.47,53.48 44.7,48.58 44.92,43.2 45.14,38.18 45.37,34.28 45.59,31.57 45.81,29.33 46.04,27.79 46.26,27.25 
			46.48,28.53 46.7,30.59 46.93,32.38 47.15,34.51 47.37,36.69 47.6,38.7 47.82,40.72 48.04,42.28 48.27,43.48 48.49,44.6 
			48.71,45.72 48.94,47.03 49.16,48.32 49.38,49.31 49.61,50.07 49.83,51.09 50.05,52.13 50.28,52.98 50.5,53.92 50.72,54.77 
			50.95,55.25 51.17,55.16 51.39,54.82 51.62,54.92 51.84,55.88 52.06,57.19 52.29,58.36 52.51,59.16 52.73,59.63 52.95,59.92 
			53.18,60.11 53.4,60.76 53.62,61.87 53.85,62.27 54.07,61.81 54.29,61.02 54.52,60.05 54.74,58.89 54.96,57.94 55.19,57.3 
			55.41,56.5 55.63,55.32 55.86,54.3 56.08,53.68 56.3,53.14 56.53,52.67 56.75,52.01 56.97,50.96 57.2,49.4 57.42,47.54 
			57.64,45.76 57.87,44.56 58.09,43.77 58.31,42.68 58.54,41.28 58.76,39.71 58.98,38.1 59.21,36.78 59.43,35.73 59.65,34.83 
			59.87,33.87 60.1,33.06 60.32,32.66 60.54,32.46 60.77,32.32 60.99,31.63 61.21,30.23 61.44,29.47 61.66,29.3 61.88,28.65 
			62.11,27.77 62.33,27.07 62.55,26.72 62.78,27.07 63,27.61 63.22,28.01 63.45,28.82 63.67,29.66 63.89,30.28 64.12,30.77 
			64.34,32.03 64.56,33.62 64.79,34.83 65.01,35.05 65.23,35.14 65.46,35.61 65.68,36.33 65.9,37.45 66.12,38.7 66.35,40.15 
			66.57,41.99 66.79,44.02 67.02,46.4 67.24,48.84 67.46,50.28 67.69,50.2 67.91,49.32 68.13,47.97 68.36,46.61 68.58,45.7 
			68.8,45.18 69.03,45 69.25,44.62 69.47,43.88 69.7,43.27 69.92,42.82 70.14,42.35 70.37,41.96 70.59,41.45 70.81,40.5 
			71.04,38.51 71.26,34.85 71.48,30.68 71.7,29.27 71.93,30.47 72.15,31.82 72.37,33.17 72.6,34.97 72.82,37.15 73.04,39.67 
			73.27,42.15 73.49,44.4 73.71,46.27 73.94,47.76 74.16,48.79 74.38,49.46 74.61,49.76 74.83,49.94 75.05,50.63 75.28,51.34 
			75.5,51.92 75.72,52.72 75.95,53.46 76.17,54.14 76.39,54.8 76.62,55.23 76.84,55.3 77.06,54.61 77.29,53.05 77.51,51.45 
			77.73,50.44 77.96,49.96 78.18,50.02 78.4,50.61 78.62,51.62 78.85,52.82 79.07,53.62 79.29,53.62 79.52,53.01 79.74,52.18 
			79.96,51.51 80.19,51.23 80.41,51.42 80.63,51.85 80.86,51.72 81.08,51.27 81.3,51.19 81.53,51.58 81.75,52.12 81.97,52.65 
			82.2,52.9 82.42,52.41 82.64,51.62 82.87,50.76 83.09,49.85 83.31,50.42 83.54,51.89 83.76,54.64 83.98,60.44 84.21,65.12 
			84.43,67.79 84.65,69.82 84.87,71.55 85.1,73.16 85.32,74.59 85.54,75.76 85.77,76.92 85.99,77.7 86.21,78.37 86.44,79.14 
			86.66,79.59 86.88,79.75 87.11,79.76 87.33,79.71 87.55,79.63 87.78,79.57 88,79.38 88.22,79.3 88.45,79.22 88.67,79.16 
			88.89,78.73 89.12,78.22 89.34,77.53 89.56,76.61 89.79,75.34 90.01,73.93 90.23,72.34 90.46,70.44 90.68,68 90.9,65.28 
			91.13,62.19 91.35,59.1 91.57,55.68 91.79,51.9 92.02,47.53 92.24,42.94 92.46,38.41 92.69,34.52 92.91,31.82 93.13,30.11 
			93.36,29.01 93.58,28.78 93.8,28.61 94.03,28.52 94.25,28.57 94.47,28.87 94.7,29.54 94.92,30.38 95.14,31.63 95.37,33.36 
			95.59,35.27 95.81,37.84 96.04,41.66 96.26,46.06 96.48,51.06 96.71,56.87 96.93,62.13 97.15,65.19 97.38,66.48 97.6,66.44 
			97.82,65.49 98.04,63.43 98.27,61.09 98.49,58.98 98.71,57.29 98.94,55.94 99.16,55.41 99.38,55.37 99.61,55.61 99.83,56.32 
			100.05,57.72 100.28,60.39 100.5,65.07 100.72,71.21 100.95,77.73 101.17,83.6 101.39,88.11 101.62,91.91 101.84,95.17 
			102.06,97.85 102.29,100.06 102.51,101.77 102.73,103.27 102.96,104.66 103.18,105.94 103.4,107.21 103.63,108.35 103.85,109.47 
			104.07,110.65 104.3,111.75 104.52,112.62 104.74,113.35 104.96,114.03 105.19,114.77 105.41,115.48 105.63,116.02 105.86,116.49 
			106.08,116.96 106.3,117.39 106.53,117.8 106.75,118.17 106.97,118.45 107.2,118.74 107.42,119.08 107.64,119.35 107.87,119.51 
			108.09,119.68 108.31,119.87 108.54,120.01 108.76,120.12 108.98,120.22 109.21,120.35 109.43,120.58 109.65,120.85 
			109.88,121.07 110.1,121.26 110.32,121.41 110.55,121.51 110.77,121.57 110.99,121.64 111.22,121.73 111.44,121.88 111.66,122.08 
			111.88,122.3 112.11,122.51 112.33,122.76 112.55,123.03 112.78,123.34 113,123.59 113.22,123.85 113.45,124.12 113.67,124.37 
			113.89,124.59 114.12,124.8 114.34,125.03 114.56,125.25 114.79,125.39 115.01,125.48 115.23,125.62 115.46,125.83 115.68,126.03 
			115.9,126.29 116.13,126.55 116.35,126.81 116.57,127.08 116.8,127.28 117.02,127.42 117.24,127.66 117.47,127.91 117.69,128.13 
			117.91,128.36 118.13,128.61 118.36,128.8 118.58,128.96 118.8,129.06 119.03,129.18 119.25,129.31 119.47,129.4 119.7,129.46 
			119.92,129.51 120.14,129.48 120.37,129.47 120.59,129.4 120.81,129.28 121.04,129.19 121.26,129.18 121.48,129.13 121.71,129.06 
			121.93,129.05 122.15,129.19 122.38,129.28 122.6,129.41 122.82,129.65 123.05,129.93 123.27,130.26 123.49,130.71 123.71,131.2 
			123.94,131.63 124.16,132.05 124.38,132.54 124.61,132.98 124.83,133.38 125.05,133.7 125.28,134.03 125.5,134.37 125.72,134.65 
			125.95,134.88 126.17,135.15 126.39,135.42 126.62,135.64 126.84,135.9 127.06,136.19 127.29,136.43 127.51,136.68 127.73,136.95 
			127.96,137.21 128.18,137.42 128.4,137.65 128.63,137.87 128.85,138.07 129.07,138.23 129.3,138.41 129.52,138.56 129.74,138.77 
			129.97,138.92 130.19,139.05 130.41,139.24 130.63,139.49 130.86,139.73 131.08,139.99 131.3,140.24 131.53,140.46 131.75,140.72 
			131.97,140.99 132.2,141.15 132.42,141.29 132.64,141.47 132.87,141.68 133.09,141.81 133.31,141.92 133.54,142.05 133.76,142.18 
			133.98,142.26 134.21,142.36 134.43,142.37 134.65,142.42 134.88,142.56 135.1,142.69 135.32,142.82 135.55,142.93 135.77,143 
			135.99,143.14 136.22,143.24 136.44,143.36 136.66,143.44 136.88,143.51 137.11,143.56 137.33,143.62 137.55,143.68 
			137.78,143.79 138,143.93 138.22,144.02 138.45,144.12 138.67,144.29 138.89,144.42 139.12,144.45 139.34,144.46 139.56,144.48 
			139.79,144.48 140.01,144.47 140.23,144.42 140.46,144.36 140.68,144.32 140.9,144.24 141.13,144.17 141.35,144.04 141.57,143.82 
			141.8,143.52 142.02,143.13 142.24,142.7 142.47,142.25 142.69,141.81 142.91,141.43 143.13,141.19 143.36,141.16 143.58,141.24 
			143.8,141.26 144.03,141.18 144.25,141.14 144.47,141.06 144.7,140.84 144.92,140.47 145.14,139.9 145.37,138.85 145.59,137.15 
			145.81,135.26 146.04,133.81 146.26,133.17 146.48,133.38 146.71,134.22 146.93,135.43 147.15,136.68 147.38,137.8 147.6,138.81 
			147.82,139.65 148.05,140.28 148.27,140.73 148.49,141.03 148.72,141.2 148.94,141.22 149.16,141.02 149.39,140.66 149.61,140.29 
			149.83,139.9 150.05,139.5 150.28,139.13 150.5,138.76 150.72,138.37 150.95,138.01 151.17,137.74 151.39,137.5 151.62,137.25 
			151.84,137.11 152.06,136.99 152.29,136.97 152.51,137.08 152.73,137.29 152.96,137.55 153.18,137.78 153.4,137.94 153.63,138.05 
			153.85,138.11 154.07,138.2 154.3,138.28 154.52,138.26 154.74,138.08 154.97,137.87 155.19,137.67 155.41,137.4 155.64,137.03 
			155.86,136.68 156.08,136.27 156.3,135.9 156.53,135.59 156.75,135.4 156.97,135.34 157.2,135.3 157.42,135.23 157.64,135.23 
			157.87,135.24 158.09,135.14 158.31,134.97 158.54,134.66 158.76,134.29 158.98,133.91 159.21,133.43 159.43,132.89 
			159.65,132.28 159.88,131.58 160.1,130.87 160.32,130.16 160.55,129.39 160.77,128.66 160.99,127.84 161.22,126.93 161.44,125.97 
			161.66,124.92 161.89,123.71 162.11,122.17 162.33,120.06 162.56,117.2 162.78,112.86 163,105.92 163.22,96.62 163.45,88.99 
			163.67,87.85 163.89,91.35 164.12,94.04 164.34,94.21 164.56,92.6 164.79,90.24 165.01,87.42 165.23,84.29 165.46,81.32 
			165.68,78.58 165.9,75.75 166.13,73.05 166.35,70.68 166.57,68.3 166.8,65.89 167.02,63.32 167.24,59.79 167.47,55.56 
			167.69,52.63 167.91,53.56 168.14,57.53 168.36,63.04 168.58,68.67 168.81,73.57 169.03,77.07 169.25,78.39 169.47,76.65 
			169.7,72.83 169.92,70.12 170.14,71.94 170.37,77.69 170.59,84.1 170.81,89.51 171.04,94 171.26,98.12 171.48,101.9 
			171.71,105.31 171.93,108.49 172.15,111.25 172.38,113.54 172.6,115.26 172.82,116.53 173.05,117.52 173.27,118.4 173.49,119.17 
			173.72,119.85 173.94,120.46 174.16,121.05 174.39,121.54 174.61,121.96 174.83,122.38 175.05,122.69 175.28,122.8 175.5,122.8 
			175.73,122.67 175.95,122.55 176.17,122.34 176.39,121.91 176.62,121.32 176.84,120.82 177.06,120.4 177.29,119.96 177.51,119.47 
			177.73,118.86 177.96,118.18 178.18,117.57 178.4,116.98 178.63,116.28 178.85,115.35 179.07,114.49 179.3,113.65 179.52,112.78 
			179.74,111.99 179.97,111.26 180.19,110.46 180.41,109.77 180.64,108.97 180.86,107.96 181.08,106.99 181.31,106.11 
			181.53,105.17 181.75,104.24 181.97,103.36 182.2,102.39 182.42,101.29 182.64,100.28 182.87,99.36 183.09,98.45 183.31,97.51 
			183.54,96.62 183.76,95.69 183.98,94.75 184.21,93.89 184.43,93.15 184.65,92.18 184.88,91.2 185.1,90.35 185.32,89.49 
			185.55,88.58 185.77,87.72 185.99,86.95 186.22,86.29 186.44,85.49 186.66,84.74 186.89,84 187.11,83.36 187.33,82.51 
			187.56,81.46 187.78,80.74 188,80.21 188.22,79.38 188.45,78.84 188.67,78.45 188.89,78.08 189.12,77.65 189.34,77.18 
			189.56,76.49 189.79,75.96 190.01,75.88 190.23,75.8 190.46,75.36 190.68,75.09 190.9,74.73 191.13,74.43 191.35,74.05 
			191.57,73.68 191.8,73.41 192.02,73.51 192.24,73.49 192.47,73.29 192.69,73.14 192.91,73.02 193.14,72.85 193.36,72.83 
			193.58,72.77 193.81,72.87 194.03,73.06 194.25,73.23 194.48,73.11 194.7,73.08 194.92,73.15 195.14,73.34 195.37,73.49 
			195.59,73.81 195.81,74.08 196.04,74.28 196.26,74.45 196.48,74.73 196.71,74.85 196.93,75.1 197.15,75.33 197.38,75.73 
			197.6,76.37 197.82,76.9 198.05,77.11 198.27,77.53 198.49,77.9 198.72,78.34 198.94,78.69 199.16,79.14 199.39,79.7 
			199.61,80.25 199.83,80.62 200.06,81.4 200.28,82.01 200.5,82.31 200.73,82.73 200.95,83.47 201.17,83.91 201.4,84.45 
			201.62,85.24 201.84,85.88 202.06,86.33 202.29,86.78 202.51,87.26 202.73,87.9 202.96,88.54 203.18,89.24 203.4,89.83 
			203.63,90.62 203.85,91.45 204.07,92.39 204.3,93.48 204.52,94.42 204.74,95.15 204.97,96.06 205.19,97.09 205.41,98.17 
			205.64,99.08 205.86,100.05 206.08,101.27 206.31,102.68 206.53,104.17 206.75,105.8 206.98,107.74 207.2,109.99 207.42,111.97 
			207.65,113.37 207.87,114.26 208.09,116.19 208.31,119.62 208.54,123.54 208.76,126.35 208.98,128.21 209.21,129.42 209.43,130.1 
			209.65,130.64 209.88,131.38 210.1,132.45 210.32,134.01 210.55,135.64 210.77,137.54 210.99,139.63 211.22,141.66 211.44,143.43 
			211.66,144.76 211.89,145.57 212.11,146.08 212.33,147.41 212.56,151.03 212.78,156.26 213,160.92 213.23,164.6 213.45,167.52 
			213.67,169.53 213.9,171.16 214.12,172.4 214.34,173.24 214.56,173.87 214.79,174.32 215.01,174.63 215.23,175.02 215.46,175.27 
			215.68,175.45 215.9,175.51 216.13,175.62 216.35,175.76 216.57,175.9 216.8,176.08 217.02,176.24 217.24,176.42 217.47,176.62 
			217.69,176.83 217.91,177.01 218.14,177.16 218.36,177.36 218.58,177.49 218.81,177.55 219.03,177.57 219.25,177.62 
			219.48,177.71 219.7,177.78 219.92,177.72 220.15,177.7 220.37,177.84 220.59,178.02 220.82,178.08 221.04,178.08 221.26,178.17 
			221.48,178.31 221.71,178.34 221.93,178.26 222.15,178.25 222.38,178.31 222.6,178.29 222.82,178.13 223.05,178.08 223.27,178.03 
			223.49,177.92 223.72,177.89 223.94,177.84 224.16,177.85 224.39,177.88 224.61,177.71 224.83,177.58 225.06,177.6 225.28,177.6 
			225.5,177.52 225.73,177.46 225.95,177.4 226.17,177.3 226.4,177.23 226.62,177.21 226.84,177.17 227.07,177.12 227.29,176.97 
			227.51,176.86 227.74,176.83 227.96,176.77 228.18,176.66 228.4,176.64 228.63,176.65 228.85,176.69 229.07,176.78 229.3,176.82 
			229.52,176.83 229.74,176.9 229.97,177.04 		"/>
	</g>
</g>
<text transform="matrix(1 0 0 1 10.0995 12.0352)" class="st15 st4">2</text>
<text transform="matrix(1 0 0 1 13.3725 12.0352)" class="st15 st4">.</text>
<text transform="matrix(1 0 0 1 15.1908 12.0352)" class="st15 st4">2</text>
<g>
	<g>
		<defs>
			<rect id="SVGID_00000106832253285425135020000018041733344334047918_" x="20.77" y="3.33" width="228.22" height="193.14"/>
		</defs>
		<clipPath id="SVGID_00000163052969893431926510000001284026604789244843_">
			<use xlink:href="#SVGID_00000106832253285425135020000018041733344334047918_"  style="overflow:visible;"/>
		</clipPath>
		
			<polyline style="clip-path:url(#SVGID_00000163052969893431926510000001284026604789244843_);fill:none;stroke:#33A02C;stroke-width:0.2388;stroke-miterlimit:10;" points="
			39.78,21.29 40.01,24.66 40.23,27.38 40.45,29.85 40.68,31 40.9,32.76 41.12,34.92 41.35,36.02 41.57,35.56 41.79,35.94 
			42.02,37.23 42.24,39.21 42.46,42.56 42.69,46.11 42.91,49.33 43.13,51.8 43.36,52.83 43.58,52.82 43.8,52.66 44.03,51.8 
			44.25,50.32 44.47,48.14 44.7,45.47 44.92,42.28 45.14,38.55 45.37,35.88 45.59,34.69 45.81,34.45 46.04,34.22 46.26,33.57 
			46.48,33.21 46.7,33.22 46.93,32.26 47.15,31.13 47.37,32.55 47.6,35.16 47.82,36.74 48.04,37.46 48.27,38.23 48.49,39.29 
			48.71,40.14 48.94,40.79 49.16,41.29 49.38,41.85 49.61,42.59 49.83,43.35 50.05,43.66 50.28,43.55 50.5,43.59 50.72,44.17 
			50.95,44.75 51.17,44.55 51.39,43.87 51.62,43.77 51.84,44.5 52.06,45.31 52.29,46.05 52.51,46.58 52.73,46.75 52.95,46.69 
			53.18,47.19 53.4,48.19 53.62,49.09 53.85,49.59 54.07,49.37 54.29,48.16 54.52,45.96 54.74,43.4 54.96,43.07 55.19,44.62 
			55.41,45.56 55.63,45.24 55.86,44 56.08,41.97 56.3,40.91 56.53,41.88 56.75,42.48 56.97,42.01 57.2,41.13 57.42,40.31 
			57.64,39.8 57.87,39.19 58.09,38.71 58.31,37.78 58.54,36.55 58.76,35.2 58.98,33.77 59.21,32.97 59.43,32.5 59.65,31.86 
			59.87,31.52 60.1,31.36 60.32,31.55 60.54,31.67 60.77,31.23 60.99,30.49 61.21,30.05 61.44,30.01 61.66,29.58 61.88,28.82 
			62.11,28.11 62.33,28.06 62.55,28.37 62.78,28.4 63,28.11 63.22,28.2 63.45,28.99 63.67,29.67 63.89,30.16 64.12,30.45 
			64.34,30.64 64.56,30.87 64.79,30.72 65.01,30.07 65.23,29.05 65.46,27.82 65.68,26.89 65.9,25.83 66.12,25.97 66.35,28.73 
			66.57,32.42 66.79,35.37 67.02,37.71 67.24,39.68 67.46,40.86 67.69,40.92 67.91,40.21 68.13,39.29 68.36,38.11 68.58,37.19 
			68.8,36.5 69.03,35.48 69.25,34.62 69.47,34.05 69.7,33.44 69.92,32.69 70.14,32.21 70.37,31.95 70.59,31.85 70.81,31.74 
			71.04,31.22 71.26,31.03 71.48,30.98 71.7,29.94 71.93,27.71 72.15,25.06 72.37,23.59 72.6,23.94 72.82,25.28 73.04,27.16 
			73.27,29.36 73.49,31.96 73.71,34.3 73.94,35.71 74.16,37.13 74.38,38.35 74.61,38.72 74.83,38.94 75.05,39.49 75.28,39.95 
			75.5,40.47 75.72,41.57 75.95,42.56 76.17,43.09 76.39,43.12 76.62,42.48 76.84,40.62 77.06,37.95 77.29,36.17 77.51,34.74 
			77.73,31.47 77.96,25.05 78.18,19.43 78.4,22.36 78.62,30.59 78.85,37.22 79.07,41.12 79.29,43.31 79.52,44.14 79.74,44.23 
			79.96,44.33 80.19,44.2 80.41,44.09 80.63,44.05 80.86,43.82 81.08,43.38 81.3,42.42 81.53,41.26 81.75,41.36 81.97,41.04 
			82.2,38.19 82.42,33.85 82.64,31.18 82.87,30.92 83.09,33.08 83.31,38.03 83.54,44.98 83.76,52.43 83.98,58.45 84.21,62.37 
			84.43,65.16 84.65,67.34 84.87,68.67 85.1,69.67 85.32,70.53 85.54,71.2 85.77,71.61 85.99,71.84 86.21,72.23 86.44,72.78 
			86.66,72.97 86.88,72.66 87.11,72.31 87.33,72.17 87.55,72.08 87.78,71.87 88,71.48 88.22,71.35 88.45,71.34 88.67,71.41 
			88.89,71.15 89.12,70.86 89.34,70.45 89.56,69.9 89.79,69.01 90.01,67.9 90.23,66.64 90.46,65.17 90.68,63.35 90.9,61.27 
			91.13,58.96 91.35,56.4 91.57,53.43 91.79,50.24 92.02,46.23 92.24,41.65 92.46,37.22 92.69,33.27 92.91,30.65 93.13,29.4 
			93.36,28.27 93.58,27.59 93.8,27.47 94.03,27.82 94.25,28.14 94.47,28.42 94.7,29.03 94.92,30.07 95.14,31.4 95.37,32.92 
			95.59,34.64 95.81,37.13 96.04,40.62 96.26,44.31 96.48,48.43 96.71,52.79 96.93,56.31 97.15,58.25 97.38,58.98 97.6,58.96 
			97.82,58.38 98.04,56.81 98.27,55.07 98.49,53.86 98.71,53.11 98.94,52.59 99.16,52.32 99.38,52.59 99.61,53.31 99.83,54.24 
			100.05,55.58 100.28,58.07 100.5,62.18 100.72,67.1 100.95,72.35 101.17,77.18 101.39,81.08 101.62,84.56 101.84,87.67 
			102.06,90.35 102.29,92.68 102.51,94.55 102.73,96.16 102.96,97.6 103.18,98.86 103.4,99.98 103.63,100.98 103.85,101.85 
			104.07,102.66 104.3,103.46 104.52,104.07 104.74,104.62 104.96,105.24 105.19,105.9 105.41,106.41 105.63,106.87 105.86,107.34 
			106.08,107.75 106.3,108.12 106.53,108.56 106.75,109 106.97,109.34 107.2,109.67 107.42,110.01 107.64,110.34 107.87,110.64 
			108.09,110.85 108.31,111.07 108.54,111.3 108.76,111.52 108.98,111.72 109.21,111.97 109.43,112.3 109.65,112.62 109.88,112.89 
			110.1,113.19 110.32,113.5 110.55,113.79 110.77,113.99 110.99,114.21 111.22,114.41 111.44,114.57 111.66,114.77 111.88,115.01 
			112.11,115.11 112.33,115.28 112.55,115.54 112.78,115.76 113,115.98 113.22,116.22 113.45,116.43 113.67,116.66 113.89,116.88 
			114.12,117.09 114.34,117.3 114.56,117.51 114.79,117.71 115.01,117.89 115.23,118.06 115.46,118.3 115.68,118.6 115.9,118.89 
			116.13,119.17 116.35,119.53 116.57,119.85 116.8,120.14 117.02,120.45 117.24,120.79 117.47,121.08 117.69,121.35 117.91,121.62 
			118.13,121.87 118.36,122.05 118.58,122.22 118.8,122.34 119.03,122.46 119.25,122.61 119.47,122.77 119.7,122.83 119.92,122.86 
			120.14,122.89 120.37,122.94 120.59,122.94 120.81,122.99 121.04,123.01 121.26,122.95 121.48,122.91 121.71,122.93 
			121.93,123.02 122.15,123.19 122.38,123.42 122.6,123.66 122.82,123.92 123.05,124.25 123.27,124.57 123.49,124.95 123.71,125.36 
			123.94,125.76 124.16,126.17 124.38,126.63 124.61,127.08 124.83,127.44 125.05,127.75 125.28,128.07 125.5,128.36 125.72,128.7 
			125.95,129.04 126.17,129.35 126.39,129.64 126.62,129.89 126.84,130.14 127.06,130.39 127.29,130.65 127.51,130.92 
			127.73,131.17 127.96,131.42 128.18,131.62 128.4,131.79 128.63,131.97 128.85,132.16 129.07,132.3 129.3,132.54 129.52,132.79 
			129.74,133.01 129.97,133.21 130.19,133.41 130.41,133.66 130.63,133.97 130.86,134.25 131.08,134.57 131.3,134.84 131.53,135.06 
			131.75,135.26 131.97,135.54 132.2,135.86 132.42,136.17 132.64,136.45 132.87,136.77 133.09,137.02 133.31,137.19 133.54,137.3 
			133.76,137.4 133.98,137.51 134.21,137.58 134.43,137.55 134.65,137.72 134.88,138.07 135.1,138.33 135.32,138.41 135.55,138.39 
			135.77,138.39 135.99,138.45 136.22,138.49 136.44,138.56 136.66,138.63 136.88,138.7 137.11,138.78 137.33,138.87 137.55,139.01 
			137.78,139.22 138,139.34 138.22,139.46 138.45,139.68 138.67,139.86 138.89,140.01 139.12,140.1 139.34,140.26 139.56,140.45 
			139.79,140.53 140.01,140.53 140.23,140.53 140.46,140.58 140.68,140.59 140.9,140.56 141.13,140.58 141.35,140.55 141.57,140.39 
			141.8,140.21 142.02,140.02 142.24,139.74 142.47,139.46 142.69,139.28 142.91,139.22 143.13,139.27 143.36,139.33 143.58,139.43 
			143.8,139.58 144.03,139.71 144.25,139.86 144.47,139.88 144.7,139.73 144.92,139.41 145.14,138.84 145.37,137.88 145.59,136.46 
			145.81,134.8 146.04,133.4 146.26,132.73 146.48,132.85 146.71,133.59 146.93,134.56 147.15,135.48 147.38,136.29 147.6,136.97 
			147.82,137.56 148.05,138.09 148.27,138.62 148.49,139.08 148.72,139.31 148.94,139.35 149.16,139.23 149.39,138.92 149.61,138.6 
			149.83,138.32 150.05,138.05 150.28,137.8 150.5,137.62 150.72,137.45 150.95,137.31 151.17,137.17 151.39,136.91 151.62,136.63 
			151.84,136.43 152.06,136.26 152.29,136.24 152.51,136.34 152.73,136.49 152.96,136.59 153.18,136.74 153.4,136.85 153.63,136.89 
			153.85,136.91 154.07,137.02 154.3,137.14 154.52,137.14 154.74,137.07 154.97,136.88 155.19,136.55 155.41,136.02 155.64,135.29 
			155.86,134.54 156.08,133.98 156.3,133.95 156.53,134.16 156.75,134.38 156.97,134.68 157.2,134.96 157.42,135.12 157.64,135.18 
			157.87,135.21 158.09,135.22 158.31,135.07 158.54,134.79 158.76,134.5 158.98,134.19 159.21,133.74 159.43,133.17 159.65,132.42 
			159.88,131.55 160.1,130.58 160.32,129.72 160.55,128.83 160.77,127.7 160.99,126.42 161.22,125.09 161.44,123.68 161.66,121.96 
			161.89,119.39 162.11,115.5 162.33,109.37 162.56,102.06 162.78,97.4 163,96.57 163.22,96.18 163.45,94.58 163.67,93.31 
			163.89,91.52 164.12,87.18 164.34,81.56 164.56,77.4 164.79,74.65 165.01,72.48 165.23,71.55 165.46,71.11 165.68,70.28 
			165.9,68.84 166.13,66.41 166.35,63.03 166.57,59.74 166.8,56.86 167.02,53.84 167.24,50.62 167.47,48.11 167.69,47.38 
			167.91,48.57 168.14,51.44 168.36,55.58 168.58,59.31 168.81,60.6 169.03,59.49 169.25,58.42 169.47,57.96 169.7,57.54 
			169.92,57.58 170.14,60.27 170.37,66.18 170.59,73.45 170.81,80.36 171.04,86.8 171.26,92.55 171.48,97.69 171.71,102.18 
			171.93,106.05 172.15,109.42 172.38,112.36 172.6,114.59 172.82,116.2 173.05,117.48 173.27,118.61 173.49,119.54 173.72,120.34 
			173.94,120.93 174.16,121.54 174.39,122.22 174.61,122.73 174.83,123.16 175.05,123.45 175.28,123.61 175.5,123.73 175.73,123.7 
			175.95,123.57 176.17,123.37 176.39,123.07 176.62,122.58 176.84,122.21 177.06,121.94 177.29,121.57 177.51,121.11 
			177.73,120.61 177.96,119.99 178.18,119.43 178.4,118.87 178.63,118.25 178.85,117.5 179.07,116.79 179.3,116.14 179.52,115.46 
			179.74,114.66 179.97,113.85 180.19,113.1 180.41,112.39 180.64,111.66 180.86,110.97 181.08,110.28 181.31,109.57 181.53,108.87 
			181.75,108.19 181.97,107.38 182.2,106.5 182.42,105.58 182.64,104.81 182.87,103.97 183.09,103.08 183.31,102.19 183.54,101.44 
			183.76,100.67 183.98,99.85 184.21,99.15 184.43,98.56 184.65,97.96 184.88,97.44 185.1,96.92 185.32,96.27 185.55,95.53 
			185.77,94.92 185.99,94.24 186.22,93.52 186.44,92.82 186.66,92.2 186.89,91.32 187.11,90.7 187.33,90.26 187.56,89.53 
			187.78,88.71 188,88.07 188.22,87.61 188.45,87.27 188.67,86.66 188.89,85.95 189.12,85.47 189.34,85.35 189.56,84.98 
			189.79,84.52 190.01,84.19 190.23,84.07 190.46,84.03 190.68,83.95 190.9,83.63 191.13,83.32 191.35,83.03 191.57,82.82 
			191.8,82.48 192.02,82.31 192.24,82.33 192.47,82.2 192.69,82.1 192.91,82.21 193.14,82.12 193.36,81.88 193.58,81.83 
			193.81,81.98 194.03,82.11 194.25,82.23 194.48,82.15 194.7,82.22 194.92,82.46 195.14,82.6 195.37,82.54 195.59,82.8 
			195.81,83.06 196.04,83.35 196.26,83.45 196.48,83.58 196.71,83.81 196.93,84.08 197.15,84.23 197.38,84.57 197.6,84.95 
			197.82,85.35 198.05,85.59 198.27,85.93 198.49,86.47 198.72,86.95 198.94,87 199.16,87.22 199.39,87.6 199.61,88.03 
			199.83,88.54 200.06,89 200.28,89.29 200.5,89.76 200.73,90.19 200.95,90.49 201.17,91.03 201.4,91.75 201.62,92.18 201.84,92.62 
			202.06,93.17 202.29,93.68 202.51,94.08 202.73,94.65 202.96,95.15 203.18,95.63 203.4,96.29 203.63,97.03 203.85,97.54 
			204.07,98.1 204.3,98.74 204.52,99.45 204.74,100.21 204.97,101.03 205.19,101.75 205.41,102.59 205.64,103.23 205.86,103.99 
			206.08,105.17 206.31,106.3 206.53,107.32 206.75,108.7 206.98,110.22 207.2,111.83 207.42,113.25 207.65,113.99 207.87,113.88 
			208.09,115.14 208.31,118.69 208.54,122.73 208.76,125.64 208.98,127.62 209.21,128.8 209.43,129.41 209.65,129.83 209.88,130.46 
			210.1,131.65 210.32,133.13 210.55,134.64 210.77,136.33 210.99,138 211.22,139.57 211.44,140.76 211.66,141.35 211.89,141.11 
			212.11,140.26 212.33,140.54 212.56,144.46 212.78,151.24 213,157.72 213.23,163.01 213.45,167.18 213.67,170.09 213.9,172.31 
			214.12,173.91 214.34,175.12 214.56,176.08 214.79,176.56 215.01,176.94 215.23,177.43 215.46,177.81 215.68,177.96 215.9,177.93 
			216.13,178.07 216.35,178.24 216.57,178.43 216.8,178.57 217.02,178.67 217.24,178.77 217.47,178.86 217.69,178.95 217.91,178.99 
			218.14,179.1 218.36,179.27 218.58,179.4 218.81,179.45 219.03,179.44 219.25,179.49 219.48,179.64 219.7,179.71 219.92,179.67 
			220.15,179.68 220.37,179.86 220.59,180.03 220.82,179.98 221.04,179.89 221.26,180.06 221.48,180.38 221.71,180.25 
			221.93,180.09 222.15,180.21 222.38,180.29 222.6,180.21 222.82,180.03 223.05,179.97 223.27,179.96 223.49,179.97 223.72,179.96 
			223.94,179.91 224.16,179.97 224.39,180.06 224.61,179.95 224.83,179.8 225.06,179.78 225.28,179.8 225.5,179.72 225.73,179.6 
			225.95,179.54 226.17,179.53 226.4,179.51 226.62,179.48 226.84,179.48 227.07,179.47 227.29,179.38 227.51,179.35 227.74,179.35 
			227.96,179.28 228.18,179.21 228.4,179.13 228.63,179.05 228.85,179.1 229.07,179.21 229.3,179.3 229.52,179.34 229.74,179.42 
			229.97,179.49 		"/>
	</g>
</g>
<text transform="matrix(1 0 0 1 104.9238 214.3102)" class="st15 st4">W</text>
<text transform="matrix(1 0 0 1 109.9238 214.3102)" class="st15 st4">a</text>
<text transform="matrix(1 0 0 1 112.8938 214.3102)" class="st15 st4">v</text>
<text transform="matrix(1 0 0 1 115.8638 214.3102)" class="st15 st4">e</text>
<text transform="matrix(1 0 0 1 119.1438 214.3102)" class="st15 st4">n</text>
<text transform="matrix(1 0 0 1 122.6038 214.3102)" class="st15 st4">u</text>
<text transform="matrix(1 0 0 1 126.2138 214.3102)" class="st15 st4">m</text>
<text transform="matrix(1 0 0 1 131.4938 214.3102)" class="st15 st4">b</text>
<text transform="matrix(1 0 0 1 135.4038 214.3102)" class="st15 st4">er</text>
<text transform="matrix(1 0 0 1 146.9413 214.3102)" class="st15 st4">cm</text>
<text transform="matrix(1 0 0 1 155.3056 211.9348)" class="st15 st8">−</text>
<text transform="matrix(1 0 0 1 159.2568 211.9348)" class="st15 st8">1</text>
<text transform="matrix(-6.123234e-17 -1 1 -6.123234e-17 5.6171 116.5645)" class="st15 st4">Absorbance</text>
<rect x="218.97" y="7.31" class="st12" width="25.33" height="18.08"/>
<rect x="218.97" y="7.31" class="st2" width="25.33" height="18.08"/>
<polyline class="st13" points="220.88,12.43 225.98,12.43 231.09,12.43 "/>
<text transform="matrix(1 0 0 1 232.3993 14.1765)" class="st15 st4">PE</text>
<polyline class="st14" points="220.88,20.28 225.98,20.28 231.09,20.28 "/>
<text transform="matrix(1 0 0 1 232.3993 22.0222)" class="st15 st4">PP</text>
</svg>
