<?xml version="1.0" encoding="utf-8"?>
<!-- Generator: Adobe Illustrator 26.0.3, SVG Export Plug-In . SVG Version: 6.00 Build 0)  -->
<svg version="1.1" id="Layer_1" xmlns="http://www.w3.org/2000/svg" xmlns:xlink="http://www.w3.org/1999/xlink" x="0px" y="0px"
	 viewBox="0 0 248.97 212.74" style="enable-background:new 0 0 248.97 212.74;" xml:space="preserve">
<style type="text/css">
	.st0{fill:none;stroke:#D9D9D9;stroke-width:0.2388;stroke-miterlimit:10;stroke-dasharray:1.7934,1.7934;}
	.st1{fill:none;stroke:#808080;stroke-width:0.1194;stroke-miterlimit:10;}
	.st2{fill:none;stroke:#000000;stroke-width:0.2388;stroke-miterlimit:10;}
	.st3{font-family:'CMR10';}
	.st4{font-size:6.5454px;}
	.st5{font-family:'CMMI10';}
	
		.st6{clip-path:url(#SVGID_00000127735495350323998710000009513003979457432244_);fill:none;stroke:#6A3D9A;stroke-width:0.2388;stroke-miterlimit:10;}
	
		.st7{clip-path:url(#SVGID_00000026146523439570860500000002609392146851253168_);fill:none;stroke:#33A02C;stroke-width:0.2388;stroke-miterlimit:10;}
	.st8{font-family:'CMSY8';}
	.st9{font-size:4.782px;}
	.st10{font-family:'CMR8';}
	.st11{fill:#FFFFFF;}
	.st12{fill:none;stroke:#6A3D9A;stroke-width:0.2388;stroke-miterlimit:10;}
	.st13{fill:none;stroke:#33A02C;stroke-width:0.2388;stroke-miterlimit:10;}
</style>
<path class="st0" d="M229.84,193.26V0.12 M200.9,193.26V0.12 M171.97,193.26V0.12 M143.03,193.26V0.12 M114.09,193.26V0.12
	 M85.16,193.26V0.12 M56.22,193.26V0.12 M27.29,193.26V0.12"/>
<path class="st0" d="M20.63,6.72h228.22 M20.63,21.68h228.22 M20.63,36.63h228.22 M20.63,51.59h228.22 M20.63,66.55h228.22
	 M20.63,81.51h228.22 M20.63,96.47h228.22 M20.63,111.43h228.22 M20.63,126.39h228.22 M20.63,141.35h228.22 M20.63,156.31h228.22
	 M20.63,171.27h228.22 M20.63,186.23h228.22"/>
<path class="st1" d="M229.84,0.12v2.55 M200.9,0.12v2.55 M171.97,0.12v2.55 M143.03,0.12v2.55 M114.09,0.12v2.55 M85.16,0.12v2.55
	 M56.22,0.12v2.55 M27.29,0.12v2.55 M229.84,193.26v-2.55 M200.9,193.26v-2.55 M171.97,193.26v-2.55 M143.03,193.26v-2.55
	 M114.09,193.26v-2.55 M85.16,193.26v-2.55 M56.22,193.26v-2.55 M27.29,193.26v-2.55"/>
<path class="st1" d="M248.85,6.72h-2.55 M248.85,21.68h-2.55 M248.85,36.63h-2.55 M248.85,51.59h-2.55 M248.85,66.55h-2.55
	 M248.85,81.51h-2.55 M248.85,96.47h-2.55 M248.85,111.43h-2.55 M248.85,126.39h-2.55 M248.85,141.35h-2.55 M248.85,156.31h-2.55
	 M248.85,171.27h-2.55 M248.85,186.23h-2.55 M20.63,6.72h2.55 M20.63,21.68h2.55 M20.63,36.63h2.55 M20.63,51.59h2.55 M20.63,66.55
	h2.55 M20.63,81.51h2.55 M20.63,96.47h2.55 M20.63,111.43h2.55 M20.63,126.39h2.55 M20.63,141.35h2.55 M20.63,156.31h2.55
	 M20.63,171.27h2.55 M20.63,186.23h2.55"/>
<rect x="20.63" y="0.12" class="st2" width="228.22" height="193.14"/>
<text transform="matrix(1 0 0 1 22.377 199.7824)" class="st3 st4">500</text>
<text transform="matrix(1 0 0 1 48.7666 199.7824)" class="st3 st4">1</text>
<text transform="matrix(1 0 0 1 52.0396 199.7824)" class="st5 st4">,</text>
<text transform="matrix(1 0 0 1 53.8579 199.7824)" class="st3 st4">000</text>
<text transform="matrix(1 0 0 1 77.7031 199.7824)" class="st3 st4">1</text>
<text transform="matrix(1 0 0 1 80.9756 199.7824)" class="st5 st4">,</text>
<text transform="matrix(1 0 0 1 82.7939 199.7824)" class="st3 st4">500</text>
<text transform="matrix(1 0 0 1 106.6382 199.7824)" class="st3 st4">2</text>
<text transform="matrix(1 0 0 1 109.9106 199.7824)" class="st5 st4">,</text>
<text transform="matrix(1 0 0 1 111.729 199.7824)" class="st3 st4">000</text>
<text transform="matrix(1 0 0 1 135.5737 199.7824)" class="st3 st4">2</text>
<text transform="matrix(1 0 0 1 138.8462 199.7824)" class="st5 st4">,</text>
<text transform="matrix(1 0 0 1 140.6646 199.7824)" class="st3 st4">500</text>
<text transform="matrix(1 0 0 1 164.5088 199.7824)" class="st3 st4">3</text>
<text transform="matrix(1 0 0 1 167.7812 199.7824)" class="st5 st4">,</text>
<text transform="matrix(1 0 0 1 169.5996 199.7824)" class="st3 st4">000</text>
<text transform="matrix(1 0 0 1 193.4443 199.7824)" class="st3 st4">3</text>
<text transform="matrix(1 0 0 1 196.7168 199.7824)" class="st5 st4">,</text>
<text transform="matrix(1 0 0 1 198.5352 199.7824)" class="st3 st4">500</text>
<text transform="matrix(1 0 0 1 222.3789 199.7824)" class="st3 st4">4</text>
<text transform="matrix(1 0 0 1 225.6523 199.7824)" class="st5 st4">,</text>
<text transform="matrix(1 0 0 1 227.4697 199.7824)" class="st3 st4">000</text>
<text transform="matrix(1 0 0 1 15.0527 188.3371)" class="st3 st4">1</text>
<text transform="matrix(1 0 0 1 9.9619 173.3776)" class="st3 st4">1</text>
<text transform="matrix(1 0 0 1 13.2344 173.3776)" class="st5 st4">.</text>
<text transform="matrix(1 0 0 1 15.0527 173.3776)" class="st3 st4">1</text>
<text transform="matrix(1 0 0 1 9.9619 158.4187)" class="st3 st4">1</text>
<text transform="matrix(1 0 0 1 13.2344 158.4187)" class="st5 st4">.</text>
<text transform="matrix(1 0 0 1 15.0527 158.4187)" class="st3 st4">2</text>
<text transform="matrix(1 0 0 1 9.9619 143.4592)" class="st3 st4">1</text>
<text transform="matrix(1 0 0 1 13.2344 143.4592)" class="st5 st4">.</text>
<text transform="matrix(1 0 0 1 15.0527 143.4592)" class="st3 st4">3</text>
<text transform="matrix(1 0 0 1 9.9619 128.5002)" class="st3 st4">1</text>
<text transform="matrix(1 0 0 1 13.2344 128.5002)" class="st5 st4">.</text>
<text transform="matrix(1 0 0 1 15.0527 128.5002)" class="st3 st4">4</text>
<text transform="matrix(1 0 0 1 9.9619 113.5407)" class="st3 st4">1</text>
<text transform="matrix(1 0 0 1 13.2344 113.5407)" class="st5 st4">.</text>
<text transform="matrix(1 0 0 1 15.0527 113.5407)" class="st3 st4">5</text>
<text transform="matrix(1 0 0 1 9.9619 98.5817)" class="st3 st4">1</text>
<text transform="matrix(1 0 0 1 13.2344 98.5817)" class="st5 st4">.</text>
<text transform="matrix(1 0 0 1 15.0527 98.5817)" class="st3 st4">6</text>
<text transform="matrix(1 0 0 1 9.9619 83.6223)" class="st3 st4">1</text>
<text transform="matrix(1 0 0 1 13.2344 83.6223)" class="st5 st4">.</text>
<text transform="matrix(1 0 0 1 15.0527 83.6223)" class="st3 st4">7</text>
<text transform="matrix(1 0 0 1 9.9619 68.6633)" class="st3 st4">1</text>
<text transform="matrix(1 0 0 1 13.2344 68.6633)" class="st5 st4">.</text>
<text transform="matrix(1 0 0 1 15.0527 68.6633)" class="st3 st4">8</text>
<text transform="matrix(1 0 0 1 9.9619 53.7038)" class="st3 st4">1</text>
<text transform="matrix(1 0 0 1 13.2344 53.7038)" class="st5 st4">.</text>
<text transform="matrix(1 0 0 1 15.0527 53.7038)" class="st3 st4">9</text>
<text transform="matrix(1 0 0 1 15.0527 38.7448)" class="st3 st4">2</text>
<text transform="matrix(1 0 0 1 9.9619 23.7854)" class="st3 st4">2</text>
<text transform="matrix(1 0 0 1 13.2344 23.7854)" class="st5 st4">.</text>
<text transform="matrix(1 0 0 1 15.0527 23.7854)" class="st3 st4">1</text>
<g>
	<defs>
		<rect id="SVGID_1_" x="20.63" y="0.12" width="228.22" height="193.14"/>
	</defs>
	<clipPath id="SVGID_00000123429798188721623520000017107081846346342023_">
		<use xlink:href="#SVGID_1_"  style="overflow:visible;"/>
	</clipPath>
	
		<polyline style="clip-path:url(#SVGID_00000123429798188721623520000017107081846346342023_);fill:none;stroke:#6A3D9A;stroke-width:0.2388;stroke-miterlimit:10;" points="
		39.64,25.95 39.87,30.84 40.09,35.27 40.31,38.68 40.54,39.73 40.76,40.77 40.98,42.1 41.21,42.41 41.43,42.82 41.65,44.15 
		41.88,46.05 42.1,48.92 42.32,52.64 42.55,57.06 42.77,60.75 42.99,63.27 43.22,64.36 43.44,63.64 43.66,61.73 43.89,58.21 
		44.11,54.16 44.33,50.27 44.56,45.37 44.78,39.99 45,34.97 45.23,31.07 45.45,28.36 45.67,26.12 45.9,24.58 46.12,24.04 
		46.34,25.32 46.56,27.38 46.79,29.17 47.01,31.3 47.23,33.48 47.46,35.49 47.68,37.51 47.9,39.07 48.13,40.27 48.35,41.39 
		48.57,42.51 48.8,43.82 49.02,45.11 49.24,46.1 49.47,46.86 49.69,47.88 49.91,48.92 50.14,49.77 50.36,50.71 50.58,51.56 
		50.81,52.04 51.03,51.95 51.25,51.61 51.48,51.71 51.7,52.67 51.92,53.98 52.15,55.15 52.37,55.95 52.59,56.42 52.81,56.71 
		53.04,56.9 53.26,57.55 53.48,58.66 53.71,59.06 53.93,58.6 54.15,57.81 54.38,56.84 54.6,55.68 54.82,54.73 55.05,54.09 
		55.27,53.29 55.49,52.11 55.72,51.09 55.94,50.47 56.16,49.93 56.39,49.46 56.61,48.8 56.83,47.75 57.06,46.19 57.28,44.33 
		57.5,42.55 57.73,41.35 57.95,40.56 58.17,39.47 58.4,38.07 58.62,36.5 58.84,34.89 59.07,33.57 59.29,32.52 59.51,31.62 
		59.73,30.66 59.96,29.85 60.18,29.45 60.4,29.25 60.63,29.11 60.85,28.42 61.07,27.02 61.3,26.26 61.52,26.09 61.74,25.44 
		61.97,24.56 62.19,23.86 62.41,23.51 62.64,23.86 62.86,24.4 63.08,24.8 63.31,25.61 63.53,26.45 63.75,27.07 63.98,27.56 
		64.2,28.82 64.42,30.41 64.65,31.62 64.87,31.84 65.09,31.93 65.32,32.4 65.54,33.12 65.76,34.24 65.98,35.49 66.21,36.94 
		66.43,38.78 66.65,40.81 66.88,43.19 67.1,45.63 67.32,47.07 67.55,46.99 67.77,46.11 67.99,44.76 68.22,43.4 68.44,42.49 
		68.66,41.97 68.89,41.79 69.11,41.41 69.33,40.67 69.56,40.06 69.78,39.61 70,39.14 70.23,38.75 70.45,38.24 70.67,37.29 
		70.9,35.3 71.12,31.64 71.34,27.47 71.56,26.06 71.79,27.26 72.01,28.61 72.23,29.96 72.46,31.76 72.68,33.94 72.9,36.46 
		73.13,38.94 73.35,41.19 73.57,43.06 73.8,44.55 74.02,45.58 74.24,46.25 74.47,46.55 74.69,46.73 74.91,47.42 75.14,48.13 
		75.36,48.71 75.58,49.51 75.81,50.25 76.03,50.93 76.25,51.59 76.48,52.02 76.7,52.09 76.92,51.4 77.15,49.84 77.37,48.24 
		77.59,47.23 77.82,46.75 78.04,46.81 78.26,47.4 78.48,48.41 78.71,49.61 78.93,50.41 79.15,50.41 79.38,49.8 79.6,48.97 
		79.82,48.3 80.05,48.02 80.27,48.21 80.49,48.64 80.72,48.51 80.94,48.06 81.16,47.98 81.39,48.37 81.61,48.91 81.83,49.44 
		82.06,49.69 82.28,49.2 82.5,48.41 82.73,47.55 82.95,46.64 83.17,47.21 83.4,48.68 83.62,51.43 83.84,57.23 84.07,61.91 
		84.29,64.58 84.51,66.61 84.73,68.34 84.96,69.95 85.18,71.38 85.4,72.55 85.63,73.71 85.85,74.49 86.07,75.16 86.3,75.93 
		86.52,76.38 86.74,76.54 86.97,76.55 87.19,76.5 87.41,76.42 87.64,76.36 87.86,76.17 88.08,76.09 88.31,76.01 88.53,75.95 
		88.75,75.52 88.98,75.01 89.2,74.32 89.42,73.4 89.65,72.13 89.87,70.72 90.09,69.13 90.32,67.23 90.54,64.79 90.76,62.07 
		90.99,58.98 91.21,55.89 91.43,52.47 91.65,48.69 91.88,44.32 92.1,39.73 92.32,35.2 92.55,31.31 92.77,28.61 92.99,26.9 
		93.22,25.8 93.44,25.57 93.66,25.4 93.89,25.31 94.11,25.36 94.33,25.66 94.56,26.33 94.78,27.17 95,28.42 95.23,30.15 
		95.45,32.06 95.67,34.63 95.9,38.45 96.12,42.85 96.34,47.85 96.57,53.66 96.79,58.92 97.01,61.98 97.24,63.27 97.46,63.23 
		97.68,62.28 97.9,60.22 98.13,57.88 98.35,55.77 98.57,54.08 98.8,52.73 99.02,52.2 99.24,52.16 99.47,52.4 99.69,53.11 
		99.91,54.51 100.14,57.18 100.36,61.86 100.58,68 100.81,74.52 101.03,80.39 101.25,84.9 101.48,88.7 101.7,91.96 101.92,94.64 
		102.15,96.85 102.37,98.56 102.59,100.06 102.82,101.45 103.04,102.73 103.26,104 103.49,105.14 103.71,106.26 103.93,107.44 
		104.16,108.54 104.38,109.41 104.6,110.14 104.82,110.82 105.05,111.56 105.27,112.27 105.49,112.81 105.72,113.28 105.94,113.75 
		106.16,114.18 106.39,114.59 106.61,114.96 106.83,115.24 107.06,115.53 107.28,115.87 107.5,116.14 107.73,116.3 107.95,116.47 
		108.17,116.66 108.4,116.8 108.62,116.91 108.84,117.01 109.07,117.14 109.29,117.37 109.51,117.64 109.74,117.86 109.96,118.05 
		110.18,118.2 110.41,118.3 110.63,118.36 110.85,118.43 111.08,118.52 111.3,118.67 111.52,118.87 111.74,119.09 111.97,119.3 
		112.19,119.55 112.41,119.82 112.64,120.13 112.86,120.38 113.08,120.64 113.31,120.91 113.53,121.16 113.75,121.38 113.98,121.59 
		114.2,121.82 114.42,122.04 114.65,122.18 114.87,122.27 115.09,122.41 115.32,122.62 115.54,122.82 115.76,123.08 115.99,123.34 
		116.21,123.6 116.43,123.87 116.66,124.07 116.88,124.21 117.1,124.45 117.33,124.7 117.55,124.92 117.77,125.15 117.99,125.4 
		118.22,125.59 118.44,125.75 118.66,125.85 118.89,125.97 119.11,126.1 119.33,126.19 119.56,126.25 119.78,126.3 120,126.27 
		120.23,126.26 120.45,126.19 120.67,126.07 120.9,125.98 121.12,125.97 121.34,125.92 121.57,125.85 121.79,125.84 122.01,125.98 
		122.24,126.07 122.46,126.2 122.68,126.44 122.91,126.72 123.13,127.05 123.35,127.5 123.57,127.99 123.8,128.42 124.02,128.84 
		124.24,129.33 124.47,129.77 124.69,130.17 124.91,130.49 125.14,130.82 125.36,131.16 125.58,131.44 125.81,131.67 126.03,131.94 
		126.25,132.21 126.48,132.43 126.7,132.69 126.92,132.98 127.15,133.22 127.37,133.47 127.59,133.74 127.82,134 128.04,134.21 
		128.26,134.44 128.49,134.66 128.71,134.86 128.93,135.02 129.16,135.2 129.38,135.35 129.6,135.56 129.83,135.71 130.05,135.84 
		130.27,136.03 130.49,136.28 130.72,136.52 130.94,136.78 131.16,137.03 131.39,137.25 131.61,137.51 131.83,137.78 132.06,137.94 
		132.28,138.08 132.5,138.26 132.73,138.47 132.95,138.6 133.17,138.71 133.4,138.84 133.62,138.97 133.84,139.05 134.07,139.15 
		134.29,139.16 134.51,139.21 134.74,139.35 134.96,139.48 135.18,139.61 135.41,139.72 135.63,139.79 135.85,139.93 136.08,140.03 
		136.3,140.15 136.52,140.23 136.74,140.3 136.97,140.35 137.19,140.41 137.41,140.47 137.64,140.58 137.86,140.72 138.08,140.81 
		138.31,140.91 138.53,141.08 138.75,141.21 138.98,141.24 139.2,141.25 139.42,141.27 139.65,141.27 139.87,141.26 140.09,141.21 
		140.32,141.15 140.54,141.11 140.76,141.03 140.99,140.96 141.21,140.83 141.43,140.61 141.66,140.31 141.88,139.92 142.1,139.49 
		142.33,139.04 142.55,138.6 142.77,138.22 142.99,137.98 143.22,137.95 143.44,138.03 143.66,138.05 143.89,137.97 144.11,137.93 
		144.33,137.85 144.56,137.63 144.78,137.26 145,136.69 145.23,135.64 145.45,133.94 145.67,132.05 145.9,130.6 146.12,129.96 
		146.34,130.17 146.57,131.01 146.79,132.22 147.01,133.47 147.24,134.59 147.46,135.6 147.68,136.44 147.91,137.07 148.13,137.52 
		148.35,137.82 148.58,137.99 148.8,138.01 149.02,137.81 149.25,137.45 149.47,137.08 149.69,136.69 149.91,136.29 150.14,135.92 
		150.36,135.55 150.58,135.16 150.81,134.8 151.03,134.53 151.25,134.29 151.48,134.04 151.7,133.9 151.92,133.78 152.15,133.76 
		152.37,133.87 152.59,134.08 152.82,134.34 153.04,134.57 153.26,134.73 153.49,134.84 153.71,134.9 153.93,134.99 154.16,135.07 
		154.38,135.05 154.6,134.87 154.83,134.66 155.05,134.46 155.27,134.19 155.5,133.82 155.72,133.47 155.94,133.06 156.16,132.69 
		156.39,132.38 156.61,132.19 156.83,132.13 157.06,132.09 157.28,132.02 157.5,132.02 157.73,132.03 157.95,131.93 158.17,131.76 
		158.4,131.45 158.62,131.08 158.84,130.7 159.07,130.22 159.29,129.68 159.51,129.07 159.74,128.37 159.96,127.66 160.18,126.95 
		160.41,126.18 160.63,125.45 160.85,124.63 161.08,123.72 161.3,122.76 161.52,121.71 161.75,120.5 161.97,118.96 162.19,116.85 
		162.42,113.99 162.64,109.65 162.86,102.71 163.08,93.41 163.31,85.78 163.53,84.64 163.75,88.14 163.98,90.83 164.2,91 
		164.42,89.39 164.65,87.03 164.87,84.21 165.09,81.08 165.32,78.11 165.54,75.37 165.76,72.54 165.99,69.84 166.21,67.47 
		166.43,65.09 166.66,62.68 166.88,60.11 167.1,56.58 167.33,52.35 167.55,49.42 167.77,50.35 168,54.32 168.22,59.83 168.44,65.46 
		168.67,70.36 168.89,73.86 169.11,75.18 169.33,73.44 169.56,69.62 169.78,66.91 170,68.73 170.23,74.48 170.45,80.89 170.67,86.3 
		170.9,90.79 171.12,94.91 171.34,98.69 171.57,102.1 171.79,105.28 172.01,108.04 172.24,110.33 172.46,112.05 172.68,113.32 
		172.91,114.31 173.13,115.19 173.35,115.96 173.58,116.64 173.8,117.25 174.02,117.84 174.25,118.33 174.47,118.75 174.69,119.17 
		174.91,119.48 175.14,119.59 175.36,119.59 175.59,119.46 175.81,119.34 176.03,119.13 176.25,118.7 176.48,118.11 176.7,117.61 
		176.92,117.19 177.15,116.75 177.37,116.26 177.59,115.65 177.82,114.97 178.04,114.36 178.26,113.77 178.49,113.07 178.71,112.14 
		178.93,111.28 179.16,110.44 179.38,109.57 179.6,108.78 179.83,108.05 180.05,107.25 180.27,106.56 180.5,105.76 180.72,104.75 
		180.94,103.78 181.17,102.9 181.39,101.96 181.61,101.03 181.83,100.15 182.06,99.18 182.28,98.08 182.5,97.07 182.73,96.15 
		182.95,95.24 183.17,94.3 183.4,93.41 183.62,92.48 183.84,91.54 184.07,90.68 184.29,89.94 184.51,88.97 184.74,87.99 
		184.96,87.14 185.18,86.28 185.41,85.37 185.63,84.51 185.85,83.74 186.08,83.08 186.3,82.28 186.52,81.53 186.75,80.79 
		186.97,80.15 187.19,79.3 187.42,78.25 187.64,77.53 187.86,77 188.08,76.17 188.31,75.63 188.53,75.24 188.75,74.87 188.98,74.44 
		189.2,73.97 189.42,73.28 189.65,72.75 189.87,72.67 190.09,72.59 190.32,72.15 190.54,71.88 190.76,71.52 190.99,71.22 
		191.21,70.84 191.43,70.47 191.66,70.2 191.88,70.3 192.1,70.28 192.33,70.08 192.55,69.93 192.77,69.81 193,69.64 193.22,69.62 
		193.44,69.56 193.67,69.66 193.89,69.85 194.11,70.02 194.34,69.9 194.56,69.87 194.78,69.94 195,70.13 195.23,70.28 195.45,70.6 
		195.67,70.87 195.9,71.07 196.12,71.24 196.34,71.52 196.57,71.64 196.79,71.89 197.01,72.12 197.24,72.52 197.46,73.16 
		197.68,73.69 197.91,73.9 198.13,74.32 198.35,74.69 198.58,75.13 198.8,75.48 199.02,75.93 199.25,76.49 199.47,77.04 
		199.69,77.41 199.92,78.19 200.14,78.8 200.36,79.1 200.59,79.52 200.81,80.26 201.03,80.7 201.26,81.24 201.48,82.03 201.7,82.67 
		201.92,83.12 202.15,83.57 202.37,84.05 202.59,84.69 202.82,85.33 203.04,86.03 203.26,86.62 203.49,87.41 203.71,88.24 
		203.93,89.18 204.16,90.27 204.38,91.21 204.6,91.94 204.83,92.85 205.05,93.88 205.27,94.96 205.5,95.87 205.72,96.84 
		205.94,98.06 206.17,99.47 206.39,100.96 206.61,102.59 206.84,104.53 207.06,106.78 207.28,108.76 207.51,110.16 207.73,111.05 
		207.95,112.98 208.17,116.41 208.4,120.33 208.62,123.14 208.84,125 209.07,126.21 209.29,126.89 209.51,127.43 209.74,128.17 
		209.96,129.24 210.18,130.8 210.41,132.43 210.63,134.33 210.85,136.42 211.08,138.45 211.3,140.22 211.52,141.55 211.75,142.36 
		211.97,142.87 212.19,144.2 212.42,147.82 212.64,153.05 212.86,157.71 213.09,161.39 213.31,164.31 213.53,166.32 213.76,167.95 
		213.98,169.19 214.2,170.03 214.42,170.66 214.65,171.11 214.87,171.42 215.09,171.81 215.32,172.06 215.54,172.24 215.76,172.3 
		215.99,172.41 216.21,172.55 216.43,172.69 216.66,172.87 216.88,173.03 217.1,173.21 217.33,173.41 217.55,173.62 217.77,173.8 
		218,173.95 218.22,174.15 218.44,174.28 218.67,174.34 218.89,174.36 219.11,174.41 219.34,174.5 219.56,174.57 219.78,174.51 
		220.01,174.49 220.23,174.63 220.45,174.81 220.68,174.87 220.9,174.87 221.12,174.96 221.34,175.1 221.57,175.13 221.79,175.05 
		222.01,175.04 222.24,175.1 222.46,175.08 222.68,174.92 222.91,174.87 223.13,174.82 223.35,174.71 223.58,174.68 223.8,174.63 
		224.02,174.64 224.25,174.67 224.47,174.5 224.69,174.37 224.92,174.39 225.14,174.39 225.36,174.31 225.59,174.25 225.81,174.19 
		226.03,174.09 226.26,174.02 226.48,174 226.7,173.96 226.93,173.91 227.15,173.76 227.37,173.65 227.6,173.62 227.82,173.56 
		228.04,173.45 228.26,173.43 228.49,173.44 228.71,173.48 228.93,173.57 229.16,173.61 229.38,173.62 229.6,173.69 229.83,173.83 	
		"/>
</g>
<text transform="matrix(1 0 0 1 9.9609 8.8273)" class="st3 st4">2</text>
<text transform="matrix(1 0 0 1 13.2339 8.8273)" class="st5 st4">.</text>
<text transform="matrix(1 0 0 1 15.0522 8.8273)" class="st3 st4">2</text>
<g>
	<defs>
		<rect id="SVGID_00000098904766738747919480000003135873751465418900_" x="20.63" y="0.12" width="228.22" height="193.14"/>
	</defs>
	<clipPath id="SVGID_00000057115851950987682930000002785480888145601962_">
		<use xlink:href="#SVGID_00000098904766738747919480000003135873751465418900_"  style="overflow:visible;"/>
	</clipPath>
	
		<polyline style="clip-path:url(#SVGID_00000057115851950987682930000002785480888145601962_);fill:none;stroke:#33A02C;stroke-width:0.2388;stroke-miterlimit:10;" points="
		39.64,18.08 39.87,21.45 40.09,24.17 40.31,26.64 40.54,27.79 40.76,29.55 40.98,31.71 41.21,32.81 41.43,32.35 41.65,32.73 
		41.88,34.02 42.1,36 42.32,39.35 42.55,42.9 42.77,46.12 42.99,48.59 43.22,49.62 43.44,49.61 43.66,49.45 43.89,48.59 
		44.11,47.11 44.33,44.93 44.56,42.26 44.78,39.07 45,35.34 45.23,32.67 45.45,31.48 45.67,31.24 45.9,31.01 46.12,30.36 46.34,30 
		46.56,30.01 46.79,29.05 47.01,27.92 47.23,29.34 47.46,31.95 47.68,33.53 47.9,34.25 48.13,35.02 48.35,36.08 48.57,36.93 
		48.8,37.58 49.02,38.08 49.24,38.64 49.47,39.38 49.69,40.14 49.91,40.45 50.14,40.34 50.36,40.38 50.58,40.96 50.81,41.54 
		51.03,41.34 51.25,40.66 51.48,40.56 51.7,41.29 51.92,42.1 52.15,42.84 52.37,43.37 52.59,43.54 52.81,43.48 53.04,43.98 
		53.26,44.98 53.48,45.88 53.71,46.38 53.93,46.16 54.15,44.95 54.38,42.75 54.6,40.19 54.82,39.86 55.05,41.41 55.27,42.35 
		55.49,42.03 55.72,40.79 55.94,38.76 56.16,37.7 56.39,38.67 56.61,39.27 56.83,38.8 57.06,37.92 57.28,37.1 57.5,36.59 
		57.73,35.98 57.95,35.5 58.17,34.57 58.4,33.34 58.62,31.99 58.84,30.56 59.07,29.76 59.29,29.29 59.51,28.65 59.73,28.31 
		59.96,28.15 60.18,28.34 60.4,28.46 60.63,28.02 60.85,27.28 61.07,26.84 61.3,26.8 61.52,26.37 61.74,25.61 61.97,24.9 
		62.19,24.85 62.41,25.16 62.64,25.19 62.86,24.9 63.08,24.99 63.31,25.78 63.53,26.46 63.75,26.95 63.98,27.24 64.2,27.43 
		64.42,27.66 64.65,27.51 64.87,26.86 65.09,25.84 65.32,24.61 65.54,23.68 65.76,22.62 65.98,22.76 66.21,25.52 66.43,29.21 
		66.65,32.16 66.88,34.5 67.1,36.47 67.32,37.65 67.55,37.71 67.77,37 67.99,36.08 68.22,34.9 68.44,33.98 68.66,33.29 68.89,32.27 
		69.11,31.41 69.33,30.84 69.56,30.23 69.78,29.48 70,29 70.23,28.74 70.45,28.64 70.67,28.53 70.9,28.01 71.12,27.82 71.34,27.77 
		71.56,26.73 71.79,24.5 72.01,21.85 72.23,20.38 72.46,20.73 72.68,22.07 72.9,23.95 73.13,26.15 73.35,28.75 73.57,31.09 
		73.8,32.5 74.02,33.92 74.24,35.14 74.47,35.51 74.69,35.73 74.91,36.28 75.14,36.74 75.36,37.26 75.58,38.36 75.81,39.35 
		76.03,39.88 76.25,39.91 76.48,39.27 76.7,37.41 76.92,34.74 77.15,32.96 77.37,31.53 77.59,28.26 77.82,21.84 78.04,16.22 
		78.26,19.15 78.48,27.38 78.71,34.01 78.93,37.91 79.15,40.1 79.38,40.93 79.6,41.02 79.82,41.12 80.05,40.99 80.27,40.88 
		80.49,40.84 80.72,40.61 80.94,40.17 81.16,39.21 81.39,38.05 81.61,38.15 81.83,37.83 82.06,34.98 82.28,30.64 82.5,27.97 
		82.73,27.71 82.95,29.87 83.17,34.82 83.4,41.77 83.62,49.22 83.84,55.24 84.07,59.16 84.29,61.95 84.51,64.13 84.73,65.46 
		84.96,66.46 85.18,67.32 85.4,67.99 85.63,68.4 85.85,68.63 86.07,69.02 86.3,69.57 86.52,69.76 86.74,69.45 86.97,69.1 
		87.19,68.96 87.41,68.87 87.64,68.66 87.86,68.27 88.08,68.14 88.31,68.13 88.53,68.2 88.75,67.94 88.98,67.65 89.2,67.24 
		89.42,66.69 89.65,65.8 89.87,64.69 90.09,63.43 90.32,61.96 90.54,60.14 90.76,58.06 90.99,55.75 91.21,53.19 91.43,50.22 
		91.65,47.03 91.88,43.02 92.1,38.44 92.32,34.01 92.55,30.06 92.77,27.44 92.99,26.19 93.22,25.06 93.44,24.38 93.66,24.26 
		93.89,24.61 94.11,24.93 94.33,25.21 94.56,25.82 94.78,26.86 95,28.19 95.23,29.71 95.45,31.43 95.67,33.92 95.9,37.41 
		96.12,41.1 96.34,45.22 96.57,49.58 96.79,53.1 97.01,55.04 97.24,55.77 97.46,55.75 97.68,55.17 97.9,53.6 98.13,51.86 
		98.35,50.65 98.57,49.9 98.8,49.38 99.02,49.11 99.24,49.38 99.47,50.1 99.69,51.03 99.91,52.37 100.14,54.86 100.36,58.97 
		100.58,63.89 100.81,69.14 101.03,73.97 101.25,77.87 101.48,81.35 101.7,84.46 101.92,87.14 102.15,89.47 102.37,91.34 
		102.59,92.95 102.82,94.39 103.04,95.65 103.26,96.77 103.49,97.77 103.71,98.64 103.93,99.45 104.16,100.25 104.38,100.86 
		104.6,101.41 104.82,102.03 105.05,102.69 105.27,103.2 105.49,103.66 105.72,104.13 105.94,104.54 106.16,104.91 106.39,105.35 
		106.61,105.79 106.83,106.13 107.06,106.46 107.28,106.8 107.5,107.13 107.73,107.43 107.95,107.64 108.17,107.86 108.4,108.09 
		108.62,108.31 108.84,108.51 109.07,108.76 109.29,109.09 109.51,109.41 109.74,109.68 109.96,109.98 110.18,110.29 110.41,110.58 
		110.63,110.78 110.85,111 111.08,111.2 111.3,111.36 111.52,111.56 111.74,111.8 111.97,111.9 112.19,112.07 112.41,112.33 
		112.64,112.55 112.86,112.77 113.08,113.01 113.31,113.22 113.53,113.45 113.75,113.67 113.98,113.88 114.2,114.09 114.42,114.3 
		114.65,114.5 114.87,114.68 115.09,114.85 115.32,115.09 115.54,115.39 115.76,115.68 115.99,115.96 116.21,116.32 116.43,116.64 
		116.66,116.93 116.88,117.24 117.1,117.58 117.33,117.87 117.55,118.14 117.77,118.41 117.99,118.66 118.22,118.84 118.44,119.01 
		118.66,119.13 118.89,119.25 119.11,119.4 119.33,119.56 119.56,119.62 119.78,119.65 120,119.68 120.23,119.73 120.45,119.73 
		120.67,119.78 120.9,119.8 121.12,119.74 121.34,119.7 121.57,119.72 121.79,119.81 122.01,119.98 122.24,120.21 122.46,120.45 
		122.68,120.71 122.91,121.04 123.13,121.36 123.35,121.74 123.57,122.15 123.8,122.55 124.02,122.96 124.24,123.42 124.47,123.87 
		124.69,124.23 124.91,124.54 125.14,124.86 125.36,125.15 125.58,125.49 125.81,125.83 126.03,126.14 126.25,126.43 126.48,126.68 
		126.7,126.93 126.92,127.18 127.15,127.44 127.37,127.71 127.59,127.96 127.82,128.21 128.04,128.41 128.26,128.58 128.49,128.76 
		128.71,128.95 128.93,129.09 129.16,129.33 129.38,129.58 129.6,129.8 129.83,130 130.05,130.2 130.27,130.45 130.49,130.76 
		130.72,131.04 130.94,131.36 131.16,131.63 131.39,131.85 131.61,132.05 131.83,132.33 132.06,132.65 132.28,132.96 132.5,133.24 
		132.73,133.56 132.95,133.81 133.17,133.98 133.4,134.09 133.62,134.19 133.84,134.3 134.07,134.37 134.29,134.34 134.51,134.51 
		134.74,134.86 134.96,135.12 135.18,135.2 135.41,135.18 135.63,135.18 135.85,135.24 136.08,135.28 136.3,135.35 136.52,135.42 
		136.74,135.49 136.97,135.57 137.19,135.66 137.41,135.8 137.64,136.01 137.86,136.13 138.08,136.25 138.31,136.47 138.53,136.65 
		138.75,136.8 138.98,136.89 139.2,137.05 139.42,137.24 139.65,137.32 139.87,137.32 140.09,137.32 140.32,137.37 140.54,137.38 
		140.76,137.35 140.99,137.37 141.21,137.34 141.43,137.18 141.66,137 141.88,136.81 142.1,136.53 142.33,136.25 142.55,136.07 
		142.77,136.01 142.99,136.06 143.22,136.12 143.44,136.22 143.66,136.37 143.89,136.5 144.11,136.65 144.33,136.67 144.56,136.52 
		144.78,136.2 145,135.63 145.23,134.67 145.45,133.25 145.67,131.59 145.9,130.19 146.12,129.52 146.34,129.64 146.57,130.38 
		146.79,131.35 147.01,132.27 147.24,133.08 147.46,133.76 147.68,134.35 147.91,134.88 148.13,135.41 148.35,135.87 148.58,136.1 
		148.8,136.14 149.02,136.02 149.25,135.71 149.47,135.39 149.69,135.11 149.91,134.84 150.14,134.59 150.36,134.41 150.58,134.24 
		150.81,134.1 151.03,133.96 151.25,133.7 151.48,133.42 151.7,133.22 151.92,133.05 152.15,133.03 152.37,133.13 152.59,133.28 
		152.82,133.38 153.04,133.53 153.26,133.64 153.49,133.68 153.71,133.7 153.93,133.81 154.16,133.93 154.38,133.93 154.6,133.86 
		154.83,133.67 155.05,133.34 155.27,132.81 155.5,132.08 155.72,131.33 155.94,130.77 156.16,130.74 156.39,130.95 156.61,131.17 
		156.83,131.47 157.06,131.75 157.28,131.91 157.5,131.97 157.73,132 157.95,132.01 158.17,131.86 158.4,131.58 158.62,131.29 
		158.84,130.98 159.07,130.53 159.29,129.96 159.51,129.21 159.74,128.34 159.96,127.37 160.18,126.51 160.41,125.62 160.63,124.49 
		160.85,123.21 161.08,121.88 161.3,120.47 161.52,118.75 161.75,116.18 161.97,112.29 162.19,106.16 162.42,98.85 162.64,94.19 
		162.86,93.36 163.08,92.97 163.31,91.37 163.53,90.1 163.75,88.31 163.98,83.97 164.2,78.35 164.42,74.19 164.65,71.44 
		164.87,69.27 165.09,68.34 165.32,67.9 165.54,67.07 165.76,65.63 165.99,63.2 166.21,59.82 166.43,56.53 166.66,53.65 
		166.88,50.63 167.1,47.41 167.33,44.9 167.55,44.17 167.77,45.36 168,48.23 168.22,52.37 168.44,56.1 168.67,57.39 168.89,56.28 
		169.11,55.21 169.33,54.75 169.56,54.33 169.78,54.37 170,57.06 170.23,62.97 170.45,70.24 170.67,77.15 170.9,83.59 171.12,89.34 
		171.34,94.48 171.57,98.97 171.79,102.84 172.01,106.21 172.24,109.15 172.46,111.38 172.68,112.99 172.91,114.27 173.13,115.4 
		173.35,116.33 173.58,117.13 173.8,117.72 174.02,118.33 174.25,119.01 174.47,119.52 174.69,119.95 174.91,120.24 175.14,120.4 
		175.36,120.52 175.59,120.49 175.81,120.36 176.03,120.16 176.25,119.86 176.48,119.37 176.7,119 176.92,118.73 177.15,118.36 
		177.37,117.9 177.59,117.4 177.82,116.78 178.04,116.22 178.26,115.66 178.49,115.04 178.71,114.29 178.93,113.58 179.16,112.93 
		179.38,112.25 179.6,111.45 179.83,110.64 180.05,109.89 180.27,109.18 180.5,108.45 180.72,107.76 180.94,107.07 181.17,106.36 
		181.39,105.66 181.61,104.98 181.83,104.17 182.06,103.29 182.28,102.37 182.5,101.6 182.73,100.76 182.95,99.87 183.17,98.98 
		183.4,98.23 183.62,97.46 183.84,96.64 184.07,95.94 184.29,95.35 184.51,94.75 184.74,94.23 184.96,93.71 185.18,93.06 
		185.41,92.32 185.63,91.71 185.85,91.03 186.08,90.31 186.3,89.61 186.52,88.99 186.75,88.11 186.97,87.49 187.19,87.05 
		187.42,86.32 187.64,85.5 187.86,84.86 188.08,84.4 188.31,84.06 188.53,83.45 188.75,82.74 188.98,82.26 189.2,82.14 
		189.42,81.77 189.65,81.31 189.87,80.98 190.09,80.86 190.32,80.82 190.54,80.74 190.76,80.42 190.99,80.11 191.21,79.82 
		191.43,79.61 191.66,79.27 191.88,79.1 192.1,79.12 192.33,78.99 192.55,78.89 192.77,79 193,78.91 193.22,78.67 193.44,78.62 
		193.67,78.77 193.89,78.9 194.11,79.02 194.34,78.94 194.56,79.01 194.78,79.25 195,79.39 195.23,79.33 195.45,79.59 195.67,79.85 
		195.9,80.14 196.12,80.24 196.34,80.37 196.57,80.6 196.79,80.87 197.01,81.02 197.24,81.36 197.46,81.74 197.68,82.14 
		197.91,82.38 198.13,82.72 198.35,83.26 198.58,83.74 198.8,83.79 199.02,84.01 199.25,84.39 199.47,84.82 199.69,85.33 
		199.92,85.79 200.14,86.08 200.36,86.55 200.59,86.98 200.81,87.28 201.03,87.82 201.26,88.54 201.48,88.97 201.7,89.41 
		201.92,89.96 202.15,90.47 202.37,90.87 202.59,91.44 202.82,91.94 203.04,92.42 203.26,93.08 203.49,93.82 203.71,94.33 
		203.93,94.89 204.16,95.53 204.38,96.24 204.6,97 204.83,97.82 205.05,98.54 205.27,99.38 205.5,100.02 205.72,100.78 
		205.94,101.96 206.17,103.09 206.39,104.11 206.61,105.49 206.84,107.01 207.06,108.62 207.28,110.04 207.51,110.78 207.73,110.67 
		207.95,111.93 208.17,115.48 208.4,119.52 208.62,122.43 208.84,124.41 209.07,125.59 209.29,126.2 209.51,126.62 209.74,127.25 
		209.96,128.44 210.18,129.92 210.41,131.43 210.63,133.12 210.85,134.79 211.08,136.36 211.3,137.55 211.52,138.14 211.75,137.9 
		211.97,137.05 212.19,137.33 212.42,141.25 212.64,148.03 212.86,154.51 213.09,159.8 213.31,163.97 213.53,166.88 213.76,169.1 
		213.98,170.7 214.2,171.91 214.42,172.87 214.65,173.35 214.87,173.73 215.09,174.22 215.32,174.6 215.54,174.75 215.76,174.72 
		215.99,174.86 216.21,175.03 216.43,175.22 216.66,175.36 216.88,175.46 217.1,175.56 217.33,175.65 217.55,175.74 217.77,175.78 
		218,175.89 218.22,176.06 218.44,176.19 218.67,176.24 218.89,176.23 219.11,176.28 219.34,176.43 219.56,176.5 219.78,176.46 
		220.01,176.47 220.23,176.65 220.45,176.82 220.68,176.77 220.9,176.68 221.12,176.85 221.34,177.17 221.57,177.04 221.79,176.88 
		222.01,177 222.24,177.08 222.46,177 222.68,176.82 222.91,176.76 223.13,176.75 223.35,176.76 223.58,176.75 223.8,176.7 
		224.02,176.76 224.25,176.85 224.47,176.74 224.69,176.59 224.92,176.57 225.14,176.59 225.36,176.51 225.59,176.39 225.81,176.33 
		226.03,176.32 226.26,176.3 226.48,176.27 226.7,176.27 226.93,176.26 227.15,176.17 227.37,176.14 227.6,176.14 227.82,176.07 
		228.04,176 228.26,175.92 228.49,175.84 228.71,175.89 228.93,176 229.16,176.09 229.38,176.13 229.6,176.21 229.83,176.28 	"/>
</g>
<text transform="matrix(1 0 0 1 104.7852 211.1022)"><tspan x="0" y="0" class="st3 st4">W</tspan><tspan x="5" y="0" class="st3 st4">a</tspan><tspan x="7.97" y="0" class="st3 st4">v</tspan><tspan x="10.94" y="0" class="st3 st4">e</tspan><tspan x="14.22" y="0" class="st3 st4">n</tspan><tspan x="17.68" y="0" class="st3 st4">u</tspan><tspan x="21.29" y="0" class="st3 st4">m</tspan><tspan x="26.57" y="0" class="st3 st4">b</tspan><tspan x="30.48" y="0" class="st3 st4">er</tspan></text>
<text transform="matrix(1 0 0 1 146.8027 211.1022)" class="st3 st4">cm</text>
<text transform="matrix(1 0 0 1 155.167 208.7268)" class="st8 st9">−</text>
<text transform="matrix(1 0 0 1 159.1182 208.7268)" class="st10 st9">1</text>
<text transform="matrix(-6.123234e-17 -1 1 -6.123234e-17 5.4785 113.3562)" class="st3 st4">Absorbance</text>
<rect x="218.83" y="4.1" class="st11" width="25.33" height="18.08"/>
<rect x="218.83" y="4.1" class="st2" width="25.33" height="18.08"/>
<polyline class="st12" points="220.74,9.22 225.84,9.22 230.95,9.22 "/>
<text transform="matrix(1 0 0 1 232.2607 10.9685)" class="st3 st4">PE</text>
<polyline class="st13" points="220.74,17.07 225.84,17.07 230.95,17.07 "/>
<text transform="matrix(1 0 0 1 232.2607 18.8142)" class="st3 st4">PP</text>
</svg>
