<?xml version="1.0" encoding="utf-8"?>
<!-- Generator: Adobe Illustrator 26.0.3, SVG Export Plug-In . SVG Version: 6.00 Build 0)  -->
<svg version="1.1" id="Layer_1" xmlns="http://www.w3.org/2000/svg" xmlns:xlink="http://www.w3.org/1999/xlink" x="0px" y="0px"
	 viewBox="0 0 595.28 841.89" style="enable-background:new 0 0 595.28 841.89;" xml:space="preserve">
<style type="text/css">
	.st0{fill:none;stroke:#D9D9D9;stroke-width:0.2388;stroke-miterlimit:10;stroke-dasharray:1.7934,1.7934;}
	.st1{fill:none;stroke:#808080;stroke-width:0.1194;stroke-miterlimit:10;}
	.st2{fill:none;stroke:#000000;stroke-width:0.2388;stroke-miterlimit:10;}
	.st3{font-family:'CMR10';}
	.st4{font-size:6.5454px;}
	.st5{font-family:'CMMI10';}
	
		.st6{clip-path:url(#SVGID_00000047771035938729313450000016623152828455119247_);fill:none;stroke:#6A3D9A;stroke-width:0.2388;stroke-miterlimit:10;}
	
		.st7{clip-path:url(#SVGID_00000029734951541615232130000009212819020355247537_);fill:none;stroke:#33A02C;stroke-width:0.2388;stroke-miterlimit:10;}
	.st8{font-family:'CMSY8';}
	.st9{font-size:4.782px;}
	.st10{font-family:'CMR8';}
	.st11{fill:#FFFFFF;}
	.st12{fill:none;stroke:#6A3D9A;stroke-width:0.2388;stroke-miterlimit:10;}
	.st13{fill:none;stroke:#33A02C;stroke-width:0.2388;stroke-miterlimit:10;}
</style>
<path class="st0" d="M375.27,328.75V135.61 M346.33,328.75V135.61 M317.4,328.75V135.61 M288.46,328.75V135.61 M259.53,328.75
	V135.61 M230.59,328.75V135.61 M201.65,328.75V135.61 M172.72,328.75V135.61"/>
<path class="st0" d="M166.06,142.2h228.22 M166.06,157.16h228.22 M166.06,172.12h228.22 M166.06,187.08h228.22 M166.06,202.04
	h228.22 M166.06,217h228.22 M166.06,231.96h228.22 M166.06,246.92h228.22 M166.06,261.88h228.22 M166.06,276.84h228.22
	 M166.06,291.8h228.22 M166.06,306.76h228.22 M166.06,321.71h228.22"/>
<path class="st1" d="M375.27,135.61v2.55 M346.33,135.61v2.55 M317.4,135.61v2.55 M288.46,135.61v2.55 M259.53,135.61v2.55
	 M230.59,135.61v2.55 M201.65,135.61v2.55 M172.72,135.61v2.55 M375.27,328.75v-2.55 M346.33,328.75v-2.55 M317.4,328.75v-2.55
	 M288.46,328.75v-2.55 M259.53,328.75v-2.55 M230.59,328.75v-2.55 M201.65,328.75v-2.55 M172.72,328.75v-2.55"/>
<path class="st1" d="M394.28,142.2h-2.55 M394.28,157.16h-2.55 M394.28,172.12h-2.55 M394.28,187.08h-2.55 M394.28,202.04h-2.55
	 M394.28,217h-2.55 M394.28,231.96h-2.55 M394.28,246.92h-2.55 M394.28,261.88h-2.55 M394.28,276.84h-2.55 M394.28,291.8h-2.55
	 M394.28,306.76h-2.55 M394.28,321.71h-2.55 M166.06,142.2h2.55 M166.06,157.16h2.55 M166.06,172.12h2.55 M166.06,187.08h2.55
	 M166.06,202.04h2.55 M166.06,217h2.55 M166.06,231.96h2.55 M166.06,246.92h2.55 M166.06,261.88h2.55 M166.06,276.84h2.55
	 M166.06,291.8h2.55 M166.06,306.76h2.55 M166.06,321.71h2.55"/>
<rect x="166.06" y="135.61" class="st2" width="228.22" height="193.14"/>
<text transform="matrix(1 0 0 1 167.8096 335.2684)" class="st3 st4">500</text>
<text transform="matrix(1 0 0 1 194.1992 335.2684)" class="st3 st4">1</text>
<text transform="matrix(1 0 0 1 197.4722 335.2684)" class="st5 st4">,</text>
<text transform="matrix(1 0 0 1 199.2905 335.2684)" class="st3 st4">000</text>
<text transform="matrix(1 0 0 1 223.1357 335.2684)" class="st3 st4">1</text>
<text transform="matrix(1 0 0 1 226.4082 335.2684)" class="st5 st4">,</text>
<text transform="matrix(1 0 0 1 228.2266 335.2684)" class="st3 st4">500</text>
<text transform="matrix(1 0 0 1 252.0708 335.2684)" class="st3 st4">2</text>
<text transform="matrix(1 0 0 1 255.3433 335.2684)" class="st5 st4">,</text>
<text transform="matrix(1 0 0 1 257.1616 335.2684)" class="st3 st4">000</text>
<text transform="matrix(1 0 0 1 281.0063 335.2684)" class="st3 st4">2</text>
<text transform="matrix(1 0 0 1 284.2788 335.2684)" class="st5 st4">,</text>
<text transform="matrix(1 0 0 1 286.0972 335.2684)" class="st3 st4">500</text>
<text transform="matrix(1 0 0 1 309.9414 335.2684)" class="st3 st4">3</text>
<text transform="matrix(1 0 0 1 313.2139 335.2684)" class="st5 st4">,</text>
<text transform="matrix(1 0 0 1 315.0322 335.2684)" class="st3 st4">000</text>
<text transform="matrix(1 0 0 1 338.877 335.2684)" class="st3 st4">3</text>
<text transform="matrix(1 0 0 1 342.1494 335.2684)" class="st5 st4">,</text>
<text transform="matrix(1 0 0 1 343.9678 335.2684)" class="st3 st4">500</text>
<text transform="matrix(1 0 0 1 367.8115 335.2684)" class="st3 st4">4</text>
<text transform="matrix(1 0 0 1 371.085 335.2684)" class="st5 st4">,</text>
<text transform="matrix(1 0 0 1 372.9023 335.2684)" class="st3 st4">000</text>
<text transform="matrix(1 0 0 1 160.4854 323.8231)" class="st3 st4">1</text>
<text transform="matrix(1 0 0 1 155.3945 308.8636)" class="st3 st4">1</text>
<text transform="matrix(1 0 0 1 158.667 308.8636)" class="st5 st4">.</text>
<text transform="matrix(1 0 0 1 160.4854 308.8636)" class="st3 st4">1</text>
<text transform="matrix(1 0 0 1 155.3945 293.9047)" class="st3 st4">1</text>
<text transform="matrix(1 0 0 1 158.667 293.9047)" class="st5 st4">.</text>
<text transform="matrix(1 0 0 1 160.4854 293.9047)" class="st3 st4">2</text>
<text transform="matrix(1 0 0 1 155.3945 278.9452)" class="st3 st4">1</text>
<text transform="matrix(1 0 0 1 158.667 278.9452)" class="st5 st4">.</text>
<text transform="matrix(1 0 0 1 160.4854 278.9452)" class="st3 st4">3</text>
<text transform="matrix(1 0 0 1 155.3945 263.9862)" class="st3 st4">1</text>
<text transform="matrix(1 0 0 1 158.667 263.9862)" class="st5 st4">.</text>
<text transform="matrix(1 0 0 1 160.4854 263.9862)" class="st3 st4">4</text>
<text transform="matrix(1 0 0 1 155.3945 249.0267)" class="st3 st4">1</text>
<text transform="matrix(1 0 0 1 158.667 249.0267)" class="st5 st4">.</text>
<text transform="matrix(1 0 0 1 160.4854 249.0267)" class="st3 st4">5</text>
<text transform="matrix(1 0 0 1 155.3945 234.0677)" class="st3 st4">1</text>
<text transform="matrix(1 0 0 1 158.667 234.0677)" class="st5 st4">.</text>
<text transform="matrix(1 0 0 1 160.4854 234.0677)" class="st3 st4">6</text>
<text transform="matrix(1 0 0 1 155.3945 219.1083)" class="st3 st4">1</text>
<text transform="matrix(1 0 0 1 158.667 219.1083)" class="st5 st4">.</text>
<text transform="matrix(1 0 0 1 160.4854 219.1083)" class="st3 st4">7</text>
<text transform="matrix(1 0 0 1 155.3945 204.1493)" class="st3 st4">1</text>
<text transform="matrix(1 0 0 1 158.667 204.1493)" class="st5 st4">.</text>
<text transform="matrix(1 0 0 1 160.4854 204.1493)" class="st3 st4">8</text>
<text transform="matrix(1 0 0 1 155.3945 189.1898)" class="st3 st4">1</text>
<text transform="matrix(1 0 0 1 158.667 189.1898)" class="st5 st4">.</text>
<text transform="matrix(1 0 0 1 160.4854 189.1898)" class="st3 st4">9</text>
<text transform="matrix(1 0 0 1 160.4854 174.2308)" class="st3 st4">2</text>
<text transform="matrix(1 0 0 1 155.3945 159.2714)" class="st3 st4">2</text>
<text transform="matrix(1 0 0 1 158.667 159.2714)" class="st5 st4">.</text>
<text transform="matrix(1 0 0 1 160.4854 159.2714)" class="st3 st4">1</text>
<g>
	<defs>
		<rect id="SVGID_1_" x="166.06" y="135.61" width="228.22" height="193.14"/>
	</defs>
	<clipPath id="SVGID_00000174596950282477774170000010870806727999811235_">
		<use xlink:href="#SVGID_1_"  style="overflow:visible;"/>
	</clipPath>
	
		<polyline style="clip-path:url(#SVGID_00000174596950282477774170000010870806727999811235_);fill:none;stroke:#6A3D9A;stroke-width:0.2388;stroke-miterlimit:10;" points="
		185.08,161.43 185.3,166.33 185.52,170.76 185.75,174.17 185.97,175.21 186.19,176.26 186.42,177.59 186.64,177.9 186.86,178.31 
		187.09,179.63 187.31,181.53 187.53,184.41 187.76,188.13 187.98,192.55 188.2,196.23 188.43,198.76 188.65,199.84 188.87,199.13 
		189.1,197.22 189.32,193.69 189.54,189.65 189.77,185.76 189.99,180.86 190.21,175.48 190.44,170.46 190.66,166.55 190.88,163.85 
		191.1,161.6 191.33,160.06 191.55,159.53 191.77,160.81 192,162.87 192.22,164.66 192.44,166.79 192.67,168.96 192.89,170.97 
		193.11,172.99 193.34,174.56 193.56,175.75 193.78,176.88 194.01,177.99 194.23,179.3 194.45,180.6 194.68,181.59 194.9,182.35 
		195.12,183.36 195.35,184.41 195.57,185.25 195.79,186.2 196.02,187.05 196.24,187.52 196.46,187.43 196.69,187.09 196.91,187.19 
		197.13,188.16 197.35,189.47 197.58,190.63 197.8,191.44 198.02,191.91 198.25,192.19 198.47,192.39 198.69,193.03 198.92,194.14 
		199.14,194.54 199.36,194.09 199.59,193.29 199.81,192.33 200.03,191.16 200.26,190.21 200.48,189.58 200.7,188.77 200.93,187.6 
		201.15,186.58 201.37,185.95 201.6,185.42 201.82,184.94 202.04,184.29 202.27,183.23 202.49,181.68 202.71,179.81 202.93,178.03 
		203.16,176.83 203.38,176.05 203.61,174.96 203.83,173.56 204.05,171.99 204.27,170.38 204.5,169.06 204.72,168.01 204.94,167.1 
		205.17,166.14 205.39,165.34 205.61,164.94 205.84,164.74 206.06,164.6 206.28,163.9 206.51,162.51 206.73,161.75 206.95,161.57 
		207.18,160.93 207.4,160.05 207.62,159.35 207.85,158.99 208.07,159.34 208.29,159.89 208.52,160.28 208.74,161.09 208.96,161.94 
		209.19,162.56 209.41,163.05 209.63,164.3 209.85,165.9 210.08,167.1 210.3,167.33 210.52,167.42 210.75,167.89 210.97,168.6 
		211.19,169.73 211.42,170.97 211.64,172.43 211.86,174.27 212.09,176.29 212.31,178.67 212.53,181.12 212.76,182.56 212.98,182.48 
		213.2,181.6 213.43,180.25 213.65,178.89 213.87,177.98 214.1,177.46 214.32,177.27 214.54,176.9 214.77,176.15 214.99,175.55 
		215.21,175.09 215.44,174.62 215.66,174.23 215.88,173.73 216.1,172.77 216.33,170.78 216.55,167.13 216.77,162.96 217,161.55 
		217.22,162.75 217.44,164.1 217.67,165.44 217.89,167.25 218.11,169.43 218.34,171.95 218.56,174.43 218.78,176.68 219.01,178.55 
		219.23,180.03 219.45,181.07 219.68,181.73 219.9,182.03 220.12,182.22 220.35,182.91 220.57,183.61 220.79,184.2 221.02,184.99 
		221.24,185.74 221.46,186.41 221.69,187.07 221.91,187.51 222.13,187.57 222.36,186.89 222.58,185.33 222.8,183.73 223.02,182.71 
		223.25,182.23 223.47,182.3 223.69,182.89 223.92,183.9 224.14,185.09 224.36,185.89 224.59,185.89 224.81,185.29 225.03,184.45 
		225.26,183.79 225.48,183.51 225.7,183.69 225.93,184.12 226.15,183.99 226.37,183.54 226.6,183.47 226.82,183.85 227.04,184.4 
		227.27,184.92 227.49,185.17 227.71,184.69 227.94,183.89 228.16,183.04 228.38,182.13 228.61,182.7 228.83,184.17 229.05,186.92 
		229.27,192.72 229.5,197.4 229.72,200.07 229.94,202.1 230.17,203.83 230.39,205.43 230.61,206.87 230.84,208.03 231.06,209.19 
		231.28,209.97 231.51,210.65 231.73,211.41 231.95,211.86 232.18,212.03 232.4,212.04 232.62,211.99 232.85,211.9 233.07,211.85 
		233.29,211.66 233.52,211.57 233.74,211.49 233.96,211.43 234.19,211.01 234.41,210.5 234.63,209.8 234.86,208.88 235.08,207.62 
		235.3,206.2 235.53,204.62 235.75,202.71 235.97,200.27 236.19,197.56 236.42,194.47 236.64,191.38 236.86,187.96 237.09,184.18 
		237.31,179.8 237.53,175.22 237.76,170.69 237.98,166.8 238.2,164.09 238.43,162.39 238.65,161.28 238.87,161.05 239.1,160.89 
		239.32,160.8 239.54,160.84 239.77,161.14 239.99,161.82 240.21,162.65 240.44,163.9 240.66,165.64 240.88,167.54 241.11,170.12 
		241.33,173.94 241.55,178.33 241.78,183.33 242,189.15 242.22,194.41 242.44,197.46 242.67,198.75 242.89,198.72 243.11,197.76 
		243.34,195.7 243.56,193.36 243.78,191.25 244.01,189.56 244.23,188.22 244.45,187.69 244.68,187.65 244.9,187.88 245.12,188.6 
		245.35,189.99 245.57,192.66 245.79,197.35 246.02,203.48 246.24,210.01 246.46,215.88 246.69,220.39 246.91,224.19 247.13,227.44 
		247.36,230.12 247.58,232.34 247.8,234.05 248.03,235.55 248.25,236.94 248.47,238.21 248.7,239.48 248.92,240.63 249.14,241.75 
		249.36,242.93 249.59,244.02 249.81,244.9 250.03,245.63 250.26,246.31 250.48,247.04 250.7,247.76 250.93,248.3 251.15,248.76 
		251.37,249.23 251.6,249.67 251.82,250.08 252.04,250.44 252.27,250.73 252.49,251.01 252.71,251.36 252.94,251.63 253.16,251.79 
		253.38,251.96 253.61,252.15 253.83,252.28 254.05,252.4 254.28,252.5 254.5,252.62 254.72,252.86 254.95,253.13 255.17,253.35 
		255.39,253.54 255.61,253.69 255.84,253.79 256.06,253.84 256.28,253.92 256.51,254.01 256.73,254.16 256.95,254.36 257.18,254.58 
		257.4,254.79 257.62,255.03 257.85,255.31 258.07,255.61 258.29,255.87 258.52,256.12 258.74,256.39 258.96,256.65 259.19,256.87 
		259.41,257.08 259.63,257.31 259.86,257.53 260.08,257.66 260.3,257.75 260.53,257.9 260.75,258.11 260.97,258.31 261.19,258.57 
		261.42,258.83 261.64,259.09 261.86,259.35 262.09,259.55 262.31,259.7 262.53,259.93 262.76,260.18 262.98,260.41 263.2,260.64 
		263.43,260.89 263.65,261.07 263.87,261.24 264.1,261.34 264.32,261.46 264.54,261.58 264.77,261.68 264.99,261.73 265.21,261.78 
		265.44,261.76 265.66,261.74 265.88,261.67 266.11,261.56 266.33,261.47 266.55,261.45 266.78,261.41 267,261.34 267.22,261.33 
		267.45,261.46 267.67,261.56 267.89,261.68 268.11,261.93 268.34,262.21 268.56,262.54 268.78,262.99 269.01,263.48 269.23,263.91 
		269.45,264.33 269.68,264.82 269.9,265.25 270.12,265.66 270.35,265.98 270.57,266.31 270.79,266.64 271.02,266.93 271.24,267.15 
		271.46,267.43 271.69,267.69 271.91,267.92 272.13,268.18 272.36,268.47 272.58,268.7 272.8,268.96 273.03,269.23 273.25,269.48 
		273.47,269.69 273.7,269.93 273.92,270.15 274.14,270.35 274.36,270.51 274.59,270.69 274.81,270.84 275.03,271.05 275.26,271.19 
		275.48,271.32 275.7,271.52 275.93,271.76 276.15,272 276.37,272.27 276.6,272.52 276.82,272.73 277.04,272.99 277.27,273.27 
		277.49,273.43 277.71,273.57 277.94,273.74 278.16,273.96 278.38,274.09 278.61,274.19 278.83,274.33 279.05,274.45 279.28,274.54 
		279.5,274.64 279.72,274.65 279.95,274.7 280.17,274.83 280.39,274.96 280.62,275.09 280.84,275.2 281.06,275.28 281.28,275.41 
		281.51,275.52 281.73,275.63 281.95,275.72 282.18,275.78 282.4,275.83 282.62,275.9 282.85,275.96 283.07,276.07 283.29,276.21 
		283.52,276.3 283.74,276.39 283.96,276.57 284.19,276.69 284.41,276.73 284.63,276.73 284.86,276.76 285.08,276.75 285.3,276.75 
		285.53,276.69 285.75,276.64 285.97,276.59 286.2,276.52 286.42,276.45 286.64,276.32 286.87,276.09 287.09,275.8 287.31,275.41 
		287.53,274.98 287.76,274.52 287.98,274.09 288.2,273.71 288.43,273.47 288.65,273.44 288.87,273.51 289.1,273.53 289.32,273.45 
		289.54,273.41 289.77,273.33 289.99,273.12 290.21,272.75 290.44,272.17 290.66,271.13 290.88,269.43 291.11,267.54 291.33,266.09 
		291.55,265.45 291.78,265.66 292,266.49 292.22,267.71 292.45,268.95 292.67,270.07 292.89,271.09 293.12,271.93 293.34,272.55 
		293.56,273 293.79,273.31 294.01,273.48 294.23,273.49 294.45,273.3 294.68,272.94 294.9,272.57 295.12,272.18 295.35,271.78 
		295.57,271.41 295.79,271.04 296.02,270.65 296.24,270.28 296.46,270.01 296.69,269.78 296.91,269.53 297.13,269.38 297.36,269.27 
		297.58,269.25 297.8,269.36 298.03,269.57 298.25,269.83 298.47,270.05 298.7,270.21 298.92,270.33 299.14,270.39 299.37,270.47 
		299.59,270.55 299.81,270.54 300.04,270.35 300.26,270.15 300.48,269.95 300.7,269.67 300.93,269.31 301.15,268.95 301.37,268.54 
		301.6,268.17 301.82,267.86 302.04,267.68 302.27,267.61 302.49,267.57 302.71,267.5 302.94,267.5 303.16,267.52 303.38,267.42 
		303.61,267.25 303.83,266.93 304.05,266.57 304.28,266.18 304.5,265.7 304.72,265.17 304.95,264.56 305.17,263.85 305.39,263.15 
		305.62,262.43 305.84,261.67 306.06,260.94 306.29,260.12 306.51,259.2 306.73,258.24 306.96,257.2 307.18,255.98 307.4,254.44 
		307.62,252.34 307.85,249.48 308.07,245.14 308.29,238.19 308.52,228.89 308.74,221.26 308.96,220.13 309.19,223.62 309.41,226.31 
		309.63,226.48 309.86,224.88 310.08,222.51 310.3,219.69 310.53,216.57 310.75,213.6 310.97,210.86 311.2,208.02 311.42,205.33 
		311.64,202.95 311.87,200.57 312.09,198.16 312.31,195.59 312.54,192.07 312.76,187.84 312.98,184.91 313.2,185.83 313.43,189.81 
		313.65,195.32 313.87,200.94 314.1,205.84 314.32,209.35 314.54,210.67 314.77,208.92 314.99,205.11 315.21,202.39 315.44,204.22 
		315.66,209.96 315.88,216.38 316.11,221.78 316.33,226.28 316.55,230.4 316.78,234.18 317,237.58 317.22,240.77 317.45,243.53 
		317.67,245.82 317.89,247.53 318.12,248.8 318.34,249.8 318.56,250.68 318.79,251.44 319.01,252.13 319.23,252.73 319.45,253.33 
		319.68,253.81 319.9,254.23 320.12,254.66 320.35,254.97 320.57,255.08 320.79,255.07 321.02,254.95 321.24,254.82 321.46,254.62 
		321.69,254.18 321.91,253.59 322.13,253.1 322.36,252.68 322.58,252.24 322.8,251.74 323.03,251.13 323.25,250.46 323.47,249.85 
		323.7,249.26 323.92,248.55 324.14,247.62 324.37,246.77 324.59,245.92 324.81,245.06 325.04,244.27 325.26,243.54 325.48,242.73 
		325.71,242.05 325.93,241.25 326.15,240.23 326.37,239.27 326.6,238.39 326.82,237.44 327.04,236.51 327.27,235.63 327.49,234.67 
		327.71,233.57 327.94,232.56 328.16,231.64 328.38,230.72 328.61,229.79 328.83,228.9 329.05,227.96 329.28,227.03 329.5,226.17 
		329.72,225.42 329.95,224.45 330.17,223.48 330.39,222.62 330.62,221.77 330.84,220.86 331.06,220 331.29,219.22 331.51,218.57 
		331.73,217.76 331.96,217.01 332.18,216.27 332.4,215.64 332.62,214.79 332.85,213.74 333.07,213.01 333.29,212.48 333.52,211.65 
		333.74,211.11 333.96,210.73 334.19,210.36 334.41,209.93 334.63,209.46 334.86,208.77 335.08,208.23 335.3,208.15 335.53,208.07 
		335.75,207.63 335.97,207.37 336.2,207.01 336.42,206.71 336.64,206.32 336.87,205.96 337.09,205.68 337.31,205.78 337.54,205.77 
		337.76,205.56 337.98,205.42 338.21,205.3 338.43,205.13 338.65,205.11 338.88,205.05 339.1,205.14 339.32,205.33 339.54,205.5 
		339.77,205.38 339.99,205.36 340.21,205.43 340.44,205.61 340.66,205.76 340.88,206.08 341.11,206.35 341.33,206.56 341.55,206.73 
		341.78,207 342,207.13 342.22,207.38 342.45,207.6 342.67,208.01 342.89,208.64 343.12,209.18 343.34,209.39 343.56,209.81 
		343.79,210.17 344.01,210.62 344.23,210.97 344.46,211.41 344.68,211.97 344.9,212.53 345.13,212.89 345.35,213.67 345.57,214.29 
		345.79,214.59 346.02,215.01 346.24,215.74 346.46,216.19 346.69,216.73 346.91,217.52 347.13,218.15 347.36,218.6 347.58,219.06 
		347.8,219.53 348.03,220.17 348.25,220.82 348.47,221.52 348.7,222.1 348.92,222.89 349.14,223.72 349.37,224.67 349.59,225.76 
		349.81,226.7 350.04,227.43 350.26,228.34 350.48,229.37 350.71,230.45 350.93,231.35 351.15,232.33 351.38,233.55 351.6,234.95 
		351.82,236.44 352.05,238.08 352.27,240.02 352.49,242.27 352.71,244.25 352.94,245.65 353.16,246.54 353.38,248.47 353.61,251.89 
		353.83,255.81 354.05,258.63 354.28,260.49 354.5,261.7 354.72,262.37 354.95,262.92 355.17,263.65 355.39,264.73 355.62,266.28 
		355.84,267.92 356.06,269.81 356.29,271.91 356.51,273.94 356.73,275.7 356.96,277.03 357.18,277.84 357.4,278.36 357.63,279.68 
		357.85,283.31 358.07,288.54 358.3,293.2 358.52,296.87 358.74,299.79 358.96,301.81 359.19,303.44 359.41,304.67 359.63,305.51 
		359.86,306.15 360.08,306.59 360.3,306.91 360.53,307.29 360.75,307.55 360.97,307.73 361.2,307.78 361.42,307.9 361.64,308.04 
		361.87,308.17 362.09,308.36 362.31,308.52 362.54,308.69 362.76,308.9 362.98,309.1 363.21,309.28 363.43,309.43 363.65,309.63 
		363.88,309.76 364.1,309.82 364.32,309.85 364.54,309.9 364.77,309.98 364.99,310.05 365.22,310 365.44,309.97 365.66,310.12 
		365.88,310.3 366.11,310.35 366.33,310.35 366.55,310.44 366.78,310.59 367,310.61 367.22,310.53 367.45,310.53 367.67,310.59 
		367.89,310.56 368.12,310.4 368.34,310.35 368.56,310.31 368.79,310.2 369.01,310.16 369.23,310.12 369.46,310.13 369.68,310.15 
		369.9,309.98 370.13,309.85 370.35,309.88 370.57,309.88 370.8,309.8 371.02,309.74 371.24,309.67 371.46,309.58 371.69,309.51 
		371.91,309.49 372.13,309.45 372.36,309.39 372.58,309.25 372.8,309.13 373.03,309.1 373.25,309.04 373.47,308.93 373.7,308.91 
		373.92,308.93 374.14,308.97 374.37,309.06 374.59,309.1 374.81,309.1 375.04,309.17 375.26,309.31 	"/>
</g>
<text transform="matrix(1 0 0 1 155.3936 144.3134)" class="st3 st4">2</text>
<text transform="matrix(1 0 0 1 158.6665 144.3134)" class="st5 st4">.</text>
<text transform="matrix(1 0 0 1 160.4849 144.3134)" class="st3 st4">2</text>
<g>
	<defs>
		<rect id="SVGID_00000062909987421368275180000010445287027680697774_" x="166.06" y="135.61" width="228.22" height="193.14"/>
	</defs>
	<clipPath id="SVGID_00000016065792164402581990000016627966567088283044_">
		<use xlink:href="#SVGID_00000062909987421368275180000010445287027680697774_"  style="overflow:visible;"/>
	</clipPath>
	
		<polyline style="clip-path:url(#SVGID_00000016065792164402581990000016627966567088283044_);fill:none;stroke:#33A02C;stroke-width:0.2388;stroke-miterlimit:10;" points="
		185.08,153.56 185.3,156.93 185.52,159.66 185.75,162.13 185.97,163.28 186.19,165.04 186.42,167.2 186.64,168.29 186.86,167.83 
		187.09,168.22 187.31,169.51 187.53,171.49 187.76,174.83 187.98,178.39 188.2,181.61 188.43,184.07 188.65,185.11 188.87,185.1 
		189.1,184.93 189.32,184.08 189.54,182.6 189.77,180.41 189.99,177.74 190.21,174.55 190.44,170.83 190.66,168.15 190.88,166.96 
		191.1,166.73 191.33,166.5 191.55,165.85 191.77,165.49 192,165.49 192.22,164.54 192.44,163.41 192.67,164.83 192.89,167.44 
		193.11,169.01 193.34,169.74 193.56,170.5 193.78,171.57 194.01,172.42 194.23,173.07 194.45,173.57 194.68,174.13 194.9,174.87 
		195.12,175.63 195.35,175.93 195.57,175.83 195.79,175.87 196.02,176.45 196.24,177.03 196.46,176.83 196.69,176.14 196.91,176.05 
		197.13,176.78 197.35,177.58 197.58,178.32 197.8,178.86 198.02,179.03 198.25,178.97 198.47,179.47 198.69,180.46 198.92,181.36 
		199.14,181.86 199.36,181.65 199.59,180.44 199.81,178.24 200.03,175.68 200.26,175.34 200.48,176.89 200.7,177.84 200.93,177.52 
		201.15,176.28 201.37,174.25 201.6,173.19 201.82,174.16 202.04,174.76 202.27,174.29 202.49,173.4 202.71,172.58 202.93,172.08 
		203.16,171.47 203.38,170.98 203.61,170.05 203.83,168.83 204.05,167.48 204.27,166.05 204.5,165.25 204.72,164.77 204.94,164.14 
		205.17,163.79 205.39,163.64 205.61,163.83 205.84,163.94 206.06,163.51 206.28,162.76 206.51,162.32 206.73,162.28 206.95,161.86 
		207.18,161.09 207.4,160.39 207.62,160.34 207.85,160.64 208.07,160.68 208.29,160.39 208.52,160.47 208.74,161.26 208.96,161.94 
		209.19,162.43 209.41,162.73 209.63,162.92 209.85,163.14 210.08,162.99 210.3,162.34 210.52,161.33 210.75,160.1 210.97,159.17 
		211.19,158.11 211.42,158.24 211.64,161.01 211.86,164.69 212.09,167.64 212.31,169.99 212.53,171.95 212.76,173.13 212.98,173.2 
		213.2,172.49 213.43,171.57 213.65,170.38 213.87,169.46 214.1,168.78 214.32,167.76 214.54,166.89 214.77,166.32 214.99,165.72 
		215.21,164.96 215.44,164.49 215.66,164.23 215.88,164.12 216.1,164.01 216.33,163.49 216.55,163.31 216.77,163.25 217,162.22 
		217.22,159.98 217.44,157.34 217.67,155.87 217.89,156.21 218.11,157.55 218.34,159.44 218.56,161.64 218.78,164.24 219.01,166.58 
		219.23,167.99 219.45,169.4 219.68,170.62 219.9,170.99 220.12,171.22 220.35,171.77 220.57,172.22 220.79,172.75 221.02,173.84 
		221.24,174.84 221.46,175.36 221.69,175.4 221.91,174.76 222.13,172.89 222.36,170.22 222.58,168.45 222.8,167.02 223.02,163.75 
		223.25,157.33 223.47,151.7 223.69,154.64 223.92,162.86 224.14,169.49 224.36,173.39 224.59,175.58 224.81,176.42 225.03,176.51 
		225.26,176.6 225.48,176.48 225.7,176.36 225.93,176.33 226.15,176.1 226.37,175.66 226.6,174.7 226.82,173.53 227.04,173.64 
		227.27,173.31 227.49,170.46 227.71,166.13 227.94,163.45 228.16,163.2 228.38,165.35 228.61,170.3 228.83,177.26 229.05,184.71 
		229.27,190.73 229.5,194.65 229.72,197.44 229.94,199.61 230.17,200.94 230.39,201.94 230.61,202.81 230.84,203.48 231.06,203.89 
		231.28,204.12 231.51,204.5 231.73,205.05 231.95,205.25 232.18,204.94 232.4,204.58 232.62,204.45 232.85,204.36 233.07,204.15 
		233.29,203.76 233.52,203.62 233.74,203.62 233.96,203.68 234.19,203.43 234.41,203.13 234.63,202.72 234.86,202.18 235.08,201.29 
		235.3,200.17 235.53,198.92 235.75,197.44 235.97,195.62 236.19,193.54 236.42,191.23 236.64,188.67 236.86,185.7 237.09,182.51 
		237.31,178.5 237.53,173.92 237.76,169.5 237.98,165.55 238.2,162.92 238.43,161.67 238.65,160.55 238.87,159.87 239.1,159.75 
		239.32,160.1 239.54,160.42 239.77,160.69 239.99,161.3 240.21,162.35 240.44,163.67 240.66,165.2 240.88,166.91 241.11,169.41 
		241.33,172.9 241.55,176.59 241.78,180.7 242,185.07 242.22,188.59 242.44,190.53 242.67,191.26 242.89,191.24 243.11,190.66 
		243.34,189.08 243.56,187.35 243.78,186.13 244.01,185.38 244.23,184.86 244.45,184.59 244.68,184.86 244.9,185.59 245.12,186.52 
		245.35,187.85 245.57,190.34 245.79,194.46 246.02,199.38 246.24,204.62 246.46,209.46 246.69,213.36 246.91,216.84 247.13,219.95 
		247.36,222.63 247.58,224.96 247.8,226.83 248.03,228.43 248.25,229.88 248.47,231.14 248.7,232.25 248.92,233.25 249.14,234.12 
		249.36,234.93 249.59,235.73 249.81,236.35 250.03,236.89 250.26,237.52 250.48,238.17 250.7,238.68 250.93,239.14 251.15,239.62 
		251.37,240.02 251.6,240.4 251.82,240.84 252.04,241.28 252.27,241.62 252.49,241.95 252.71,242.29 252.94,242.62 253.16,242.92 
		253.38,243.13 253.61,243.35 253.83,243.57 254.05,243.79 254.28,244 254.5,244.24 254.72,244.58 254.95,244.9 255.17,245.16 
		255.39,245.47 255.61,245.77 255.84,246.07 256.06,246.27 256.28,246.49 256.51,246.69 256.73,246.84 256.95,247.05 257.18,247.29 
		257.4,247.39 257.62,247.55 257.85,247.82 258.07,248.04 258.29,248.25 258.52,248.49 258.74,248.71 258.96,248.94 259.19,249.16 
		259.41,249.37 259.63,249.57 259.86,249.78 260.08,249.99 260.3,250.16 260.53,250.33 260.75,250.58 260.97,250.88 261.19,251.16 
		261.42,251.45 261.64,251.8 261.86,252.13 262.09,252.42 262.31,252.72 262.53,253.07 262.76,253.36 262.98,253.63 263.2,253.9 
		263.43,254.15 263.65,254.32 263.87,254.5 264.1,254.62 264.32,254.74 264.54,254.88 264.77,255.04 264.99,255.1 265.21,255.13 
		265.44,255.17 265.66,255.22 265.88,255.21 266.11,255.26 266.33,255.28 266.55,255.23 266.78,255.18 267,255.2 267.22,255.29 
		267.45,255.47 267.67,255.7 267.89,255.94 268.11,256.19 268.34,256.52 268.56,256.85 268.78,257.22 269.01,257.63 269.23,258.04 
		269.45,258.45 269.68,258.91 269.9,259.36 270.12,259.72 270.35,260.02 270.57,260.34 270.79,260.64 271.02,260.98 271.24,261.31 
		271.46,261.63 271.69,261.91 271.91,262.16 272.13,262.41 272.36,262.67 272.58,262.93 272.8,263.19 273.03,263.44 273.25,263.69 
		273.47,263.89 273.7,264.07 273.92,264.25 274.14,264.44 274.36,264.58 274.59,264.81 274.81,265.07 275.03,265.29 275.26,265.48 
		275.48,265.69 275.7,265.93 275.93,266.24 276.15,266.53 276.37,266.85 276.6,267.12 276.82,267.33 277.04,267.54 277.27,267.81 
		277.49,268.14 277.71,268.45 277.94,268.73 278.16,269.05 278.38,269.29 278.61,269.47 278.83,269.57 279.05,269.68 279.28,269.79 
		279.5,269.86 279.72,269.83 279.95,270 280.17,270.35 280.39,270.6 280.62,270.68 280.84,270.67 281.06,270.67 281.28,270.72 
		281.51,270.76 281.73,270.84 281.95,270.9 282.18,270.97 282.4,271.05 282.62,271.15 282.85,271.29 283.07,271.5 283.29,271.61 
		283.52,271.74 283.74,271.96 283.96,272.13 284.19,272.28 284.41,272.37 284.63,272.53 284.86,272.73 285.08,272.8 285.3,272.8 
		285.53,272.8 285.75,272.85 285.97,272.87 286.2,272.84 286.42,272.85 286.64,272.83 286.87,272.67 287.09,272.49 287.31,272.3 
		287.53,272.02 287.76,271.74 287.98,271.55 288.2,271.49 288.43,271.55 288.65,271.6 288.87,271.7 289.1,271.85 289.32,271.99 
		289.54,272.13 289.77,272.16 289.99,272 290.21,271.69 290.44,271.12 290.66,270.16 290.88,268.73 291.11,267.08 291.33,265.68 
		291.55,265 291.78,265.12 292,265.87 292.22,266.83 292.45,267.75 292.67,268.56 292.89,269.25 293.12,269.84 293.34,270.36 
		293.56,270.89 293.79,271.35 294.01,271.59 294.23,271.62 294.45,271.5 294.68,271.2 294.9,270.88 295.12,270.6 295.35,270.32 
		295.57,270.08 295.79,269.89 296.02,269.73 296.24,269.59 296.46,269.44 296.69,269.19 296.91,268.91 297.13,268.71 297.36,268.53 
		297.58,268.51 297.8,268.62 298.03,268.77 298.25,268.86 298.47,269.02 298.7,269.12 298.92,269.17 299.14,269.19 299.37,269.3 
		299.59,269.41 299.81,269.42 300.04,269.34 300.26,269.15 300.48,268.83 300.7,268.3 300.93,267.57 301.15,266.81 301.37,266.25 
		301.6,266.22 301.82,266.44 302.04,266.65 302.27,266.95 302.49,267.24 302.71,267.4 302.94,267.46 303.16,267.49 303.38,267.49 
		303.61,267.35 303.83,267.07 304.05,266.78 304.28,266.46 304.5,266.02 304.72,265.45 304.95,264.7 305.17,263.82 305.39,262.86 
		305.62,262 305.84,261.11 306.06,259.97 306.29,258.69 306.51,257.36 306.73,255.96 306.96,254.23 307.18,251.67 307.4,247.77 
		307.62,241.64 307.85,234.33 308.07,229.68 308.29,228.85 308.52,228.45 308.74,226.86 308.96,225.58 309.19,223.79 309.41,219.46 
		309.63,213.83 309.86,209.68 310.08,206.93 310.3,204.76 310.53,203.82 310.75,203.38 310.97,202.55 311.2,201.12 311.42,198.69 
		311.64,195.31 311.87,192.01 312.09,189.14 312.31,186.11 312.54,182.9 312.76,180.38 312.98,179.65 313.2,180.85 313.43,183.72 
		313.65,187.86 313.87,191.59 314.1,192.88 314.32,191.77 314.54,190.7 314.77,190.24 314.99,189.82 315.21,189.86 315.44,192.55 
		315.66,198.45 315.88,205.73 316.11,212.64 316.33,219.07 316.55,224.82 316.78,229.97 317,234.46 317.22,238.33 317.45,241.7 
		317.67,244.63 317.89,246.86 318.12,248.47 318.34,249.76 318.56,250.89 318.79,251.81 319.01,252.62 319.23,253.2 319.45,253.82 
		319.68,254.5 319.9,255 320.12,255.44 320.35,255.73 320.57,255.88 320.79,256 321.02,255.97 321.24,255.84 321.46,255.65 
		321.69,255.34 321.91,254.86 322.13,254.49 322.36,254.21 322.58,253.85 322.8,253.39 323.03,252.89 323.25,252.27 323.47,251.7 
		323.7,251.15 323.92,250.53 324.14,249.78 324.37,249.07 324.59,248.42 324.81,247.73 325.04,246.94 325.26,246.12 325.48,245.37 
		325.71,244.67 325.93,243.93 326.15,243.25 326.37,242.56 326.6,241.84 326.82,241.15 327.04,240.46 327.27,239.66 327.49,238.77 
		327.71,237.86 327.94,237.09 328.16,236.25 328.38,235.35 328.61,234.47 328.83,233.72 329.05,232.95 329.28,232.12 329.5,231.42 
		329.72,230.84 329.95,230.23 330.17,229.71 330.39,229.2 330.62,228.55 330.84,227.81 331.06,227.2 331.29,226.52 331.51,225.79 
		331.73,225.1 331.96,224.47 332.18,223.6 332.4,222.97 332.62,222.53 332.85,221.81 333.07,220.99 333.29,220.34 333.52,219.88 
		333.74,219.54 333.96,218.93 334.19,218.23 334.41,217.75 334.63,217.63 334.86,217.26 335.08,216.79 335.3,216.46 335.53,216.35 
		335.75,216.31 335.97,216.22 336.2,215.9 336.42,215.6 336.64,215.31 336.87,215.09 337.09,214.76 337.31,214.59 337.54,214.6 
		337.76,214.48 337.98,214.38 338.21,214.48 338.43,214.4 338.65,214.16 338.88,214.11 339.1,214.26 339.32,214.39 339.54,214.51 
		339.77,214.42 339.99,214.5 340.21,214.74 340.44,214.88 340.66,214.81 340.88,215.08 341.11,215.34 341.33,215.62 341.55,215.73 
		341.78,215.85 342,216.09 342.22,216.35 342.45,216.51 342.67,216.84 342.89,217.23 343.12,217.62 343.34,217.86 343.56,218.2 
		343.79,218.75 344.01,219.22 344.23,219.28 344.46,219.5 344.68,219.88 344.9,220.31 345.13,220.81 345.35,221.28 345.57,221.57 
		345.79,222.04 346.02,222.46 346.24,222.76 346.46,223.3 346.69,224.02 346.91,224.46 347.13,224.9 347.36,225.45 347.58,225.96 
		347.8,226.36 348.03,226.93 348.25,227.43 348.47,227.91 348.7,228.56 348.92,229.31 349.14,229.81 349.37,230.37 349.59,231.02 
		349.81,231.73 350.04,232.48 350.26,233.3 350.48,234.02 350.71,234.87 350.93,235.5 351.15,236.27 351.38,237.44 351.6,238.58 
		351.82,239.6 352.05,240.98 352.27,242.49 352.49,244.11 352.71,245.53 352.94,246.27 353.16,246.16 353.38,247.41 353.61,250.97 
		353.83,255 354.05,257.92 354.28,259.89 354.5,261.08 354.72,261.69 354.95,262.1 355.17,262.74 355.39,263.93 355.62,265.41 
		355.84,266.92 356.06,268.6 356.29,270.28 356.51,271.85 356.73,273.04 356.96,273.62 357.18,273.39 357.4,272.54 357.63,272.82 
		357.85,276.74 358.07,283.51 358.3,289.99 358.52,295.29 358.74,299.45 358.96,302.36 359.19,304.59 359.41,306.19 359.63,307.4 
		359.86,308.35 360.08,308.83 360.3,309.21 360.53,309.71 360.75,310.09 360.97,310.24 361.2,310.21 361.42,310.34 361.64,310.52 
		361.87,310.71 362.09,310.84 362.31,310.95 362.54,311.04 362.76,311.14 362.98,311.23 363.21,311.27 363.43,311.37 363.65,311.54 
		363.88,311.68 364.1,311.73 364.32,311.71 364.54,311.77 364.77,311.91 364.99,311.99 365.22,311.95 365.44,311.95 365.66,312.13 
		365.88,312.3 366.11,312.25 366.33,312.16 366.55,312.34 366.78,312.65 367,312.53 367.22,312.37 367.45,312.49 367.67,312.57 
		367.89,312.49 368.12,312.3 368.34,312.24 368.56,312.23 368.79,312.24 369.01,312.24 369.23,312.19 369.46,312.24 369.68,312.34 
		369.9,312.23 370.13,312.07 370.35,312.06 370.57,312.08 370.8,312 371.02,311.88 371.24,311.82 371.46,311.81 371.69,311.78 
		371.91,311.76 372.13,311.76 372.36,311.75 372.58,311.65 372.8,311.63 373.03,311.63 373.25,311.55 373.47,311.49 373.7,311.4 
		373.92,311.32 374.14,311.37 374.37,311.49 374.59,311.58 374.81,311.61 375.04,311.69 375.26,311.76 	"/>
</g>
<text transform="matrix(1 0 0 1 250.2178 346.5883)"><tspan x="0" y="0" class="st3 st4">W</tspan><tspan x="5" y="0" class="st3 st4">a</tspan><tspan x="7.97" y="0" class="st3 st4">v</tspan><tspan x="10.94" y="0" class="st3 st4">e</tspan><tspan x="14.22" y="0" class="st3 st4">n</tspan><tspan x="17.68" y="0" class="st3 st4">u</tspan><tspan x="21.29" y="0" class="st3 st4">m</tspan><tspan x="26.57" y="0" class="st3 st4">b</tspan><tspan x="30.48" y="0" class="st3 st4">er</tspan></text>
<text transform="matrix(1 0 0 1 292.2354 346.5883)" class="st3 st4">cm</text>
<text transform="matrix(1 0 0 1 300.5996 344.2128)" class="st8 st9">−</text>
<text transform="matrix(1 0 0 1 304.5508 344.2128)" class="st10 st9">1</text>
<text transform="matrix(-6.123234e-17 -1 1 -6.123234e-17 150.9111 248.8422)" class="st3 st4">Absorbance</text>
<rect x="364.26" y="139.59" class="st11" width="25.33" height="18.08"/>
<rect x="364.26" y="139.59" class="st2" width="25.33" height="18.08"/>
<polyline class="st12" points="366.17,144.71 371.28,144.71 376.38,144.71 "/>
<text transform="matrix(1 0 0 1 377.6934 146.4545)" class="st3 st4">PE</text>
<polyline class="st13" points="366.17,152.55 371.28,152.55 376.38,152.55 "/>
<text transform="matrix(1 0 0 1 377.6934 154.3002)" class="st3 st4">PP</text>
</svg>
