<?xml version="1.0" encoding="utf-8"?>
<!-- Generator: Adobe Illustrator 26.0.3, SVG Export Plug-In . SVG Version: 6.00 Build 0)  -->
<svg version="1.1" id="Layer_1" xmlns="http://www.w3.org/2000/svg" xmlns:xlink="http://www.w3.org/1999/xlink" x="0px" y="0px"
	 viewBox="0 0 403.65 170.16" style="enable-background:new 0 0 403.65 170.16;" xml:space="preserve">
<style type="text/css">
	.st0{fill:none;stroke:#D9D9D9;stroke-width:0.191;stroke-miterlimit:10;stroke-dasharray:1.4347,1.4347;}
	.st1{fill:none;stroke:#808080;stroke-width:0.0955;stroke-miterlimit:10;}
	.st2{fill:none;stroke:#000000;stroke-width:0.191;stroke-miterlimit:10;}
	.st3{font-family:'CMR10';}
	.st4{font-size:5.2363px;}
	
		.st5{clip-path:url(#SVGID_00000032633616152022013140000000922620613970809216_);fill:none;stroke:#1C9099;stroke-width:0.191;stroke-miterlimit:10;}
	
		.st6{clip-path:url(#SVGID_00000032633616152022013140000000922620613970809216_);fill:none;stroke:#FEC44F;stroke-width:0.191;stroke-miterlimit:10;}
	.st7{fill:#FFFFFF;}
	.st8{fill:none;stroke:#1C9099;stroke-width:0.191;stroke-miterlimit:10;}
	.st9{fill:none;stroke:#FEC44F;stroke-width:0.191;stroke-miterlimit:10;}
	.st10{letter-spacing:1;}
	
		.st11{clip-path:url(#SVGID_00000054268121200468508070000006205276772751030947_);fill:none;stroke:#1C9099;stroke-width:0.191;stroke-miterlimit:10;}
	
		.st12{clip-path:url(#SVGID_00000054268121200468508070000006205276772751030947_);fill:none;stroke:#FEC44F;stroke-width:0.191;stroke-miterlimit:10;}
</style>
<path class="st0" d="M186.04,154.61V0.1 M160.69,154.61V0.1 M135.33,154.61V0.1 M109.97,154.61V0.1 M84.61,154.61V0.1 M59.26,154.61
	V0.1 M33.9,154.61V0.1"/>
<path class="st0" d="M18.68,7.92h182.58 M18.68,20.55h182.58 M18.68,33.17h182.58 M18.68,45.79h182.58 M18.68,58.42h182.58
	 M18.68,71.04h182.58 M18.68,83.67h182.58 M18.68,96.29h182.58 M18.68,108.91h182.58 M18.68,121.54h182.58 M18.68,134.16h182.58
	 M18.68,146.78h182.58"/>
<path class="st1" d="M186.04,0.1v2.04 M160.69,0.1v2.04 M135.33,0.1v2.04 M109.97,0.1v2.04 M84.61,0.1v2.04 M59.26,0.1v2.04
	 M33.9,0.1v2.04 M186.04,154.61v-2.04 M160.69,154.61v-2.04 M135.33,154.61v-2.04 M109.97,154.61v-2.04 M84.61,154.61v-2.04
	 M59.26,154.61v-2.04 M33.9,154.61v-2.04"/>
<path class="st1" d="M201.26,7.92h-2.04 M201.26,20.55h-2.04 M201.26,33.17h-2.04 M201.26,45.79h-2.04 M201.26,58.42h-2.04
	 M201.26,71.04h-2.04 M201.26,83.67h-2.04 M201.26,96.29h-2.04 M201.26,108.91h-2.04 M201.26,121.54h-2.04 M201.26,134.16h-2.04
	 M201.26,146.78h-2.04 M18.68,7.92h2.04 M18.68,20.55h2.04 M18.68,33.17h2.04 M18.68,45.79h2.04 M18.68,58.42h2.04 M18.68,71.04
	h2.04 M18.68,83.67h2.04 M18.68,96.29h2.04 M18.68,108.91h2.04 M18.68,121.54h2.04 M18.68,134.16h2.04 M18.68,146.78h2.04"/>
<rect x="18.68" y="0.1" class="st2" width="182.58" height="154.52"/>
<text transform="matrix(-6.123234e-17 -1 1 -6.123234e-17 35.5851 159.0704)" class="st3 st4">0</text>
<text transform="matrix(-6.123234e-17 -1 1 -6.123234e-17 60.9426 159.0704)" class="st3 st4">5</text>
<text transform="matrix(-6.123234e-17 -1 1 -6.123234e-17 86.3007 161.688)" class="st3 st4">10</text>
<text transform="matrix(-6.123234e-17 -1 1 -6.123234e-17 111.6577 161.6885)" class="st3 st4">15</text>
<text transform="matrix(-6.123234e-17 -1 1 -6.123234e-17 137.0151 161.6885)" class="st3 st4">20</text>
<text transform="matrix(-6.123234e-17 -1 1 -6.123234e-17 162.373 161.688)" class="st3 st4">25</text>
<text transform="matrix(-6.123234e-17 -1 1 -6.123234e-17 187.73 161.6885)" class="st3 st4">30</text>
<text transform="matrix(1 0 0 1 11.6055 148.4708)" class="st3 st4">45</text>
<text transform="matrix(1 0 0 1 11.6055 135.8472)" class="st3 st4">50</text>
<text transform="matrix(1 0 0 1 11.6055 123.2237)" class="st3 st4">55</text>
<text transform="matrix(1 0 0 1 11.6055 110.6002)" class="st3 st4">60</text>
<text transform="matrix(1 0 0 1 11.6055 97.9766)" class="st3 st4">65</text>
<text transform="matrix(1 0 0 1 11.6055 85.3531)" class="st3 st4">70</text>
<text transform="matrix(1 0 0 1 11.6055 72.7296)" class="st3 st4">75</text>
<text transform="matrix(1 0 0 1 11.6055 60.106)" class="st3 st4">80</text>
<text transform="matrix(1 0 0 1 11.6055 47.4825)" class="st3 st4">85</text>
<text transform="matrix(1 0 0 1 11.6055 34.8589)" class="st3 st4">90</text>
<text transform="matrix(1 0 0 1 11.6055 22.2354)" class="st3 st4">95</text>
<text transform="matrix(1 0 0 1 8.9878 9.6119)" class="st3 st4">100</text>
<g>
	<defs>
		<rect id="SVGID_1_" x="18.68" y="0.1" width="182.58" height="154.52"/>
	</defs>
	<clipPath id="SVGID_00000034065342381312299340000014802533419738231435_">
		<use xlink:href="#SVGID_1_"  style="overflow:visible;"/>
	</clipPath>
	
		<polyline style="clip-path:url(#SVGID_00000034065342381312299340000014802533419738231435_);fill:none;stroke:#1C9099;stroke-width:0.191;stroke-miterlimit:10;" points="
		33.9,139.21 38.97,131.64 44.04,139.21 49.11,96.29 54.18,86.19 59.26,50.84 64.33,12.97 69.4,25.6 74.47,15.5 79.54,15.5 
		84.61,15.5 89.68,15.5 94.76,15.5 99.83,15.5 104.9,15.5 109.97,12.97 115.04,12.97 120.11,15.5 125.19,12.97 130.26,15.5 
		135.33,15.5 140.4,15.5 145.47,15.5 150.54,12.97 155.61,12.97 160.69,12.97 165.76,12.97 170.83,15.5 175.9,12.97 180.97,12.97 
		186.04,12.97 	"/>
	
		<polyline style="clip-path:url(#SVGID_00000034065342381312299340000014802533419738231435_);fill:none;stroke:#FEC44F;stroke-width:0.191;stroke-miterlimit:10;" points="
		33.9,141.73 38.97,129.11 44.04,141.73 49.11,121.54 54.18,139.21 59.26,71.04 64.33,20.55 69.4,63.47 74.47,38.22 79.54,20.55 
		84.61,28.12 89.68,28.12 94.76,38.22 99.83,55.89 104.9,43.27 109.97,30.65 115.04,30.65 120.11,33.17 125.19,30.65 130.26,35.7 
		135.33,43.27 140.4,35.7 145.47,30.65 150.54,33.17 155.61,33.17 160.69,30.65 165.76,30.65 170.83,33.17 175.9,28.12 
		180.97,30.65 186.04,30.65 	"/>
</g>
<text transform="matrix(-6.123234e-17 -1 1 -6.123234e-17 4.3828 87.98)" class="st3 st4">Accuracy</text>
<text transform="matrix(1 0 0 1 103.083 168.8526)"><tspan x="0" y="0" class="st3 st4">E</tspan><tspan x="2.58" y="0" class="st3 st4">po</tspan><tspan x="8.72" y="0" class="st3 st4">cs</tspan></text>
<rect x="164.37" y="135.3" class="st7" width="31.32" height="14.58"/>
<rect x="164.37" y="135.3" class="st2" width="31.32" height="14.58"/>
<polyline class="st8" points="165.9,139.42 169.98,139.42 174.06,139.42 "/>
<polyline class="st9" points="165.9,145.76 169.98,145.76 174.06,145.76 "/>
<text transform="matrix(1 0 0 1 175.2573 140.8472)"><tspan x="0" y="0" class="st3 st4">V</tspan><tspan x="2.49" y="0" class="st3 st4">a</tspan><tspan x="5.02" y="0" class="st3 st4 st10">l</tspan><tspan x="8" y="0" class="st3 st4">Acc</tspan></text>
<path class="st0" d="M388.34,154.61V0.1 M362.98,154.61V0.1 M337.62,154.61V0.1 M312.26,154.61V0.1 M286.9,154.61V0.1
	 M261.55,154.61V0.1 M236.19,154.61V0.1"/>
<text transform="matrix(1 0 0 1 175.1118 147.1817)"><tspan x="0" y="0" class="st3 st4">St</tspan><tspan x="4.31" y="0" class="st3 st4 st10">d</tspan><tspan x="9.01" y="0" class="st3 st4">Acc</tspan></text>
<path class="st0" d="M220.97,8.24h182.58 M220.97,25.15h182.58 M220.97,42.06h182.58 M220.97,58.96h182.58 M220.97,75.87h182.58
	 M220.97,92.78h182.58 M220.97,109.68h182.58 M220.97,126.59h182.58 M220.97,143.5h182.58"/>
<path class="st1" d="M388.34,0.1v2.04 M362.98,0.1v2.04 M337.62,0.1v2.04 M312.26,0.1v2.04 M286.9,0.1v2.04 M261.55,0.1v2.04
	 M236.19,0.1v2.04 M388.34,154.61v-2.04 M362.98,154.61v-2.04 M337.62,154.61v-2.04 M312.26,154.61v-2.04 M286.9,154.61v-2.04
	 M261.55,154.61v-2.04 M236.19,154.61v-2.04"/>
<path class="st1" d="M403.55,8.24h-2.04 M403.55,25.15h-2.04 M403.55,42.06h-2.04 M403.55,58.96h-2.04 M403.55,75.87h-2.04
	 M403.55,92.78h-2.04 M403.55,109.68h-2.04 M403.55,126.59h-2.04 M403.55,143.5h-2.04 M220.97,8.24h2.04 M220.97,25.15h2.04
	 M220.97,42.06h2.04 M220.97,58.96h2.04 M220.97,75.87h2.04 M220.97,92.78h2.04 M220.97,109.68h2.04 M220.97,126.59h2.04
	 M220.97,143.5h2.04"/>
<rect x="220.97" y="0.1" class="st2" width="182.58" height="154.52"/>
<text transform="matrix(-6.123234e-17 -1 1 -6.123234e-17 237.8766 159.0704)" class="st3 st4">0</text>
<text transform="matrix(-6.123234e-17 -1 1 -6.123234e-17 263.2341 159.0704)" class="st3 st4">5</text>
<text transform="matrix(-6.123234e-17 -1 1 -6.123234e-17 288.5922 161.6885)" class="st3 st4">10</text>
<text transform="matrix(-6.123234e-17 -1 1 -6.123234e-17 313.9492 161.6885)" class="st3 st4">15</text>
<text transform="matrix(-6.123234e-17 -1 1 -6.123234e-17 339.3066 161.6885)" class="st3 st4">20</text>
<text transform="matrix(-6.123234e-17 -1 1 -6.123234e-17 364.6641 161.6885)" class="st3 st4">25</text>
<text transform="matrix(-6.123234e-17 -1 1 -6.123234e-17 390.0215 161.6885)" class="st3 st4">30</text>
<text transform="matrix(1 0 0 1 216.5151 145.1861)" class="st3 st4">0</text>
<text transform="matrix(1 0 0 1 216.5151 128.2789)" class="st3 st4">2</text>
<text transform="matrix(1 0 0 1 216.5151 111.3726)" class="st3 st4">4</text>
<text transform="matrix(1 0 0 1 216.5151 94.4654)" class="st3 st4">6</text>
<text transform="matrix(1 0 0 1 216.5151 77.5587)" class="st3 st4">8</text>
<text transform="matrix(1 0 0 1 213.897 60.6519)" class="st3 st4">10</text>
<text transform="matrix(1 0 0 1 213.897 43.7452)" class="st3 st4">12</text>
<text transform="matrix(1 0 0 1 213.897 26.8384)" class="st3 st4">14</text>
<text transform="matrix(1 0 0 1 213.897 9.9317)" class="st3 st4">16</text>
<g>
	<defs>
		<rect id="SVGID_00000032628034659781044180000014604622827402388872_" x="220.97" y="0.1" width="182.58" height="154.52"/>
	</defs>
	<clipPath id="SVGID_00000112631487420894249260000017711373184963315603_">
		<use xlink:href="#SVGID_00000032628034659781044180000014604622827402388872_"  style="overflow:visible;"/>
	</clipPath>
	
		<polyline style="clip-path:url(#SVGID_00000112631487420894249260000017711373184963315603_);fill:none;stroke:#1C9099;stroke-width:0.191;stroke-miterlimit:10;" points="
		236.19,16.7 241.26,29.84 246.33,12.97 251.4,141.02 256.48,93.59 261.55,115.46 266.62,141.73 271.69,136.65 276.76,140.97 
		281.83,140.55 286.9,140.85 291.98,141.32 297.05,141.3 302.12,140.52 307.19,140 312.26,139.87 317.33,140.93 322.41,140.86 
		327.48,141.01 332.55,141.02 337.62,141.06 342.69,140.7 347.76,140.99 352.83,141.07 357.91,141.48 362.98,141.12 368.05,140.92 
		373.12,140.39 378.19,141.3 383.26,141.18 388.34,141.18 	"/>
	
		<polyline style="clip-path:url(#SVGID_00000112631487420894249260000017711373184963315603_);fill:none;stroke:#FEC44F;stroke-width:0.191;stroke-miterlimit:10;" points="
		236.19,16.7 241.26,33.6 246.33,49.5 251.4,139.02 256.48,72.03 261.55,107.51 266.62,138.2 271.69,139.36 276.76,140.48 
		281.83,134.26 286.9,135.81 291.98,140.56 297.05,140.37 302.12,140.16 307.19,139 312.26,139.41 317.33,140.39 322.41,140.09 
		327.48,139.43 332.55,140.16 337.62,139.35 342.69,139.06 347.76,139.84 352.83,139.83 357.91,139.53 362.98,139.36 368.05,139.28 
		373.12,139.27 378.19,139.18 383.26,139.6 388.34,139.6 	"/>
</g>
<text transform="matrix(1 0 0 1 305.3745 168.8531)"><tspan x="0" y="0" class="st3 st4">E</tspan><tspan x="2.58" y="0" class="st3 st4">po</tspan><tspan x="8.72" y="0" class="st3 st4">cs</tspan></text>
<text transform="matrix(-6.123234e-17 -1 1 -6.123234e-17 210.3111 82.3653)" class="st3 st4">Loss</text>
<rect x="365.22" y="4.83" class="st7" width="32.76" height="14.58"/>
<rect x="365.22" y="4.83" class="st2" width="32.76" height="14.58"/>
<polyline class="st8" points="366.75,8.95 370.83,8.95 374.91,8.95 "/>
<polyline class="st9" points="366.75,15.29 370.83,15.29 374.91,15.29 "/>
<text transform="matrix(1 0 0 1 376.1089 10.3775)"><tspan x="0" y="0" class="st3 st4">V</tspan><tspan x="2.49" y="0" class="st3 st4">a</tspan><tspan x="5.02" y="0" class="st3 st4 st10">l</tspan><tspan x="8" y="0" class="st3 st4">Loss</tspan></text>
<text transform="matrix(1 0 0 1 375.9634 16.712)"><tspan x="0" y="0" class="st3 st4">St</tspan><tspan x="4.31" y="0" class="st3 st4 st10">d</tspan><tspan x="9.01" y="0" class="st3 st4">Loss</tspan></text>
</svg>
